<svg xmlns="http://www.w3.org/2000/svg" xmlns:xlink="http://www.w3.org/1999/xlink" viewBox="0 0 648.33 317.48"><defs><style>.cls-1{fill:none;}.cls-2{clip-path:url(#clip-path);}.cls-3{clip-path:url(#clip-path-2);}</style><clipPath id="clip-path" transform="translate(145.67 -24.58)"><rect class="cls-1" width="279.11" height="224.05"/></clipPath><clipPath id="clip-path-2" transform="translate(145.67 -24.58)"><rect class="cls-1" x="-8653.53" y="-8648.08" width="17662.5" height="17662.5"/></clipPath></defs><g id="Layer_2" data-name="Layer 2"><g id="Layer_1-2" data-name="Layer 1"><g class="cls-2"><g class="cls-3"><g class="cls-3"><path d="M190,60.21s21.39,38.81.82,85.71h6.86s15.22-6.72,25.92,0c0,0,11.52-56.64-33.6-85.71m31,81.13c-10.28-4.8-21.66,1-21.66,1H195.9c16.45-30.31,1.51-72.41,1.51-72.41C228,99,221,141.34,221,141.34" transform="translate(145.67 -24.58)"/><path d="M167,33.56s18.84,49.31-52.36,113.3c0,0,5.67-.09,25.49-3.59,8.78-1.56,29-12.08,36.05,3.19,0,0,3.3-3.09,4.08-4.57C214,77.9,167,33.56,167,33.56m9.61,105.73c-.7,1.26-1,1.37-1,1.37-8.59-10.29-22.43-4.56-29.62-2.42-16.18,4.8-22.21,4.52-22.21,4.52,59.65-53.48,48.27-98,48.27-98s33.64,42.15,4.57,94.58" transform="translate(145.67 -24.58)"/><path d="M173.68,24.58a96.65,96.65,0,1,0,96.64,96.65,96.65,96.65,0,0,0-96.64-96.65m.58,188a91.33,91.33,0,1,1,91.32-91.32,91.32,91.32,0,0,1-91.32,91.32" transform="translate(145.67 -24.58)"/><path d="M119.24,87.09l3.15.13s4.12,1.51,6.11,4c0,0,.89,2.54,1.44,2.74,0,0,1,1.24,2.4-.55A18.94,18.94,0,0,0,136,90s.61-1.37,2.67-.55a7.85,7.85,0,0,0,3.57,1.16s1,.07.07-1.3A12.64,12.64,0,0,0,139.26,86s-1.71-1.1-2.74-.14.13-.27.13-.27a10.63,10.63,0,0,0-3.22,3.29h-2.12a41.6,41.6,0,0,0-4.19-4,8.16,8.16,0,0,0-4.86.76,10.17,10.17,0,0,0-3,1.44" transform="translate(145.67 -24.58)"/><path d="M101.14,80.37A11.4,11.4,0,0,1,104,78.79s2.67.07,3.63,1c0,0,1.1,1.23,2.06.2,0,0,2-.75,2.47-1.71a10.64,10.64,0,0,1,2.94.07,4,4,0,0,0-1.23-1.17,2.31,2.31,0,0,0-1.44-1.92A7.86,7.86,0,0,0,110,77.42a1.17,1.17,0,0,1-1.71,0,10.51,10.51,0,0,0-2.67-1.3,4.54,4.54,0,0,0-3.16,1.64,8.47,8.47,0,0,0-1.3,2.61" transform="translate(145.67 -24.58)"/><path d="M122.39,68.16s1.17-.48,1.72-.68c0,0,1.16-.28,1.57.61a1.74,1.74,0,0,0,1,.48s.9.69.9,1c0,0,2,.41,2.46-.34a4.8,4.8,0,0,0,.48-1s1.92-.75,2,.28a3.52,3.52,0,0,0,.89.4s1,.83,1.24.69c0,0,.41-.21-1.37-1.44,0,0-.83-1.51-1.72-1.85a4.16,4.16,0,0,0-1.85,1s-1.1.34-1.51-.27a4.7,4.7,0,0,0-.89-1l-1.1.07s.14-1-.27-1.17c0,0-.34-.27-1.37,1,0,0-1,1-1.17,1,0,0-.48.61-1,.34,0,0-.48.27,0,.89" transform="translate(145.67 -24.58)"/><path d="M85.64,147s24.14,1.65,32.37,1.92c0,0,45-.82,51.28-.82,0,0,26.61-.55,34,.28,0,0,15.64.27,23.31.27,0,0,30.36-1.65,35.29,0l-1.64,4.48s-.18-1.74-5.12-1.6c0,0-10.7.41-13.44-.41a30.61,30.61,0,0,0-8,.14,69.24,69.24,0,0,1-11.79.54,51.74,51.74,0,0,0-8.91.69s-4.12-.82-5.48-.28c0,0-5.9,2.2-9.33.83,0,0-3-3.3-5.35-2.06,0,0-6.72,1-9.32.55a12.87,12.87,0,0,1-8,1s-2.47-.41-6.58-.82c0,0-5.9,0-7-.41,0,0-3.15.27-4.66.54,0,0-6.31-.54-8.36.55a38.77,38.77,0,0,1-7.27.14s-3.29,1.92-9.87.82c0,0-4.39-.68-7.69-1.37,0,0-7.68-.41-8.91-.68,0,0-4.11-.28-5.76-.55,0,0-9.19-.14-11.11-.42,0,0-5.76-.27-6.85-1L87,150Z" transform="translate(145.67 -24.58)"/><path d="M91.13,160.86a58.51,58.51,0,0,1,10.28-1s16.73.83,20.71-.41c0,0,5.49-.27,6.58-.41a12.64,12.64,0,0,1,3.29-1.64c2.75-.89,8.23-.55,11.8-.28,0,0,17.64.46,20.66,0,0,0,10.33-.18,12.25-.09,0,0,3.65.46,4.66-.91,0,0,2.1-.37,2.65.36,0,0,2.93-.27,2.65,1.28,0,0,.64,2.29-5.85,1.19,0,0-2.74,1-1.09,2.56,0,0,2.83,2.65-.92,4.11,0,0-3,1.65-4.94.37,0,0-1.55-.09-2-.73,0,0-5.76-1.1-16.18-.09a42.3,42.3,0,0,1-8.59,1.09s-4.3,1-6.31,1.19c0,0-4.21.64-6.22-.82,0,0-4.3-.28-4.57-1.92,0,0,1.83-1.55,1.37-2.19a7.63,7.63,0,0,1-2.28-.83s-4.48.19-5.85.83c0,0-7.77.64-11.16.54,0,0-5.48.37-8.68.28,0,0-5.22.54-6.31-.46,0,0-3.29-1.46-4.11.64Z" transform="translate(145.67 -24.58)"/><path d="M88.2,154l6.13.09a7,7,0,0,0,2.56,1.28,7.93,7.93,0,0,0,1.73-1s1.56.18.65,1.73a5.73,5.73,0,0,1-2.2.46s-1.1,1.28-1.55.18a15.85,15.85,0,0,0-6.58.1c-3.48.82-.74-2.84-.74-2.84" transform="translate(145.67 -24.58)"/><path d="M117.64,156.43s.37-1.83,1.65-1.64a6.69,6.69,0,0,1,4.48-.1,4.06,4.06,0,0,1,2.46.64s1.38.82.74,1.74a7.22,7.22,0,0,0-3.11-.82s-5.22-.28-6.22.18" transform="translate(145.67 -24.58)"/><path d="M202.75,156.34l15.09.64a9.57,9.57,0,0,1-4,.91,12.15,12.15,0,0,1-3.3,1.1s-2.46.27-3.47-.37a7.74,7.74,0,0,1-2.92-.55,4.34,4.34,0,0,1-1.38-1.73" transform="translate(145.67 -24.58)"/><path d="M237.22,153.41s3.38-.36,4.48.46a3.07,3.07,0,0,1,1.19,3.11l-3.84-.09a7.39,7.39,0,0,0-1.83-.55,3.61,3.61,0,0,1-1-1.55s-.55-1.28,1-1.38" transform="translate(145.67 -24.58)"/><path d="M251.51,154.49l3.42.07a2.63,2.63,0,0,1-1.37,2.05,1.82,1.82,0,0,1-2.05-.13s-1.38-.21-1.51-1.24c0,0-.48-.75.2-.82a1.19,1.19,0,0,1,.89-.55s.48-.07.42.62" transform="translate(145.67 -24.58)"/><path d="M220.51,156.41s6.45-.48,8,.13c0,0,1.72,1,1.79,1.86,0,0,1.51.48,1.57,1.5,0,0,.14.9,2.54,1.38,0,0,4.94-.14,6.17-.14a8.24,8.24,0,0,1,2.33-.34s7.34,0,8.23.41a7.76,7.76,0,0,1,2.88.07c1.3.34.28,0,.28,0s1.3,1.16.06,1.85c0,0-.75.27-1.5-.83,0,0-1.51-.14-2.13-.14a1.38,1.38,0,0,0-1.71.56,33.88,33.88,0,0,1-5.49.06,19.3,19.3,0,0,1-3.29.35s-3.5.13-4.53,0a10.33,10.33,0,0,1-3.7,1.16s-1.92,1.37-2.88,1.37a1.25,1.25,0,0,0,.07,1.79s.82,1.57,2.06.54l10.9-.27a3.6,3.6,0,0,1,1.78-.55s2.33,0,2.4.48c0,0,2,.69,2.61-.07a1.45,1.45,0,0,1,1.57,1.24s1.38.07,1.1,1.92l-1,1.09a1.38,1.38,0,0,1-1.37-1.23s-1.23.14-1.71-.62c0,0-1,.07-1.1.48,0,0-5.21-.68-8,.07a48.36,48.36,0,0,1-7,.34s-9.32.28-11.24-1c0,0-13.58-.42-23.31,0a50.12,50.12,0,0,1-7.62.61,34.77,34.77,0,0,1-5.69.48,33.33,33.33,0,0,1-10,.62s-.41,3.29.76,3.57c0,0,3.36-.07,4.31-1.1a4.33,4.33,0,0,1,.14,1.92s.9.48,2.06-.82c0,0,2.26,1.23,2.4,2a1.42,1.42,0,0,0,1.71-.41,9.6,9.6,0,0,1,2.41,0s.68-.75,4.25-.27a31.91,31.91,0,0,0,7.33.2,6.55,6.55,0,0,1,2.54-.48s1.92-1.64,3-1.64a27.09,27.09,0,0,1,10,.07s4.52,1,13,.34c0,0,9.46-.41,12.48-.07a3.5,3.5,0,0,1,3-1,5.2,5.2,0,0,1,4.12-.27,10,10,0,0,0,1.92.89c.34,0-1.79,2.4-1.79,2.4l-1.37-.89s-1.23,1.44-1.78,1.09l-.21-.61s-5.48-.21-6.58,0c0,0-.48,1-1.3,1,0,0-1.72-.14-2.13.48,0,0-2.19.13-3,.2a4,4,0,0,1-2.94.34s-2.54,0-3,.48c0,0-1.23,2.27.41,2.27,0,0,2.95.89,4.59-.35a5.78,5.78,0,0,1,1,0,1.17,1.17,0,0,1,1-.75s7.34-.41,8.91.41l.69.14,1.24.14.68.68-2.06,2.13s-1.51-.44-1.91-1.35c0,0-.92,0-1.1-.46,0,0-.55-.5-1.15.32a8.64,8.64,0,0,1-1.32.55s-1.1-.41-1.55.46c0,0-6.09.73-8.64-.05,0,0-.87,2.19,0,3.11a2.74,2.74,0,0,0,2.11-.05A12.76,12.76,0,0,1,230,186h.18c.82,0,.91.14,1.46-.5a19.43,19.43,0,0,1,3.2,0s.23-1.14.69-.68c0,0,2.74,3.1,2,4a5.73,5.73,0,0,1-2.43,1.28,8,8,0,0,1-1.46-1.14s-1.69,0-1.69-.64c0,0-3.8-.18-4.62.18,0,0-.36.51-1.87.37,0,0-8.83-.46-10.79.23a6,6,0,0,1-1.88.91s-1.09,0-1.83,0a18,18,0,0,1-2.6,2.24,5.32,5.32,0,0,1,1,1.32s.19,1.87-1.23,2.38c0,0-2.11,1.94-2.31,2.83,0,0-5.42,2-6.51,3.57,0,0-2.2,1.3-3.3.61,0,0-3.63,1.86-4.45,3.16,0,0-1.92.68-2.27-.82,0,0-3.53.51-2-1.34A10,10,0,0,0,189,202s-.21-1-.83-1.33a10.5,10.5,0,0,0-3.08.2,10.08,10.08,0,0,1-2.47,1.92s-2.84.59-3.43,0c0,0-2-.9.52-1.38a4,4,0,0,0,2.63-1.09s.93-.72,1.24-.72c0,0,.72-1.44,1.85-1.44,0,0,.89.34,1.17-.82,0,0,.58,0,.68-2.06,0,0,.38-1.61,1.44-1.75a2.83,2.83,0,0,1,1.41-1s-.28-.58,2.67-.58a62.9,62.9,0,0,1,7,.1,6.43,6.43,0,0,1,1-1.17,4.84,4.84,0,0,0-.44-1.2,3.39,3.39,0,0,0-1.75-.95s-.19-.57-1.23-.62h-.14A5.23,5.23,0,0,1,195,188a1.93,1.93,0,0,1-.86-1.71s0-1.48,1.1-1.75a14.61,14.61,0,0,1,3.53-.21,1.44,1.44,0,0,1,1.1-.48,12.33,12.33,0,0,1,2.57,0s1.2-.75,2,0a3.77,3.77,0,0,0,1.78.28s4.29.07,4.63-.24a1.57,1.57,0,0,1,1.14-.48l1.06,0a.7.7,0,0,1,.72-.58s1.09-.62,1.09-1.44c0,0-2.94.54-3.22-.31a2.31,2.31,0,0,0-1.4-.44s-4.91.41-5.63.1a4.23,4.23,0,0,0-1.75-.41,3.7,3.7,0,0,1-1.67-.41,5.38,5.38,0,0,0-1.55-.28s-.48-.51-.89-.41c0,0-.75.34-1,.41a5.26,5.26,0,0,1-1.92.65l-6,0a19.06,19.06,0,0,1-2.09.82l-.14,0a22.57,22.57,0,0,1-6.27.11s-4.9,1-5.9.68c0,0-16,.76-23.38.28,0,0-1,2.47-1.71,2.47,0,0,3.22,3.42,1,4.73,0,0-4.46,1-7.34,1.71,0,0-5.28,2.54-7.34,2.2,0,0-6.37.61-7.67-.07a14.32,14.32,0,0,0-4.33.2,6.67,6.67,0,0,1-2.33.62,16.75,16.75,0,0,1-3.22,0s.48-1.06-.86-1.06l-2.84-1s5,.44,6.51,0c0,0,2.37.14,2.92-.27,0,0,2.43,0,2.64-.69,0,0,3-.17,3.46-.52,0,0,.27-.31,2.09-.44,0,0,7.13.1,7.65.13a.93.93,0,0,1,.89-.58s1.54-.27,1-1.09a9.84,9.84,0,0,1-1.06-.59,6.94,6.94,0,0,1-1.92-.61s-7.3-.52-9.84,0a3.18,3.18,0,0,1-2.16.61s-3.08,0-3.43.11c0,0,0,.48-1.12.44a35.39,35.39,0,0,0-4.26,0,1.08,1.08,0,0,1-.65.41l-4.52.07a5.48,5.48,0,0,0-1.86-.48s-.27-1.68.69-1.81a53.49,53.49,0,0,0,6.52.13,17,17,0,0,1,2.6-.38,16.11,16.11,0,0,1,5.69-.58,7.61,7.61,0,0,1,2.71-.44,16.11,16.11,0,0,1,2.47-.52,9.4,9.4,0,0,1,3.12-.55s.13-.51,1-.51c0,0,7.89.48,8.78.07a7.44,7.44,0,0,1,1.82-.58s.58-1,.86-1a2.84,2.84,0,0,0-.31-1.14s-.48-.2-.52-.51a8,8,0,0,1-1.74,0s-.07-.38-1.55-.45c0,0-3.84-.07-5,0a5.31,5.31,0,0,1-2.13,1,7.2,7.2,0,0,1-4,.55s-12.75,0-14.84-.24a2.54,2.54,0,0,0-1.3.62,11.29,11.29,0,0,1-2.61.2s-.58.31-.58.52c0,0-5.72.48-7.27-.14,0,0,.17-1-.27-1.17,0,0-1.37-.38-1.2-.75,0,0-.28-.55,1.85-.45,0,0,2.5.17,2.91-.27a3,3,0,0,1,1.41-.24s2.36.2,2.67-.17a3.5,3.5,0,0,1,1.75-.41,2.63,2.63,0,0,0,1.78-.35,2,2,0,0,1,1.13-.1,7,7,0,0,1,1.14-.52,4,4,0,0,0,1.61-.3,3.21,3.21,0,0,1,3,.2,38.67,38.67,0,0,0,7.81.07,2.81,2.81,0,0,1,2.06-.62,2.3,2.3,0,0,1,1.61-1,1.34,1.34,0,0,0,0-1.51,4.23,4.23,0,0,1-1.61-1,3.1,3.1,0,0,0-2.33.24s-2.3-.21-3.4,1c0,0-6.92.69-8.7,0a6.24,6.24,0,0,0-3.67-1.13s-2.24,2.14-3.74,1.71c-.24-.07-8.91.93-11.35.14l-2.05-1.85a17,17,0,0,1,2.5-.14A31.5,31.5,0,0,1,105,173s3.94-.55,5.48-.58c0,0,.48-.79,2.37-.79a45.16,45.16,0,0,0,5.45-.17,29.22,29.22,0,0,1,4.66-.52,15.1,15.1,0,0,0,3,.65,13.72,13.72,0,0,0,3.7-.48s1.44-.17,2.2-.17a7.61,7.61,0,0,1,1.68-.72,16.85,16.85,0,0,1,4.66-.44s3.67-.1,6.13,0a31.56,31.56,0,0,0,4.67-.55,44.34,44.34,0,0,1,4.66-.51,18.83,18.83,0,0,1,3-.55s5.28,0,6.24.48c0,0,4.87.07,6.34.62a32.63,32.63,0,0,0,4,.92s2.33-.1,3.91-.31a28.27,28.27,0,0,1,5.31-.3,37.36,37.36,0,0,0,5.08-1.17,20,20,0,0,1,3.25-.34,14.62,14.62,0,0,1,3-.72s2.74-.28,4.87-.31c0,0,14.88-1.13,18-.17,0,0,1.24-.24,1-.93,0,0,.38-2.46-.82-2.77,0,0-3.26-.26-4.86.57l-.15.08c-1.54.92-2.4.17-3.5-.21,0,0-3.08,1.37-4.66.24,0,0-1.68.17-2.09-.51a1.69,1.69,0,0,1,1.85-1.17,2.77,2.77,0,0,1,2.44-1.1s13.81-.37,19.33.14c0,0,.48-1.17.89-1.23,0,0,0-.69-.3-1a6.35,6.35,0,0,1-1.48-1s-2.4.1-2.57-.42c0,0-2.57-.37-1.34-1.26" transform="translate(145.67 -24.58)"/><path d="M149.78,209.54a15.76,15.76,0,0,0,3.93-1.69,14,14,0,0,1,3.1-1.5,15.38,15.38,0,0,0,1.79-.78s2.42-.41,3.06.13c0,0,.91.33,1.32,0,0,0,0-.91,2.34-.95a29.45,29.45,0,0,0,5.34.23l1.47-.6.22-.09a5.75,5.75,0,0,1,2.29-.32s1.83.14,2,.41c0,0,2,.18,2.24-.14,0,0-.27,1.1-1.09,1.15,0,0,.18,1.09-.55,1.09,0,0-5.42.85-7.84-.11a.67.67,0,0,0-1.07.07,3.72,3.72,0,0,1-1.68.52,6.86,6.86,0,0,1-2.65.32,3.7,3.7,0,0,1-2.55.48s-1.24-.75-1.76-.09c0,0-1,.18-1.15,1a4.81,4.81,0,0,0,0,2.75l-1.85-.14s.37-.69-.14-1.06c0,0-.62-.48-.48-.89a11,11,0,0,0-1.54.51,5.32,5.32,0,0,1-1.86.93,14.28,14.28,0,0,1-2.88-1.21" transform="translate(145.67 -24.58)"/><path d="M131.14,200.22c.06.3,3.23,3.54,3.78,3.37s-.6-1.85,0-2.58c.42-.39,1.77.41,2-.21.52-.17,3.69-.49,4.46.16,3.28,2.78,10.85-2.4,13.78-.16.84-.05,1.09-.78,1.71-1,.9.07.43,1.16,1.78.65,1.33.28,2.69,1.92,4.12,1.92,2.53.72,12.21,2.35,13.83-.16-.09.15-2.66-1.16-2.55-1a7.36,7.36,0,0,1-2,0c1.1-3.14,7.21-2.47,7.38-4.72.08-1.12-3.5-2.7-4.29-2.62-2.82.3-5.95,1.29-8-.55C163,189,173,190.29,175.33,190c1-.12,5.24-.44,5.21-1.05-.09-1.62-1.59-2.13-2.85-2.5-2.15-.63-12.2-1.41-14.27.22a13.68,13.68,0,0,1-4.71,2.23c-3.28.15-2.27,5.23-2.89,5.23-1.61,3.86-7.72,4-11.77,3.69-2-.16-11.91-.37-12.91,2.38" transform="translate(145.67 -24.58)"/><path d="M-32.9,282.35a3.28,3.28,0,0,0-.91,2.23,3.22,3.22,0,0,0,.91,2.3,3,3,0,0,0,2.26,1,2.82,2.82,0,0,0,1.22-.26,3.33,3.33,0,0,0,1-.71,3.17,3.17,0,0,0,.93-2.29,3,3,0,0,0-.94-2.24,3.11,3.11,0,0,0-2.24-.92,3.07,3.07,0,0,0-2.26.93" transform="translate(145.67 -24.58)"/><path d="M26.24,281.82l.05,0v-.1h-.1v.1Z" transform="translate(145.67 -24.58)"/><rect x="161.05" y="247.75" width="12.42" height="5.7"/><path d="M172,278h15.59v-35.3c-.24.5-.43.89-.58,1.15a11.32,11.32,0,0,1-1.28,1.91,14.9,14.9,0,0,1-1.93,1.71l-1.16.83V273H169.54V259c-.24.5-.43.89-.58,1.15a10.65,10.65,0,0,1-1.33,1.95,10.31,10.31,0,0,1-1.93,1.54c-.29.19-.69.42-1.21.71V273H149.21c.64-.67,1.15-1.23,1.53-1.69a31.63,31.63,0,0,0,3-4.08c.54-.89.93-1.58,1.18-2.09a11.55,11.55,0,0,0,.84-2.37,24,24,0,0,0,.62-5.46,20.36,20.36,0,0,0-.48-4.45,12.73,12.73,0,0,0-1.48-3.82,9,9,0,0,0-1.78-2.16,8.62,8.62,0,0,0-2.44-1.49,11.2,11.2,0,0,0-4.19-.92,12,12,0,0,0-1.94.16,21.33,21.33,0,0,0-2.31.52l-2.51.67a8.19,8.19,0,0,1-2.1.33A5.26,5.26,0,0,1,136,246a6.34,6.34,0,0,1-1.14-.36,7.69,7.69,0,0,1-2.54-2.24c-.3-.37-.67-.88-1.13-1.55-.13.45-.22.82-.27,1.1a11.7,11.7,0,0,0-.28,2.43,6.68,6.68,0,0,0,.13,1.36,3.06,3.06,0,0,0,.42,1.11,5,5,0,0,0,2.16,2,7.87,7.87,0,0,0,3.11.55,4,4,0,0,0,1.36-.18l1.4-.55a9,9,0,0,0-.82,3.16,3.43,3.43,0,0,0,1.5,2.76,3.87,3.87,0,0,0,2.31.88,5.65,5.65,0,0,0,2.66-.88,8.6,8.6,0,0,1-2.43-1.23,2,2,0,0,1-.78-1.63,3.93,3.93,0,0,1,.05-.55,3,3,0,0,1,.95-1.81,2.73,2.73,0,0,1,1.86-.73,2.69,2.69,0,0,1,.35,0,10.57,10.57,0,0,1,3.11.88,7,7,0,0,1,2.21,1.64,6.27,6.27,0,0,1,1.3,2.34,9.75,9.75,0,0,1,.4,2.89,16,16,0,0,1-.15,2.16,19.46,19.46,0,0,1-1.05,4.3,12.89,12.89,0,0,1-1.78,3.36c-.45.58-1.19,1.49-2.21,2.73l-1.81,2.16-.75.88H128V257.94l-1.16,1a6,6,0,0,1-1.53,1,10.89,10.89,0,0,1-1.18.46,3.84,3.84,0,0,1-1.1.12,9,9,0,0,0-1.29.11,5.89,5.89,0,0,0-1.27.29,4.08,4.08,0,0,0-1.61,1.27c-.46.56-.76.83-.87.83H103.2a5.54,5.54,0,0,0,.07-1.32v-2.59c0-.3,0-1.75,0-4.35s0-4.29,0-5.06c.18-.5.36-1,.55-1.51a15.07,15.07,0,0,1,1.93-2.65,13.21,13.21,0,0,1-1.86-.09,10.75,10.75,0,0,1-1.5-.41,12.24,12.24,0,0,1-2.36-1,6.57,6.57,0,0,1-1.81-1.83V273h-6.9V259c-.23.5-.42.89-.57,1.15a11.18,11.18,0,0,1-1.33,1.95,10.43,10.43,0,0,1-1.94,1.54c-.28.19-.68.42-1.2.71V273H77.55V257.94l-1.15,1a6.38,6.38,0,0,1-1.53,1,11.77,11.77,0,0,1-1.18.46,3.87,3.87,0,0,1-1.11.12,9,9,0,0,0-1.29.11,5.77,5.77,0,0,0-1.26.29,4,4,0,0,0-1.61,1.27c-.47.56-.76.83-.88.83H52.71a5.54,5.54,0,0,0,.07-1.32v-2.59q0-.45,0-4.35c0-2.6,0-4.29,0-5.06.18-.5.37-1,.55-1.51a15.59,15.59,0,0,1,1.93-2.65,13.14,13.14,0,0,1-1.85-.09,10.81,10.81,0,0,1-1.51-.41,12.54,12.54,0,0,1-2.36-1,6.54,6.54,0,0,1-1.8-1.83V273H43.4l-1.5-.56a15.23,15.23,0,0,1-2.66-1.95,13,13,0,0,1-.09,1.85,9.82,9.82,0,0,1-.42,1.51,11.44,11.44,0,0,1-1,2.36,6.29,6.29,0,0,1-1.83,1.8H172Zm-99.44-5H52.71v-5H69.53c.09,0,.22-.22.39-.67a2.94,2.94,0,0,1,.53-1,3,3,0,0,1,2.13-1Zm50.49,0H103.2v-5H120c.1,0,.23-.22.4-.67a2.77,2.77,0,0,1,.53-1,3,3,0,0,1,2.13-1Z" transform="translate(145.67 -24.58)"/><path d="M-72.2,279.64c0-.4.06-.94.08-1.61V266.79A5.42,5.42,0,0,1-74,269.25a3.71,3.71,0,0,1-2.13.78,3.13,3.13,0,0,0-.38-.1,3.71,3.71,0,0,0-.85-.1l-.43,0a1.56,1.56,0,0,0-.47.17,8.28,8.28,0,0,1,1.13,2.53c0,.14,0,.29.07.46v5c0,.89-.12,1.59-.2,2.09a7.63,7.63,0,0,1-1.23,3.39,7.56,7.56,0,0,1-2.55,2.15,6.47,6.47,0,0,1-3.05.76,6.46,6.46,0,0,1-2.08-.36,9.18,9.18,0,0,1-2.53-1.23,7.38,7.38,0,0,1-2-2.33,11.19,11.19,0,0,1-1.11-3,15.65,15.65,0,0,1-.42-3.56,14.15,14.15,0,0,1,.68-4.39,16.68,16.68,0,0,1,1.89-3.89,22.43,22.43,0,0,1,2.08-2.86,28.87,28.87,0,0,1,2.71-2.66c1.62-1.42,2.57-2.28,2.86-2.58a8.7,8.7,0,0,0,1.88-2.81,9.38,9.38,0,0,0,.4-1.42,8.43,8.43,0,0,0,.13-1.64,8.18,8.18,0,0,0-.21-1.94,7.19,7.19,0,0,0-.58-1.63,11.17,11.17,0,0,0-.67-1.18,3.17,3.17,0,0,0-.7-.72,2.33,2.33,0,0,0-.47-.27,1.46,1.46,0,0,0-.56-.09,3.07,3.07,0,0,0-.75.13,6.4,6.4,0,0,1-1.33.23l-1.68-.16a5.43,5.43,0,0,1-1.66-.48c-.33-.16-.6-.31-.79-.42a4.36,4.36,0,0,1-.66-.53,8.85,8.85,0,0,1-1.79-2.68c-.2-.42-.46-1-.78-1.76-.09.45-.16.82-.2,1.1a17,17,0,0,0-.2,2.42,10.8,10.8,0,0,0,.1,1.38,4.37,4.37,0,0,0,.3,1.12,4.45,4.45,0,0,0,1.51,2,4,4,0,0,0,2.18.55,2.16,2.16,0,0,0,1-.18l1-.55c-.22.74-.37,1.35-.47,1.85a8.11,8.11,0,0,0-.14,1.46,3.38,3.38,0,0,0,1.08,2.62,1.83,1.83,0,0,0,.55.36,1.91,1.91,0,0,0,.63.09,2.27,2.27,0,0,0,.75-.12c.24-.07.55-.19.93-.33a13.58,13.58,0,0,1-1.2-1.31,2.53,2.53,0,0,1-.43-1.48,5.06,5.06,0,0,1,0-.63c.15-1.5.68-2.34,1.6-2.51l.25,0a1.67,1.67,0,0,1,1.26.75,2.33,2.33,0,0,1,.45.8c0,.07.11.4.28,1a3.68,3.68,0,0,1,.15,1,4.3,4.3,0,0,1,0,.62c0,.21-.07.45-.11.72a5,5,0,0,1-1.16,2.48,18.27,18.27,0,0,1-2.16,2c-.82.67-1.49,1.25-2,1.73A20.08,20.08,0,0,0-88.28,263c-.9,1.09-1.49,1.82-1.76,2.21a20.15,20.15,0,0,0-1.4,2.43A30,30,0,0,0-93,271.23a19.26,19.26,0,0,0-.8,4c-.08.87-.13,1.61-.13,2.21a14.45,14.45,0,0,0,.32,3,17.34,17.34,0,0,0,.94,3A13.16,13.16,0,0,0-91.39,286a9.49,9.49,0,0,0,1.66,1.87,9.66,9.66,0,0,0,2.85,1.83,8,8,0,0,0,3.09.68,9.7,9.7,0,0,0,3.11-.65,14.66,14.66,0,0,0,3.59-1.86,15.27,15.27,0,0,0,2.63-2.31,10.26,10.26,0,0,0,1.71-3,11.33,11.33,0,0,0,.55-2.86" transform="translate(145.67 -24.58)"/><path d="M-59.35,273h-1.93V247.2a5.27,5.27,0,0,1,.22-.58,2.7,2.7,0,0,1,.7-1,4.69,4.69,0,0,1,1.44-.73c.23-.09.57-.18,1-.3a3.64,3.64,0,0,1-.5.05c-.85.08-1.61.13-2.29.13a9.17,9.17,0,0,1-2-.18,5.81,5.81,0,0,1-2.56-1.43,10.05,10.05,0,0,1-1-1.06V278h6.9Z" transform="translate(145.67 -24.58)"/><path d="M6.42,281.8l0,0,0,0v-.1h-.1Z" transform="translate(145.67 -24.58)"/><path d="M-13.73,278H5.06a11.17,11.17,0,0,0-.83-.85,4,4,0,0,1-1-1.43,10.53,10.53,0,0,1-.63-3.89,4.86,4.86,0,0,1-1.51,1,2.42,2.42,0,0,1-.71.2,8.09,8.09,0,0,1-.92.05,4.62,4.62,0,0,1-3.32-1.24,4,4,0,0,1-1.32-3A4,4,0,0,1-4,266a3.86,3.86,0,0,1,2.88-1.2A4.87,4.87,0,0,1,.11,265a3,3,0,0,1,1,.49,2.87,2.87,0,0,1,1.38,2.33,7.4,7.4,0,0,1-.5,2.31,6,6,0,0,0,2.47-1.52,3.41,3.41,0,0,0,.74-2.29,3.72,3.72,0,0,0-.93-2.68A7.38,7.38,0,0,0,1.12,262l1.55-.88a5.4,5.4,0,0,0,.79-.75,7.94,7.94,0,0,0,1.31-1.95,4.8,4.8,0,0,0,.44-2,6,6,0,0,0-.28-1.71,5.78,5.78,0,0,0-2.58-2.81,20,20,0,0,0-2.06-1.08A15.23,15.23,0,0,1,1,252.26a8.29,8.29,0,0,1,.67,3,3.67,3.67,0,0,1-.17,1.13,4.63,4.63,0,0,1-1.43,2.18A14.09,14.09,0,0,1-3,259.94a12.16,12.16,0,0,0-5.33,3.39,7.82,7.82,0,0,0-1.75,5.22,9.84,9.84,0,0,0,.4,2.63A5.63,5.63,0,0,0-8.72,273H-22.49a12.16,12.16,0,0,0,1.43-1.48,28,28,0,0,0,2.86-3.72A15.84,15.84,0,0,0-16,263c.18-.77.33-1.5.43-2.18a14.11,14.11,0,0,0,.15-2,38.4,38.4,0,0,0-.25-4.71,13.71,13.71,0,0,0-1.26-4.37,9,9,0,0,0-1.88-2.55,8.7,8.7,0,0,0-2.71-1.72,11.24,11.24,0,0,0-4.19-.92,12.2,12.2,0,0,0-1.95.16,21.75,21.75,0,0,0-2.3.52l-2.51.67a8.26,8.26,0,0,1-2.1.33,5.18,5.18,0,0,1-1.11-.14,6.45,6.45,0,0,1-1.15-.36,7.8,7.8,0,0,1-2.53-2.24c-.3-.37-.68-.89-1.13-1.56a11.22,11.22,0,0,0-.28,1.11,12.27,12.27,0,0,0-.27,2.43,7.56,7.56,0,0,0,.12,1.36,3.12,3.12,0,0,0,.43,1.1,4.92,4.92,0,0,0,2.16,2,7.84,7.84,0,0,0,3.11.55,4,4,0,0,0,1.35-.18l1.41-.55a9.09,9.09,0,0,0-.83,3.16,3.42,3.42,0,0,0,1.51,2.76,3.83,3.83,0,0,0,2.31.88,5.65,5.65,0,0,0,2.66-.88,8.83,8.83,0,0,1-2.44-1.23,2,2,0,0,1-.78-1.63c0-.1,0-.28.05-.55a3,3,0,0,1,1-1.81,2.69,2.69,0,0,1,1.85-.73,2.87,2.87,0,0,1,.36,0,10.57,10.57,0,0,1,3.11.88,6.78,6.78,0,0,1,2.18,1.63,6.29,6.29,0,0,1,1.5,3,16.66,16.66,0,0,1,.31,3.54,13,13,0,0,1-1,4.75,16,16,0,0,1-2.09,3.74c-.45.58-1.18,1.49-2.2,2.73l-1.81,2.16-.75.88H-43.19V259.76a19.89,19.89,0,0,1-1.28,2A3.5,3.5,0,0,1-46.8,263l-3,.45a6.71,6.71,0,0,0-2.54.88,16.18,16.18,0,0,0-1.93,1.73,4,4,0,0,0-1,1.57,6.68,6.68,0,0,0-.24,1.87q0,.3,0,.84c0,.36,0,.61,0,.74a3.5,3.5,0,0,1-.18,1.24,1.29,1.29,0,0,1-.7.7h-2.38v5h45Zm-34.4-5h-4.22c0-.59.07-1,.1-1.39a4.42,4.42,0,0,1,.78-2.24,4.46,4.46,0,0,1,2-1.19c.31-.1.76-.23,1.33-.38Z" transform="translate(145.67 -24.58)"/><path d="M220.48,284.93a8,8,0,0,0,.4-2.19c.06-.95.1-2,.1-3.28v-19.7a14.09,14.09,0,0,1-1.64,2.46,2.61,2.61,0,0,1-2,.78h-3a7.22,7.22,0,0,0-5.45,2.09,6.75,6.75,0,0,0-1.46,3,15.88,15.88,0,0,0-.52,4.07c0,.12.08.21.1.27a5.47,5.47,0,0,1,.15,1.31,2.6,2.6,0,0,1-.25,1.2c-.3.59-.62,1.24-1,2-.14.29-.31.67-.53,1.15H216v3.14c-.21.68-.4,1.21-.55,1.58a5.05,5.05,0,0,1-1.55,2.22,7.5,7.5,0,0,1-1.85.94,5.75,5.75,0,0,1-2,.36,4.9,4.9,0,0,1-1.78-.34,4.66,4.66,0,0,1-1.53-1,5.59,5.59,0,0,0,2.58,3.7A8.08,8.08,0,0,0,214,290a8.23,8.23,0,0,0,2.68-.44,6.23,6.23,0,0,0,2.26-1.34,5.4,5.4,0,0,0,1.15-2c.12-.3.26-.72.43-1.28M216,273h-4.21v-.78a14.8,14.8,0,0,1,.15-2,4.13,4.13,0,0,1,.35-1.4c.49-.71,1.46-1.06,2.94-1.06H216Z" transform="translate(145.67 -24.58)"/><path d="M92.14,287a3.12,3.12,0,0,0,.92-2.23,3.16,3.16,0,0,0-5.41-2.27A3.19,3.19,0,0,0,89.9,288a3,3,0,0,0,2.24-1" transform="translate(145.67 -24.58)"/><path d="M-86,266.12a3.09,3.09,0,0,0-.93,2.23,3.09,3.09,0,0,0,.92,2.28,3,3,0,0,0,2.24.93,3,3,0,0,0,2.27-.95,3.17,3.17,0,0,0,.92-2.26,3.24,3.24,0,0,0-.93-2.29,3.19,3.19,0,0,0-2.26-.9,3,3,0,0,0-2.23,1" transform="translate(145.67 -24.58)"/><path d="M84.67,287a3.18,3.18,0,0,0,0-4.49,3,3,0,0,0-2.2-.95,3.19,3.19,0,0,0-2.25,5.46,3.14,3.14,0,0,0,2.25.94,3,3,0,0,0,2.24-1" transform="translate(145.67 -24.58)"/><path d="M201,244.94c.24-.09.57-.18,1-.3a3.62,3.62,0,0,1-.51.05q-1.27.12-2.28.12a9.28,9.28,0,0,1-2-.17,5.83,5.83,0,0,1-2.55-1.43,9.08,9.08,0,0,1-1-1.06V278h5V247.2a5,5,0,0,1,.23-.58,2.57,2.57,0,0,1,.69-1,4.94,4.94,0,0,1,1.44-.73" transform="translate(145.67 -24.58)"/><path d="M259.28,282.54a3.21,3.21,0,0,0,0,4.53,3,3,0,0,0,2.25.93,3,3,0,0,0,2.25-1,3.12,3.12,0,0,0,.92-2.23,3.16,3.16,0,0,0-5.41-2.27" transform="translate(145.67 -24.58)"/><path d="M387.39,249.73c-.56,1-.91,1.54-1.06,1.76a5.1,5.1,0,0,1-1.81,1.48,1.78,1.78,0,0,1-.85.2,3.61,3.61,0,0,1-.59,0c-.17,0-.39-.08-.64-.15v10h-1.7a7.22,7.22,0,0,0-5.45,2.09,6.86,6.86,0,0,0-1.47,3,16.33,16.33,0,0,0-.51,4.07c.05.12.08.21.1.27a5.47,5.47,0,0,1,.15,1.31,2.6,2.6,0,0,1-.25,1.2c-.3.59-.62,1.24-.95,2-.14.29-.31.67-.53,1.15h15.56ZM382.44,273h-4.21v-.78a14.8,14.8,0,0,1,.15-2,4.13,4.13,0,0,1,.35-1.4c.48-.71,1.46-1.06,2.94-1.06h.77Z" transform="translate(145.67 -24.58)"/><path d="M402.92,278h.78v-5h-.78v-9.54a6.57,6.57,0,0,1-1.81,1.83,11.74,11.74,0,0,1-2.36,1,9.76,9.76,0,0,1-1.5.42,15.54,15.54,0,0,1-1.86.08,16,16,0,0,1,2,2.66L398,271v9.28a9.78,9.78,0,0,1-.3,1.31,3.57,3.57,0,0,1-1.23,2,6.73,6.73,0,0,1-3.91,1.33,4.75,4.75,0,0,1-1.76-.32,4.67,4.67,0,0,1-1.53-1,5.55,5.55,0,0,0,2.58,3.68,8.37,8.37,0,0,0,7.25.92,6.52,6.52,0,0,0,2.29-1.34,5.4,5.4,0,0,0,1.15-2c.12-.3.26-.73.43-1.3Z" transform="translate(145.67 -24.58)"/><path d="M245.09,250.69a3,3,0,0,0,2.27-1,3.13,3.13,0,0,0,.92-2.26,3.13,3.13,0,0,0-3.19-3.18,3,3,0,0,0-2.23,1,3.22,3.22,0,0,0,0,4.52,3,3,0,0,0,2.24.93" transform="translate(145.67 -24.58)"/><path d="M360.86,281.8l.06,0,.05,0v-.1h-.11Z" transform="translate(145.67 -24.58)"/><path d="M376.4,250.69a3,3,0,0,0,2.27-1,3.12,3.12,0,0,0,.91-2.26,3.2,3.2,0,0,0-.93-2.28,3.15,3.15,0,0,0-2.25-.9,3,3,0,0,0-2.24,1,3.09,3.09,0,0,0-.93,2.23,3.14,3.14,0,0,0,.92,2.29,3.07,3.07,0,0,0,2.25.93" transform="translate(145.67 -24.58)"/><path d="M439.76,285.05l1.22-.62,2.06-.75a3.09,3.09,0,0,1-2.38-2.31,4,4,0,0,1-.1-.83V278h22.58V257.94L462,259a6.06,6.06,0,0,1-1.53,1,11.59,11.59,0,0,1-1.17.47,4.47,4.47,0,0,1-1.11.11,10.77,10.77,0,0,0-1.29.11,5.89,5.89,0,0,0-1.27.29,4,4,0,0,0-1.6,1.24c-.47.55-.77.82-.88.82H440.56a4.25,4.25,0,0,0,.07-.93c0-.1,0-.33,0-.69s0-.65-.05-.86c.18-.51.36-1,.55-1.51a15.54,15.54,0,0,1,1.93-2.66,13.21,13.21,0,0,1-1.86-.09,9.22,9.22,0,0,1-1.5-.41,12.35,12.35,0,0,1-2.36-1,6.61,6.61,0,0,1-1.81-1.84v15h19.6c.1,0,.23-.22.4-.67a2.74,2.74,0,0,1,.53-.93,3,3,0,0,1,2.13-1V273H435.51v15.05l1.43-1.18a18.29,18.29,0,0,1,2.82-1.84" transform="translate(145.67 -24.58)"/><path d="M146.61,243.88a3,3,0,0,0,2.24-.95,3.12,3.12,0,0,0,.94-2.28,3,3,0,0,0-.94-2.25,3.11,3.11,0,0,0-2.24-.91,3,3,0,0,0-2.25.95,3.09,3.09,0,0,0-.92,2.21,3.18,3.18,0,0,0,.92,2.28,3,3,0,0,0,2.25.95" transform="translate(145.67 -24.58)"/><path d="M428.26,247.2a3.65,3.65,0,0,1,.23-.58,2.57,2.57,0,0,1,.69-1,4.69,4.69,0,0,1,1.44-.73c.23-.09.57-.18,1-.3a3.5,3.5,0,0,1-.5.05c-.85.08-1.61.13-2.28.13a9.2,9.2,0,0,1-2-.18,5.86,5.86,0,0,1-2.56-1.43,10.05,10.05,0,0,1-1-1.06V278h5Z" transform="translate(145.67 -24.58)"/><path d="M356.1,244.81a9.28,9.28,0,0,1-2-.17,5.86,5.86,0,0,1-2.56-1.43,10.05,10.05,0,0,1-1-1.06V278h5V247.2a3.65,3.65,0,0,1,.23-.58,2.67,2.67,0,0,1,.68-1,4.9,4.9,0,0,1,1.45-.73c.23-.09.57-.18,1-.3a3.64,3.64,0,0,1-.5.05q-1.28.12-2.28.12" transform="translate(145.67 -24.58)"/><path d="M416.77,278V259c-.24.5-.43.89-.58,1.15a10.65,10.65,0,0,1-1.33,1.95,10.31,10.31,0,0,1-1.93,1.54c-.28.19-.68.42-1.2.7V273H405v5Z" transform="translate(145.67 -24.58)"/><path d="M383.17,250.69a3,3,0,0,0,2.27-1,3.13,3.13,0,0,0,.92-2.26,3.13,3.13,0,0,0-3.19-3.18,3,3,0,0,0-2.23,1,3.22,3.22,0,0,0,0,4.52,3,3,0,0,0,2.24.93" transform="translate(145.67 -24.58)"/><path d="M416.37,253.44a14.78,14.78,0,0,1-.43-2,2.3,2.3,0,0,1-1.73.71,2.13,2.13,0,0,1-1.58-.63A2.07,2.07,0,0,1,412,250a2.21,2.21,0,0,1,.71-1.6,2.33,2.33,0,0,1,1.62-.65l.73.12.68.39v-.17a1.4,1.4,0,0,0-.93-1.26,4,4,0,0,0,1.13-2.53,3.15,3.15,0,0,0-.5-1.63,4.62,4.62,0,0,1-2.56,2.18l-1.08.46a4.9,4.9,0,0,0-2.31,1.78,4.55,4.55,0,0,0-.77,2.61,4.25,4.25,0,0,0,.95,2.53h-.8a4.07,4.07,0,0,0-2.53.71,3.22,3.22,0,0,0-1.14,2.18h12.05a9.7,9.7,0,0,1-.88-1.66" transform="translate(145.67 -24.58)"/><path d="M222.88,281.8v-.1h-.1v.1l.05,0,0,0" transform="translate(145.67 -24.58)"/><path d="M238.32,250.69a3,3,0,0,0,2.26-1,3.09,3.09,0,0,0,.92-2.26,3.13,3.13,0,0,0-3.18-3.18,3,3,0,0,0-2.24,1,3.08,3.08,0,0,0-.92,2.23,3.13,3.13,0,0,0,.91,2.29,3.07,3.07,0,0,0,2.25.93" transform="translate(145.67 -24.58)"/><path d="M272.34,281.37a4.81,4.81,0,0,1-.1-.83V278h72.24v-35.3c-.24.5-.43.89-.58,1.15a10.23,10.23,0,0,1-1.28,1.91,14.26,14.26,0,0,1-1.93,1.71c-.28.21-.67.49-1.16.83V273H326.09V259c-.24.5-.43.89-.58,1.15a10.65,10.65,0,0,1-1.33,1.95,10.31,10.31,0,0,1-1.93,1.54c-.29.19-.69.42-1.21.7V273h-8.55V242.73c-.24.5-.43.89-.58,1.15a11.32,11.32,0,0,1-1.28,1.91,14.9,14.9,0,0,1-1.93,1.71c-.29.21-.67.49-1.16.83V273H294.82V257.94l-1.15,1a6.43,6.43,0,0,1-1.53,1,12.53,12.53,0,0,1-1.18.47,4.35,4.35,0,0,1-1.11.11,11.1,11.1,0,0,0-1.29.11,5.92,5.92,0,0,0-1.26.29,4,4,0,0,0-1.61,1.24c-.47.55-.76.82-.88.82H272.24a4.12,4.12,0,0,0,.08-.93q0-.15,0-.69c0-.36,0-.65-.05-.86.18-.51.37-1,.55-1.51a16.09,16.09,0,0,1,1.93-2.66,13.21,13.21,0,0,1-1.86-.09,9.8,9.8,0,0,1-1.5-.41,12.66,12.66,0,0,1-2.36-1,6.46,6.46,0,0,1-1.8-1.84v15h19.59c.1,0,.24-.22.4-.67a2.74,2.74,0,0,1,.53-.93,3,3,0,0,1,2.13-1V273H267.2v15.05l1.43-1.18a17.8,17.8,0,0,1,2.81-1.84l1.23-.62,2.05-.75a3.11,3.11,0,0,1-2.38-2.31" transform="translate(145.67 -24.58)"/><path d="M168.43,251.94a3,3,0,0,0,2.25-.95,3.13,3.13,0,0,0,.91-2.24,3,3,0,0,0-1-2.27,3.1,3.1,0,0,0-2.19-.94,3,3,0,0,0-2.24.94,3.19,3.19,0,0,0,2.24,5.46" transform="translate(145.67 -24.58)"/><path d="M161,251.94a3,3,0,0,0,2.24-.95,3.17,3.17,0,0,0,.91-2.24,3.12,3.12,0,0,0-1-2.26,3.09,3.09,0,0,0-4.45,0,3.2,3.2,0,0,0,2.25,5.46" transform="translate(145.67 -24.58)"/><path d="M251.81,282.54a3.2,3.2,0,0,0,2.25,5.46,3,3,0,0,0,2.24-1,3.15,3.15,0,0,0,.91-2.23,3.12,3.12,0,0,0-.95-2.26,3,3,0,0,0-2.2-.95,3.08,3.08,0,0,0-2.25.94" transform="translate(145.67 -24.58)"/><path d="M323.35,284.79a3.13,3.13,0,0,0-3.19-3.19,3,3,0,0,0-2.23.95,3.22,3.22,0,0,0,0,4.52,3.18,3.18,0,0,0,4.52,0,3.16,3.16,0,0,0,.91-2.25" transform="translate(145.67 -24.58)"/><path d="M251.29,278h11.59V259c-.23.5-.43.89-.58,1.15a10.17,10.17,0,0,1-1.33,1.95,10,10,0,0,1-1.93,1.54c-.28.19-.68.42-1.2.71V273h-8.53V249.73c-.56,1-.91,1.54-1.06,1.76a5.24,5.24,0,0,1-1.8,1.48,1.88,1.88,0,0,1-.86.2,3.51,3.51,0,0,1-.59,0c-.17,0-.39-.08-.64-.15v10h-1.7a7.22,7.22,0,0,0-5.45,2.09,6.86,6.86,0,0,0-1.47,3,16.33,16.33,0,0,0-.51,4.07c.05.12.08.21.1.27a5.47,5.47,0,0,1,.15,1.31,2.6,2.6,0,0,1-.25,1.2c-.3.59-.62,1.24-.95,2-.14.29-.32.67-.53,1.15h17.54Zm-6.93-5h-4.21v-.78a14.8,14.8,0,0,1,.15-2,4.13,4.13,0,0,1,.35-1.4c.48-.71,1.46-1.06,2.93-1.06h.78Z" transform="translate(145.67 -24.58)"/><path d="M-131.82,326.69a14,14,0,0,0-.38,1.71q-.17,1-.27,2.19c-.05-.74-.12-1.42-.22-2a12.14,12.14,0,0,0-.37-1.73L-137,314h-8.7v21.4h5V321.08c0-.42,0-1-.07-1.83s-.1-1.72-.17-2.74c.13.71.27,1.39.42,2s.31,1.22.47,1.74l4.71,15.07h5.12l4.82-15.33c.17-.52.33-1.07.48-1.66s.3-1.2.44-1.85c-.08.84-.14,1.62-.18,2.35s-.06,1.44-.06,2.13v14.36h5.36V314h-8.57Z" transform="translate(145.67 -24.58)"/><path d="M-104.33,326.28a7,7,0,0,1-.79,3.66,2.6,2.6,0,0,1-2.33,1.25,2.31,2.31,0,0,1-2-.92,4.77,4.77,0,0,1-.66-2.78v-8h-5.42v9.14a7.78,7.78,0,0,0,1.53,5.2,5.54,5.54,0,0,0,4.45,1.79,6.69,6.69,0,0,0,3.33-.83,6.45,6.45,0,0,0,2.4-2.41v3h4.94V319.49h-5.43Z" transform="translate(145.67 -24.58)"/><path d="M-84.1,319.07a6.58,6.58,0,0,0-3.32.84,6.49,6.49,0,0,0-2.42,2.43v-2.85h-4.93v15.86h5.43v-7.62a5.06,5.06,0,0,1,.85-3.07,2.67,2.67,0,0,1,2.27-1.15,2.32,2.32,0,0,1,2,.91,4.69,4.69,0,0,1,.67,2.78v8.15h5.39v-9.28a7.89,7.89,0,0,0-1.52-5.22,5.53,5.53,0,0,0-4.43-1.78" transform="translate(145.67 -24.58)"/><rect x="97.09" y="287.64" width="5.44" height="4.42"/><path d="M-53.59,331.57a6.47,6.47,0,0,1-1.71.22,4.78,4.78,0,0,1-3.39-1.18,4.19,4.19,0,0,1-1.26-3.18,4.35,4.35,0,0,1,1.19-3.22A4.3,4.3,0,0,1-55.55,323a6,6,0,0,1,1.56.21,6.77,6.77,0,0,1,1.58.65l.38-4a14.76,14.76,0,0,0-2.31-.62,11.46,11.46,0,0,0-2.13-.21,9.46,9.46,0,0,0-6.67,2.24,8,8,0,0,0-2.43,6.15,8,8,0,0,0,2.4,6,8.66,8.66,0,0,0,6.26,2.3,17.82,17.82,0,0,0,2.73-.19,12.32,12.32,0,0,0,2.3-.54l-.12-4.17a6.18,6.18,0,0,1-1.59.69" transform="translate(145.67 -24.58)"/><rect x="97.09" y="294.91" width="5.44" height="15.85"/><rect x="71.41" y="287.64" width="5.44" height="4.42"/><rect x="71.41" y="294.91" width="5.44" height="15.85"/><path d="M457.74,319.1a6.13,6.13,0,0,0-3.19.86,6.71,6.71,0,0,0-2.37,2.47,5.32,5.32,0,0,0-2-2.47,5.78,5.78,0,0,0-3.17-.86,6.14,6.14,0,0,0-3.15.84,6.48,6.48,0,0,0-2.33,2.4v-2.85h-4.88v15.86H442v-7.62a5.08,5.08,0,0,1,.79-3,2.45,2.45,0,0,1,2.1-1.13,2.15,2.15,0,0,1,1.9.88,4.87,4.87,0,0,1,.6,2.72v8.15h5.39v-7.62a5.14,5.14,0,0,1,.78-3,2.42,2.42,0,0,1,2.09-1.12,2.13,2.13,0,0,1,1.89.88,4.78,4.78,0,0,1,.61,2.72v8.15h5.36v-9.28a7.9,7.9,0,0,0-1.48-5.18,5.26,5.26,0,0,0-4.28-1.79" transform="translate(145.67 -24.58)"/><path d="M311,319.07a8.36,8.36,0,0,0-6.07,2.18,7.84,7.84,0,0,0-2.25,5.89,8.26,8.26,0,0,0,2.44,6.35,9.47,9.47,0,0,0,6.77,2.29,18.05,18.05,0,0,0,3-.24,15.86,15.86,0,0,0,2.77-.72v-3.88a15.1,15.1,0,0,1-2.73,1,10.38,10.38,0,0,1-2.51.33,5.31,5.31,0,0,1-3.16-.84,3.24,3.24,0,0,1-1.34-2.4H319V327.7a9.06,9.06,0,0,0-2.09-6.39,7.77,7.77,0,0,0-5.95-2.24m-3.14,6.75a4.3,4.3,0,0,1,1-2.51,2.79,2.79,0,0,1,2.15-.91,2.88,2.88,0,0,1,2.19.91,4.18,4.18,0,0,1,1,2.51Z" transform="translate(145.67 -24.58)"/><path d="M332.55,319.07a6.28,6.28,0,0,0-3.3.89,6.82,6.82,0,0,0-2.4,2.56v-3H322v22.3h5.43v-8.66a6.23,6.23,0,0,0,2.25,2,6.48,6.48,0,0,0,3,.66,6.33,6.33,0,0,0,5.08-2.35,9.11,9.11,0,0,0,2-6.09,8.89,8.89,0,0,0-1.95-6,6.5,6.5,0,0,0-5.17-2.26m.6,11.4a3.14,3.14,0,0,1-4.86,0,5.84,5.84,0,0,1,0-6.23,3,3,0,0,1,2.48-1.15,2.86,2.86,0,0,1,2.37,1.14,4.65,4.65,0,0,1,.9,3,5.15,5.15,0,0,1-.91,3.21" transform="translate(145.67 -24.58)"/><path d="M-28.41,319.07a6.25,6.25,0,0,0-3.3.89,6.93,6.93,0,0,0-2.41,2.56v-3H-39v22.3h5.43v-8.66a6.15,6.15,0,0,0,2.25,2,6.48,6.48,0,0,0,3,.66,6.33,6.33,0,0,0,5.08-2.35,9.11,9.11,0,0,0,2-6.09,8.89,8.89,0,0,0-1.95-6,6.5,6.5,0,0,0-5.17-2.26m.6,11.4a3,3,0,0,1-2.45,1.17,2.91,2.91,0,0,1-2.41-1.13,4.9,4.9,0,0,1-.89-3.08,5,5,0,0,1,.9-3.15,3,3,0,0,1,2.49-1.15,2.87,2.87,0,0,1,2.37,1.14,4.65,4.65,0,0,1,.9,3,5.15,5.15,0,0,1-.91,3.21" transform="translate(145.67 -24.58)"/><path d="M261.69,322.06a7.43,7.43,0,0,0-2.43-2.25,6.25,6.25,0,0,0-3-.74,6.63,6.63,0,0,0-5.18,2.24A9.69,9.69,0,0,0,251,333a6.41,6.41,0,0,0,5.06,2.21,6.62,6.62,0,0,0,3-.65,6.93,6.93,0,0,0,2.36-2v1.48a3.9,3.9,0,0,1-1.23,3.1,5.29,5.29,0,0,1-3.57,1.07,11.1,11.1,0,0,1-2.64-.33,12.87,12.87,0,0,1-2.65-1L251,341a16,16,0,0,0,3,.79,21.1,21.1,0,0,0,3.35.25c3.11,0,5.45-.74,7-2.2s2.35-3.67,2.35-6.6V319.49h-5Zm-1.37,8a2.92,2.92,0,0,1-2.37,1.1A2.89,2.89,0,0,1,255.6,330a4.41,4.41,0,0,1-.88-2.89,4.53,4.53,0,0,1,.88-2.91,3.09,3.09,0,0,1,4.72,0,4.47,4.47,0,0,1,.9,2.9,4.35,4.35,0,0,1-.9,2.88" transform="translate(145.67 -24.58)"/><rect x="365.51" y="287.64" width="5.43" height="4.42"/><path d="M240.1,319.07a6.4,6.4,0,0,0-5.74,3.27v-2.85h-4.94v15.86h5.44v-7.62a5,5,0,0,1,.85-3.07,2.67,2.67,0,0,1,2.26-1.15,2.34,2.34,0,0,1,2,.91,4.76,4.76,0,0,1,.67,2.78v8.15h5.39v-9.28a7.84,7.84,0,0,0-1.53-5.22,5.51,5.51,0,0,0-4.42-1.78" transform="translate(145.67 -24.58)"/><path d="M353,332a3.64,3.64,0,0,1-.5.05,2.38,2.38,0,0,1-2-.72,4.11,4.11,0,0,1-.57-2.49v-5.46h3.88v-3.92h-3.88V314.1l-5.12,1.73v3.66h-3.36v3.92h3.06V329c0,2.39.48,4.11,1.44,5.18s2.51,1.58,4.66,1.58a12.61,12.61,0,0,0,1.6-.1c.55-.07,1.12-.17,1.7-.3l-.1-3.54L353,332" transform="translate(145.67 -24.58)"/><rect x="512.13" y="305.85" width="5.03" height="4.91"/><rect x="572.7" y="287.64" width="5.44" height="4.42"/><path d="M474.67,319a19.74,19.74,0,0,0-3.39.27,13.31,13.31,0,0,0-2.87.83l.09,3.58a17.15,17.15,0,0,1,2.56-1,8,8,0,0,1,2.12-.33,5,5,0,0,1,2.89.69,2.29,2.29,0,0,1,1,2v.21h-2.13q-4.32,0-6.39,1.27a4.26,4.26,0,0,0-2.08,3.91,4.81,4.81,0,0,0,1.43,3.66,5.32,5.32,0,0,0,3.84,1.37,7.81,7.81,0,0,0,3.29-.64,5.92,5.92,0,0,0,2.32-2l.12,2.47h4.72v-8.3q0-4.14-1.82-6.07t-5.7-1.94m2.4,9.55a3.65,3.65,0,0,1-.94,2.59,3.2,3.2,0,0,1-2.42,1,2.16,2.16,0,0,1-1.5-.51,1.71,1.71,0,0,1-.56-1.34,1.73,1.73,0,0,1,1.05-1.66,8.24,8.24,0,0,1,3.45-.53h.92Z" transform="translate(145.67 -24.58)"/><path d="M501.14,320.85a5.52,5.52,0,0,0-4.43-1.78,6.58,6.58,0,0,0-3.32.84,6.39,6.39,0,0,0-2.41,2.43v-2.85H486v15.86h5.44v-7.62a5.06,5.06,0,0,1,.84-3.07,2.69,2.69,0,0,1,2.27-1.15,2.35,2.35,0,0,1,2,.91,4.77,4.77,0,0,1,.66,2.78v8.15h5.39v-9.28a7.89,7.89,0,0,0-1.52-5.22" transform="translate(145.67 -24.58)"/><path d="M417.63,314h-6.88l-8.12,21.4h5.65l1.6-4.53h8.23l1.52,4.53h6.1Zm-6.32,12.8,2.77-8,2.68,8Z" transform="translate(145.67 -24.58)"/><path d="M427,335.05a4.35,4.35,0,0,1-.52,2.49,2.1,2.1,0,0,1-1.81.71h-.45a1.56,1.56,0,0,1-.3,0l-.15,3.49a10.74,10.74,0,0,0,1.46.22,14.46,14.46,0,0,0,1.47.07,5.4,5.4,0,0,0,4.33-1.63,7.52,7.52,0,0,0,1.41-5V319.49H427Z" transform="translate(145.67 -24.58)"/><rect x="530" y="299.79" width="8.22" height="4.06"/><rect x="365.51" y="294.91" width="5.43" height="15.85"/><path d="M295.73,315.46a9.59,9.59,0,0,0-3.23-1.14,28,28,0,0,0-4.92-.37h-7.5v21.4h6.79a32.21,32.21,0,0,0,5.3-.34,9.56,9.56,0,0,0,3.24-1.05,9.7,9.7,0,0,0,3.79-3.81,11.74,11.74,0,0,0,1.24-5.63,11.3,11.3,0,0,0-1.19-5.29,9.84,9.84,0,0,0-3.52-3.77m-2.79,13.89a6.13,6.13,0,0,1-4.65,1.71h-2.47v-13H288a6.73,6.73,0,0,1,4.89,1.67,6.35,6.35,0,0,1,1.7,4.77,6.64,6.64,0,0,1-1.64,4.83" transform="translate(145.67 -24.58)"/><path d="M69,319a19.74,19.74,0,0,0-3.39.27,13.47,13.47,0,0,0-2.87.83l.09,3.58a17.57,17.57,0,0,1,2.56-1,8.09,8.09,0,0,1,2.13-.33,5.08,5.08,0,0,1,2.89.69,2.28,2.28,0,0,1,1,2v.21H69.24c-2.88,0-5,.42-6.4,1.27a4.28,4.28,0,0,0-2.08,3.91,4.85,4.85,0,0,0,1.43,3.66A5.35,5.35,0,0,0,66,335.53a7.78,7.78,0,0,0,3.29-.64,6,6,0,0,0,2.33-2l.12,2.47h4.71v-8.3c0-2.76-.61-4.78-1.81-6.07S71.56,319,69,319m2.4,9.55a3.6,3.6,0,0,1-.94,2.59,3.19,3.19,0,0,1-2.42,1,2.16,2.16,0,0,1-1.5-.51,1.86,1.86,0,0,1,.49-3,8.3,8.3,0,0,1,3.45-.53h.92Z" transform="translate(145.67 -24.58)"/><rect x="156.04" y="287.64" width="5.44" height="4.42"/><path d="M41.41,330.57l-3.5-11.08H32.05l6.57,16.38a4.18,4.18,0,0,1-1.34,1.64,3.44,3.44,0,0,1-1.9.52,5.1,5.1,0,0,1-.86-.08,6.62,6.62,0,0,1-.9-.23l-.49,4.07c.59.09,1.12.16,1.6.2a12.91,12.91,0,0,0,1.33.07,8.12,8.12,0,0,0,2.95-.51A6.72,6.72,0,0,0,41.36,340a7.42,7.42,0,0,0,1.17-1.68A34.8,34.8,0,0,0,44,335l6.21-15.48H44.74Z" transform="translate(145.67 -24.58)"/><path d="M29.9,332a3.64,3.64,0,0,1-.5.05,2.35,2.35,0,0,1-1.95-.72,4,4,0,0,1-.58-2.49v-5.46h3.89v-3.92H26.87V314.1l-5.12,1.73v3.66H18.4v3.92h3.05V329c0,2.39.48,4.11,1.44,5.18s2.51,1.58,4.66,1.58a12.5,12.5,0,0,0,1.6-.1c.55-.07,1.12-.17,1.7-.3l-.09-3.54-.86.19" transform="translate(145.67 -24.58)"/><path d="M-10.64,319a19.78,19.78,0,0,0-3.4.27,13.31,13.31,0,0,0-2.87.83l.09,3.58a17.57,17.57,0,0,1,2.56-1,8,8,0,0,1,2.13-.33,5.08,5.08,0,0,1,2.89.69,2.28,2.28,0,0,1,1,2v.21h-2.12c-2.88,0-5,.42-6.4,1.27a4.26,4.26,0,0,0-2.08,3.91,4.85,4.85,0,0,0,1.43,3.66,5.32,5.32,0,0,0,3.84,1.37,7.81,7.81,0,0,0,3.29-.64,5.92,5.92,0,0,0,2.32-2l.13,2.47h4.71v-8.3c0-2.76-.61-4.78-1.81-6.07S-8,319-10.64,319m2.39,9.55a3.65,3.65,0,0,1-.94,2.59,3.19,3.19,0,0,1-2.42,1,2.12,2.12,0,0,1-1.49-.51,1.72,1.72,0,0,1-.57-1.34,1.73,1.73,0,0,1,1.05-1.66,8.3,8.3,0,0,1,3.45-.53h.92Z" transform="translate(145.67 -24.58)"/><rect x="156.04" y="294.91" width="5.44" height="15.85"/><rect x="146.43" y="287.64" width="5.44" height="23.13"/><path d="M210,319.07a6.58,6.58,0,0,0-3.32.84,6.39,6.39,0,0,0-2.41,2.43v-2.85h-4.94v15.86h5.43v-7.62a5.06,5.06,0,0,1,.85-3.07,2.69,2.69,0,0,1,2.27-1.15,2.35,2.35,0,0,1,2,.91,4.77,4.77,0,0,1,.66,2.78v8.15H216v-9.28a7.89,7.89,0,0,0-1.52-5.22,5.53,5.53,0,0,0-4.43-1.78" transform="translate(145.67 -24.58)"/><path d="M167.49,319a19.78,19.78,0,0,0-3.4.27,13.22,13.22,0,0,0-2.86.83l.09,3.58a16.75,16.75,0,0,1,2.56-1,7.9,7.9,0,0,1,2.12-.33,5.06,5.06,0,0,1,2.89.69,2.28,2.28,0,0,1,1,2v.21h-2.12c-2.88,0-5,.42-6.4,1.27a4.28,4.28,0,0,0-2.08,3.91,4.85,4.85,0,0,0,1.43,3.66,5.35,5.35,0,0,0,3.84,1.37,7.78,7.78,0,0,0,3.29-.64,6,6,0,0,0,2.33-2l.12,2.47H175v-8.3q0-4.14-1.81-6.07t-5.7-1.94m2.39,9.55a3.6,3.6,0,0,1-.94,2.59,3.18,3.18,0,0,1-2.41,1,2.13,2.13,0,0,1-1.5-.51,1.84,1.84,0,0,1,.49-3,8.22,8.22,0,0,1,3.44-.53h.92Z" transform="translate(145.67 -24.58)"/><path d="M91,319.07a6.59,6.59,0,0,0-3.33.84,6.46,6.46,0,0,0-2.41,2.43v-2.85H80.34v15.86h5.43v-7.62a5,5,0,0,1,.85-3.07,2.67,2.67,0,0,1,2.27-1.15,2.34,2.34,0,0,1,2,.91,4.77,4.77,0,0,1,.66,2.78v8.15H97v-9.28a7.89,7.89,0,0,0-1.51-5.22A5.55,5.55,0,0,0,91,319.07" transform="translate(145.67 -24.58)"/><path d="M189.53,319.07a6.62,6.62,0,0,0-3.33.84,6.46,6.46,0,0,0-2.41,2.43v-2.85h-4.94v15.86h5.44v-7.62a5,5,0,0,1,.85-3.07,2.67,2.67,0,0,1,2.27-1.15,2.34,2.34,0,0,1,2,.91,4.77,4.77,0,0,1,.66,2.78v8.15h5.4v-9.28a7.84,7.84,0,0,0-1.53-5.22,5.5,5.5,0,0,0-4.42-1.78" transform="translate(145.67 -24.58)"/><rect x="296.28" y="287.64" width="5.44" height="23.13"/><path d="M112.37,321.69a6,6,0,0,0-2.25-2,6.58,6.58,0,0,0-3-.66,6.37,6.37,0,0,0-5.09,2.21,8.74,8.74,0,0,0-1.91,5.92,9.08,9.08,0,0,0,2,6.08,6.8,6.8,0,0,0,8.45,1.43,6.47,6.47,0,0,0,2.4-2.54v3.18h4.88V312.22h-5.44Zm-.93,8.73a2.93,2.93,0,0,1-2.46,1.13,2.89,2.89,0,0,1-2.4-1.13,4.81,4.81,0,0,1-.89-3.05,5.13,5.13,0,0,1,.89-3.12,2.74,2.74,0,0,1,2.28-1.2,3.1,3.1,0,0,1,2.54,1.15,4.71,4.71,0,0,1,.94,3.09,4.88,4.88,0,0,1-.9,3.13" transform="translate(145.67 -24.58)"/><path d="M145.66,315.62Q143.5,314,139,314h-7.65v21.4h5.71v-7.47h2.44c2.7,0,4.75-.6,6.17-1.82a6.59,6.59,0,0,0,2.12-5.3,6.1,6.1,0,0,0-2.15-5.14m-4.49,7.65a3.87,3.87,0,0,1-2.59.75h-1.5v-6.21h1.53a3.58,3.58,0,0,1,2.56.82A3.15,3.15,0,0,1,142,321a2.78,2.78,0,0,1-.87,2.23" transform="translate(145.67 -24.58)"/></g></g></g></g></g></svg>