<svg xmlns="http://www.w3.org/2000/svg" xmlns:xlink="http://www.w3.org/1999/xlink" viewBox="0 0 151.35 194.21"><defs><style>.cls-1{fill:none;}.cls-2{clip-path:url(#clip-path);}.cls-3{fill:#e3ae55;}.cls-4{fill:#57743a;}.cls-5{fill:#58743a;}.cls-6{fill:#fff;}</style><clipPath id="clip-path" transform="translate(-102.04 -9.15)"><rect class="cls-1" width="354.89" height="250.93"/></clipPath></defs><g id="Layer_2" data-name="Layer 2"><g id="Layer_1-2" data-name="Layer 1"><g class="cls-2"><g class="cls-2"><path class="cls-3" d="M156.07,158.19v-8.82h12.77V137.22h14v8.31h27v13.12H156Zm24.26-.17V147.78s-.76-.69-.14-1.18c0,0,1.66-4.56-3.74-6h.31c-5.4,1.46-3.73,6-3.73,6,.62.49-.15,1.18-.15,1.18V158Z" transform="translate(-102.04 -9.15)"/><path class="cls-4" d="M154.22,9.33A54.43,54.43,0,0,0,102,63.81a55.47,55.47,0,0,0,1.12,11.09H108a49.63,49.63,0,1,1,96.78,0h48.64V9.15h-96.5Z" transform="translate(-102.04 -9.15)"/><path class="cls-4" d="M156.35,17.73a46,46,0,0,0-45.91,46.1,46.48,46.48,0,0,0,1.34,11.07h13.38a33.08,33.08,0,1,1,62.38,0h13.38a46.47,46.47,0,0,0,1.33-11.07,46,46,0,0,0-45.9-46.1" transform="translate(-102.04 -9.15)"/><path class="cls-3" d="M149,143.4v-2.72a.55.55,0,0,1,.54-.56.56.56,0,0,1,.54.56v2.72Z" transform="translate(-102.04 -9.15)"/><path class="cls-3" d="M150.9,143.4v-2.72a.54.54,0,1,1,1.07,0v2.72Z" transform="translate(-102.04 -9.15)"/><path class="cls-3" d="M152.82,143.4v-2.72a.54.54,0,1,1,1.07,0v2.72Z" transform="translate(-102.04 -9.15)"/><path class="cls-3" d="M172.71,122.79V121c0-.21.26-.37.58-.37s.59.16.59.37v1.83Z" transform="translate(-102.04 -9.15)"/><path class="cls-3" d="M174.68,122.79V121c0-.21.26-.37.59-.37s.58.16.58.37v1.83Z" transform="translate(-102.04 -9.15)"/><path class="cls-3" d="M176.66,122.79V121c0-.21.26-.37.58-.37s.58.16.58.37v1.83Z" transform="translate(-102.04 -9.15)"/><path class="cls-3" d="M178.63,122.79V121c0-.21.26-.37.59-.37s.58.16.58.37v1.83Z" transform="translate(-102.04 -9.15)"/><path class="cls-3" d="M180.61,122.79V121c0-.21.26-.37.58-.37s.58.16.58.37v1.83Z" transform="translate(-102.04 -9.15)"/><path class="cls-3" d="M193.48,106.08h-3.77V100.2h-6.53V93.38a1.61,1.61,0,0,0,.52-.8V90.65h-.52V86.5s-.41-1.11-1.25-1.11l-.1-2.25h-.08l-.1,2.25c-.84,0-1.25,1.11-1.25,1.11v4.15h-.52v1.93a1.54,1.54,0,0,0,.52.8v6.82h-2.25V93.66h-.8V76.73h-1.14V69l-.38-.38V60.51h.28a4.79,4.79,0,0,0-2.46-3.78l-.4-3.48-.4,3.49a4.77,4.77,0,0,0-2.45,3.77h.27V68.6l-.37.38V85.84a19.9,19.9,0,0,0-2.11,4.63s-1.6,2-3.29,2V85.11h.41v-.73h-.41V81.44h.41v-.73h-.41V71.89h.41V70.76H165v.4h-.26v-.4h-.55v.4h-.26v-.4h-.54v.4h-.27v-.4h-.55v.4h-.26v-.4h-.55v.4h-.26v-.4h-.54v.4h-.27v-.4h-.54v.4h-.27v-.4h-.55v.4h-.26v-.4h-.54v.4h-.27v-.4h-.3v1.13h.41v8.82h-.41v.73h.41v2.94h-.41v.73h.41V96.68l-.16,0v-.28h-.33v.4h-.26v-.4h-.55v.4h-.27v-.4h-.54v.4H156v-.4h-.55v.4h-.26v-.4h-.55v.4h-.26v-.4h-.55v.4h-.26v-.4H153v.4h-.27v-.4h-.54v.4h-.27v-.4h-.55v.4h-.26v-.4H150v5h.48V106h-.64v2l-.46.46v2.43l-.45.43c-1.09,1-1.95,1.79-2.16,1.92,0,0-3.87-5.8-.36-14.17,2.39-5.68,8.67-10.59,6.9-10.64a37,37,0,0,0-9.07,3.26l-.65-5.7-.23,6.16a30.88,30.88,0,0,0-15.12,17.35l-3.42-4s-1.51-.88-.89.89c0,0,4.46,8.67,7.63,10.07a52.56,52.56,0,0,0,11.17,3.89s.25.73-.63.78c0,0-1.4-.1-1.71,2.39l-5.24,2.33s-2.24,4.62-2,5.24,2.44,2,2.44,2v10.59l3.07,2.33V141h1.09V157.8h2.38v-6.65h4.78V137.81h7.84v-5.76h1.45v-.62h.41V130l.32-.31v-3.38s.25-.91.91-.91l.18-2,.26,2s1,.31,1,.93v3.63l.3.11V131h.26v1.09h1.56v2h3.64v-5.77H169v-2.64h1.19a2.8,2.8,0,0,0,.68-1.16,3.77,3.77,0,0,0,0-1h.69v-4.67H172a4.87,4.87,0,0,1,4-4.4s.26-.92,1-1l.24-2.49.28,2.53a.85.85,0,0,1,.9.91,4.55,4.55,0,0,1,4,4.35h.38v4.7h.81a2.34,2.34,0,0,0,1.68,2.17v.77h2.91v-7.66h2.06a1.19,1.19,0,0,0,.86-1.3v-4.12s.22-1.55,1.19-1.55l.28-2.91.42,2.91h.51v-5.68Z" transform="translate(-102.04 -9.15)"/><polygon class="cls-3" points="104.53 107.31 104.53 103.89 100.68 103.89 100.68 118.01 107.88 118.01 107.88 107.31 104.53 107.31"/><path class="cls-5" d="M185.28,78.29a.74.74,0,0,0-.21,1.25s3.05-.49,3.19,5.33h2.49v1.94a.93.93,0,0,1,0,1.52v1.73s1.38.21,1,2.28c0,0,3.25.21,1.17,4.71,0,0-.55,1.18.62,1.31v53.43s-1,.84.28.84a2.59,2.59,0,0,1-2,2.52v1.3h-.93v2.06h-68.8v-1.82h-1.21l0-.65c1.25-.32-.27-1-.27-1a1.68,1.68,0,0,1-1.56-1v-.9a.88.88,0,0,0,.07-1.55V98.59c2.21-1.45.14-2.7.14-2.7V93.05c.69,0,.55-.41.55-.41h1V90.9a2.08,2.08,0,0,0,.9-3c-1-.62.07-.9.07-.9a6,6,0,0,0,.14-2.08h2.35s.07-4.43,3.29-5.57c0,0,.78-1.09-.26-1.09l-13.86.09H103V85h4a5.78,5.78,0,0,0,.14,2.08s1,.28.07.9a2.08,2.08,0,0,0,.9,3v1.74h1s-.14.41.55.41v2.84s-2.08,1.25.14,2.7v52.95a.88.88,0,0,0,.07,1.55v.9a1.68,1.68,0,0,1-1.56,1s-1.52.69-.28,1l0,.65h-1.21v1.82h-4.19v44.85h150.6V78.29Zm20.35,80.22v-2.06h-1v-1.3c-2.29,0-1.81-2.54-1.81-2.54,1-.57-.06-1-.06-1V98.09c1.66-.14.76-1.94.76-1.94-1.38-3.32,1.11-3.88,1.11-3.88,0-2.35,1.24-1.93,1.24-1.93V88.19c-1.24-.83,0-1.38,0-1.38V84.94h4.09v73.57Z" transform="translate(-102.04 -9.15)"/><rect class="cls-6" x="60.89" y="64.4" width="0.65" height="6.75"/><rect class="cls-6" x="59.2" y="64.4" width="0.66" height="6.75"/><rect class="cls-6" x="57.53" y="64.4" width="0.66" height="6.75"/><path class="cls-6" d="M152.46,106v-6a.82.82,0,0,1,.8-.84.83.83,0,0,1,.82.84v6Z" transform="translate(-102.04 -9.15)"/><path class="cls-6" d="M155.54,106v-6a.82.82,0,1,1,1.63,0v6Z" transform="translate(-102.04 -9.15)"/><path class="cls-6" d="M158.63,106v-6a.82.82,0,1,1,1.63,0v6Z" transform="translate(-102.04 -9.15)"/><path class="cls-6" d="M161.72,106v-6a.83.83,0,0,1,.81-.84.83.83,0,0,1,.82.84v6Z" transform="translate(-102.04 -9.15)"/><path class="cls-6" d="M131.05,111.31s7.09-1.25,12.25,3v.94a119.66,119.66,0,0,1-12.25-4" transform="translate(-102.04 -9.15)"/><path class="cls-6" d="M172.77,68.34a.38.38,0,0,1-.39.38.39.39,0,0,1-.39-.38V62.63a.39.39,0,0,1,.39-.39.38.38,0,0,1,.39.39Z" transform="translate(-102.04 -9.15)"/><path class="cls-6" d="M174.56,68.34a.38.38,0,0,1-.39.38.39.39,0,0,1-.39-.38V62.63a.39.39,0,0,1,.39-.39.38.38,0,0,1,.39.39Z" transform="translate(-102.04 -9.15)"/><path class="cls-6" d="M117.89,169.34a.94.94,0,0,0,1.08-1.06,1.1,1.1,0,0,0-.29-.8,1,1,0,0,0-.76-.31,1,1,0,0,0-1.09,1.06,1.14,1.14,0,0,0,.29.8,1,1,0,0,0,.77.31" transform="translate(-102.04 -9.15)"/><path class="cls-6" d="M120.74,169.37a1,1,0,0,0,1.09-1.07,1.16,1.16,0,0,0-.29-.8,1,1,0,0,0-.77-.31,1,1,0,0,0-1.08,1.07,1.09,1.09,0,0,0,.29.79,1,1,0,0,0,.76.32" transform="translate(-102.04 -9.15)"/><path class="cls-6" d="M140.24,169.37a1,1,0,0,0,1.09-1.07,1.16,1.16,0,0,0-.29-.8,1,1,0,0,0-.77-.31,1,1,0,0,0-1.09,1.07,1.13,1.13,0,0,0,.29.79,1,1,0,0,0,.77.32" transform="translate(-102.04 -9.15)"/><path class="cls-6" d="M134.94,172.12a9.43,9.43,0,0,0-.83,4.56h-9v-6.47h-2.69v1.52l-1,0h-1a9.32,9.32,0,0,0-3.84.61,3.16,3.16,0,0,0-1.85,3.13,3.54,3.54,0,0,0,1.14,2.68,3.89,3.89,0,0,0,2.74,1.07h3.41l.41-.51.35.51h17.62a1.32,1.32,0,0,0,1.18-.47,2.38,2.38,0,0,0,.25-1.26v-7.25h-3c-1.91,0-3.24.64-4,1.91m-12.48,4.56h-3.71a1.22,1.22,0,0,1-.83-.32,1,1,0,0,1-.37-.79,1.22,1.22,0,0,1,.35-.87,1.16,1.16,0,0,1,.85-.36h3.71Zm17-.66c0,.31,0,.5-.11.56a.93.93,0,0,1-.56.1h-2.19v-2.17q0-1.8,1.92-1.8h.94Z" transform="translate(-102.04 -9.15)"/><path class="cls-6" d="M137.38,169.34a1,1,0,0,0,1.09-1.06,1.1,1.1,0,0,0-.29-.8,1.09,1.09,0,0,0-1.85.81,1,1,0,0,0,.3.75,1.05,1.05,0,0,0,.75.3" transform="translate(-102.04 -9.15)"/><path class="cls-6" d="M146,179.74c0,1.08-.2,1.72-.58,1.94a6,6,0,0,1-2.1.19v2.43h1.34a3.61,3.61,0,0,0,3-1.14,5.29,5.29,0,0,0,.76-3.2v-9.75H146Z" transform="translate(-102.04 -9.15)"/><path class="cls-6" d="M169.29,170.66a1.11,1.11,0,0,0,.29.8.93.93,0,0,0,.75.32,1,1,0,0,0,1.1-1.07,1.14,1.14,0,0,0-.29-.8,1,1,0,0,0-.76-.31,1,1,0,0,0-1.09,1.06" transform="translate(-102.04 -9.15)"/><path class="cls-6" d="M168.92,169.32A1,1,0,0,0,170,168.2a1,1,0,0,0-1-1c-.73,0-1.1.35-1.1,1.06a1.16,1.16,0,0,0,.29.8,1,1,0,0,0,.77.31" transform="translate(-102.04 -9.15)"/><path class="cls-6" d="M167.49,171.76a1,1,0,0,0,1.08-1.08,1.1,1.1,0,0,0-.29-.79,1,1,0,0,0-.75-.32,1,1,0,0,0-1.09,1.07,1.16,1.16,0,0,0,.29.8,1,1,0,0,0,.76.32" transform="translate(-102.04 -9.15)"/><polygon class="cls-6" points="77.11 167.53 76.57 167.53 73.89 167.53 73.25 167.53 73.25 163.55 70.79 163.55 70.79 167.53 68.39 167.53 68.39 163.55 65.93 163.55 65.93 167.53 63.53 167.53 63.53 163.55 61.07 163.55 61.07 167.53 59.87 167.53 59.2 167.53 56.53 167.53 55.86 167.53 53.19 167.53 50.9 167.53 50.9 158.54 48.44 158.54 48.44 170.04 53.19 170.04 55.86 170.04 56.53 170.04 59.2 170.04 59.87 170.04 62.55 170.04 73.89 170.04 76.57 170.04 79.55 170.04 79.55 158.49 77.11 158.49 77.11 167.53"/><rect class="cls-6" x="81.79" y="158.49" width="2.46" height="11.55"/><path class="cls-6" d="M196.09,169.37a.94.94,0,0,0,1.06-1.07,1.15,1.15,0,0,0-.28-.8,1,1,0,0,0-.75-.31,1,1,0,0,0-1.06,1.07,1.13,1.13,0,0,0,.29.79.93.93,0,0,0,.74.32" transform="translate(-102.04 -9.15)"/><path class="cls-6" d="M193.31,169.34a.93.93,0,0,0,1.06-1.06,1.18,1.18,0,0,0-.28-.8,1,1,0,0,0-.75-.31.93.93,0,0,0-1.06,1.06,1.13,1.13,0,0,0,.28.8,1,1,0,0,0,.75.31" transform="translate(-102.04 -9.15)"/><path class="cls-6" d="M206.84,180.17a.93.93,0,0,0-1.06,1.06,1.18,1.18,0,0,0,.28.81.92.92,0,0,0,.74.31,1,1,0,0,0,1.06-1.07q0-1.11-1-1.11" transform="translate(-102.04 -9.15)"/><path class="cls-6" d="M211.13,172.71h-2.38c0,.52,0,1.11,0,1.74s0,1,0,1.17a1.46,1.46,0,0,1-.2.92,1.28,1.28,0,0,1-.83.21v-.07h-7.4v-6.47h-2.63v1.52l-.93,0-1,0a8.84,8.84,0,0,0-3.74.62,3.17,3.17,0,0,0-1.81,3.13,3.56,3.56,0,0,0,1.12,2.68,3.72,3.72,0,0,0,2.66,1.07h3.32l.4-.51.35.51h12.18c.44,0,.72-.31.86-.92a5.92,5.92,0,0,1,0-.78Zm-13.37,4h-3.61a1.17,1.17,0,0,1-.81-.32,1,1,0,0,1-.36-.79,1.25,1.25,0,0,1,.34-.87,1.11,1.11,0,0,1,.83-.36h3.61Z" transform="translate(-102.04 -9.15)"/><path class="cls-6" d="M211.15,178.29v-.08s0,0,0,.06v0" transform="translate(-102.04 -9.15)"/><path class="cls-6" d="M209.62,180.19a.94.94,0,0,0-1.06,1.07,1.17,1.17,0,0,0,.28.8,1,1,0,0,0,1.8-.76,1.12,1.12,0,0,0-.28-.79,1,1,0,0,0-.74-.32" transform="translate(-102.04 -9.15)"/><path class="cls-6" d="M240.65,172.71h-2.4v3a1.71,1.71,0,0,1-.14.83.48.48,0,0,1-.2.14h-5.37v-9h-2.38v9h-9.43a9.38,9.38,0,0,0-.87-4.67c-.74-1.2-2.09-1.8-4.06-1.8h-2.46v2.5l.69,0h.75a5.61,5.61,0,0,1,2.42.41,2.1,2.1,0,0,1,1.14,2.06v1.53h-5v2.51H239.8c.48,0,.77-.33.87-1Z" transform="translate(-102.04 -9.15)"/><path class="cls-6" d="M238.56,180.1a.94.94,0,0,0-1.06,1.07,1.14,1.14,0,0,0,.28.79,1,1,0,0,0,.74.32c.71,0,1.07-.38,1.07-1.12a1.06,1.06,0,0,0-.3-.76,1,1,0,0,0-.73-.3" transform="translate(-102.04 -9.15)"/><path class="cls-6" d="M110.23,193.77l1.57-.18a2.49,2.49,0,0,0,.57,1.41,1.82,1.82,0,0,0,2.34.05,1.28,1.28,0,0,0,.4-.94,1,1,0,0,0-.17-.59,1.3,1.3,0,0,0-.58-.42q-.28-.12-1.29-.42a4.08,4.08,0,0,1-1.81-1,2.77,2.77,0,0,1-.74-2,2.9,2.9,0,0,1,.35-1.39,2.31,2.31,0,0,1,1-1,3.46,3.46,0,0,1,1.57-.34,2.94,2.94,0,0,1,2.26.81,3.12,3.12,0,0,1,.8,2.14l-1.61.08a1.8,1.8,0,0,0-.45-1.07,1.39,1.39,0,0,0-1-.33,1.6,1.6,0,0,0-1.09.35.76.76,0,0,0-.26.6.81.81,0,0,0,.24.59,3.69,3.69,0,0,0,1.48.65,7.27,7.27,0,0,1,1.74.7,2.63,2.63,0,0,1,.88,1,3.45,3.45,0,0,1,.32,1.55,3.4,3.4,0,0,1-.38,1.57,2.45,2.45,0,0,1-1.08,1.08,3.77,3.77,0,0,1-1.74.36,3.09,3.09,0,0,1-2.32-.85,4.12,4.12,0,0,1-1-2.49" transform="translate(-102.04 -9.15)"/><polygon class="cls-6" points="16.04 187.78 16.04 178.06 17.65 178.06 17.65 181.89 20.8 181.89 20.8 178.06 22.41 178.06 22.41 187.78 20.8 187.78 20.8 183.53 17.65 183.53 17.65 187.78 16.04 187.78"/><path class="cls-6" d="M133.31,196.94h-1.75l-.7-2.21h-3.19l-.65,2.21h-1.71l3.1-9.73h1.71Zm-3-3.85-1.1-3.61-1.08,3.61Z" transform="translate(-102.04 -9.15)"/><path class="cls-6" d="M134.17,196.94v-9.73h3.39a5,5,0,0,1,1.86.26,2,2,0,0,1,.92.93,3.21,3.21,0,0,1,.35,1.54,2.93,2.93,0,0,1-.52,1.8,2.38,2.38,0,0,1-1.58.9,4,4,0,0,1,.86.82,10.91,10.91,0,0,1,.92,1.58l1,1.9h-1.93l-1.16-2.12a13.61,13.61,0,0,0-.85-1.43,1.29,1.29,0,0,0-.48-.41,2.31,2.31,0,0,0-.81-.1h-.33v4.06Zm1.61-5.62H137a5.08,5.08,0,0,0,1.45-.12.89.89,0,0,0,.45-.41,1.46,1.46,0,0,0,.16-.73,1.34,1.34,0,0,0-.21-.79.94.94,0,0,0-.61-.38,10.77,10.77,0,0,0-1.17,0h-1.26Z" transform="translate(-102.04 -9.15)"/><path class="cls-6" d="M145.09,187.21h1.6v6.16a7.38,7.38,0,0,1-.17,1.85,2.7,2.7,0,0,1-.85,1.37,2.46,2.46,0,0,1-1.62.51,2.21,2.21,0,0,1-1.82-.8,3.8,3.8,0,0,1-.64-2.37l1.52-.21a3,3,0,0,0,.2,1.18.83.83,0,0,0,.79.52.83.83,0,0,0,.77-.37,3.68,3.68,0,0,0,.22-1.56Z" transform="translate(-102.04 -9.15)"/><path class="cls-6" d="M155.6,196.94h-1.75l-.7-2.21H150l-.65,2.21H147.6l3.1-9.73h1.71Zm-3-3.85-1.09-3.61-1.08,3.61Z" transform="translate(-102.04 -9.15)"/><polygon class="cls-6" points="54.42 187.78 54.42 178.06 56.03 178.06 56.03 181.89 59.19 181.89 59.19 178.06 60.8 178.06 60.8 187.78 59.19 187.78 59.19 183.53 56.03 183.53 56.03 187.78 54.42 187.78"/><polygon class="cls-6" points="65.53 187.78 65.53 178.06 67.94 178.06 69.39 184.69 70.82 178.06 73.24 178.06 73.24 187.78 71.74 187.78 71.74 180.13 70.16 187.78 68.61 187.78 67.03 180.13 67.03 187.78 65.53 187.78"/><path class="cls-6" d="M176.87,187.21h1.61v5.27a13.25,13.25,0,0,0,.06,1.62,1.59,1.59,0,0,0,.49,1,1.5,1.5,0,0,0,1.06.36,1.43,1.43,0,0,0,1-.34,1.4,1.4,0,0,0,.41-.84,12.28,12.28,0,0,0,.08-1.65v-5.38h1.61v5.11a16.82,16.82,0,0,1-.13,2.47,2.93,2.93,0,0,1-.49,1.22,2.42,2.42,0,0,1-.93.8,3.58,3.58,0,0,1-1.54.29,3.75,3.75,0,0,1-1.73-.32,2.44,2.44,0,0,1-.93-.84,3,3,0,0,1-.46-1.07,15.11,15.11,0,0,1-.15-2.47Z" transform="translate(-102.04 -9.15)"/><polygon class="cls-6" points="82.9 187.78 82.9 178.06 84.47 178.06 87.73 184.55 87.73 178.06 89.23 178.06 89.23 187.78 87.61 187.78 84.4 181.44 84.4 187.78 82.9 187.78"/><rect class="cls-6" x="90.88" y="178.06" width="1.61" height="9.73"/><path class="cls-6" d="M201.17,193.36l1.56.6a4.57,4.57,0,0,1-1.19,2.37,3,3,0,0,1-2.12.77,3.16,3.16,0,0,1-2.61-1.32,5.73,5.73,0,0,1-1-3.62,6,6,0,0,1,1-3.77,3.25,3.25,0,0,1,2.7-1.35,3,3,0,0,1,2.38,1.06,4.09,4.09,0,0,1,.82,1.79l-1.6.46a2.14,2.14,0,0,0-.59-1.19,1.51,1.51,0,0,0-1.09-.44,1.7,1.7,0,0,0-1.44.78,4.49,4.49,0,0,0-.55,2.51,4.7,4.7,0,0,0,.55,2.63,1.65,1.65,0,0,0,1.41.78,1.43,1.43,0,0,0,1.1-.49,3.23,3.23,0,0,0,.67-1.57" transform="translate(-102.04 -9.15)"/><rect class="cls-6" x="102.02" y="178.06" width="1.61" height="9.73"/><path class="cls-6" d="M207.21,196.94v-9.73h2.58a8.3,8.3,0,0,1,1.92.14,2.14,2.14,0,0,1,1.14,1,3.48,3.48,0,0,1,.47,1.89,3.74,3.74,0,0,1-.27,1.51,2.68,2.68,0,0,1-.68,1,2.23,2.23,0,0,1-.83.46,7.78,7.78,0,0,1-1.67.14h-1.05v3.67Zm1.61-8.09v2.76h.88a3.49,3.49,0,0,0,1.27-.15,1.12,1.12,0,0,0,.51-.48,1.51,1.51,0,0,0,.18-.75,1.44,1.44,0,0,0-.26-.88,1.06,1.06,0,0,0-.65-.43,6.53,6.53,0,0,0-1.15-.07Z" transform="translate(-102.04 -9.15)"/><path class="cls-6" d="M221,196.94h-1.75l-.69-2.21h-3.19l-.66,2.21H213l3.11-9.73h1.7Zm-3-3.85-1.1-3.61-1.08,3.61Z" transform="translate(-102.04 -9.15)"/><polygon class="cls-6" points="119.86 187.78 119.86 178.14 121.47 178.14 121.47 186.15 125.48 186.15 125.48 187.78 119.86 187.78"/><rect class="cls-6" x="126.58" y="178.06" width="1.61" height="9.73"/><polygon class="cls-6" points="131.51 187.78 131.51 179.7 129.15 179.7 129.15 178.06 135.49 178.06 135.49 179.7 133.13 179.7 133.13 187.78 131.51 187.78"/><polygon class="cls-6" points="138.62 187.78 138.62 183.69 135.7 178.06 137.59 178.06 139.46 181.91 141.3 178.06 143.16 178.06 140.22 183.7 140.22 187.78 138.62 187.78"/></g></g></g></g></svg>