<svg xmlns="http://www.w3.org/2000/svg" xmlns:xlink="http://www.w3.org/1999/xlink" viewBox="0 0 184.19 184.14"><defs><style>.cls-1{fill:url(#linear-gradient);}.cls-2{fill:url(#New_Gradient_Swatch_1);}.cls-3{fill:url(#linear-gradient-2);}.cls-4{fill:url(#linear-gradient-3);}.cls-5{fill:url(#linear-gradient-4);}</style><linearGradient id="linear-gradient" x1="-8331.78" y1="625.74" x2="-8583.67" y2="414.38" gradientTransform="translate(2600.4 -107.65) scale(0.3)" gradientUnits="userSpaceOnUse"><stop offset="0" stop-color="#fff4f3"/><stop offset="0.07" stop-color="#feedee"/><stop offset="0.17" stop-color="#fdd9e0"/><stop offset="0.29" stop-color="#fab8c8"/><stop offset="0.43" stop-color="#f68ba8"/><stop offset="0.58" stop-color="#f2517e"/><stop offset="0.74" stop-color="#ec0b4d"/><stop offset="0.76" stop-color="#eb0045"/></linearGradient><linearGradient id="New_Gradient_Swatch_1" x1="-8455.09" y1="478.61" x2="-8062.06" y2="883.19" gradientTransform="translate(2600.4 -107.65) scale(0.3)" gradientUnits="userSpaceOnUse"><stop offset="0" stop-color="#f1f7e8"/><stop offset="0.24" stop-color="#8dc75a"/><stop offset="0.34" stop-color="#86c35a"/><stop offset="0.48" stop-color="#73b75b"/><stop offset="0.65" stop-color="#53a55c"/><stop offset="0.85" stop-color="#288b5e"/><stop offset="1" stop-color="#007360"/></linearGradient><linearGradient id="linear-gradient-2" x1="-8287.3" y1="244.49" x2="-8287.3" y2="1032.92" gradientTransform="translate(2600.4 -107.65) scale(0.3)" gradientUnits="userSpaceOnUse"><stop offset="0" stop-color="#fefefe"/><stop offset="1" stop-color="#8bc549"/></linearGradient><linearGradient id="linear-gradient-3" x1="-8275.52" y1="607.71" x2="-8319.25" y2="359.72" gradientTransform="translate(2600.4 -107.65) scale(0.3)" gradientUnits="userSpaceOnUse"><stop offset="0" stop-color="#e5ecf7"/><stop offset="0.15" stop-color="#e1eaf6"/><stop offset="0.29" stop-color="#d7e3f3"/><stop offset="0.41" stop-color="#c4d8ee"/><stop offset="0.54" stop-color="#abc7e7"/><stop offset="0.66" stop-color="#8ab3de"/><stop offset="0.78" stop-color="#6199d3"/><stop offset="0.89" stop-color="#327cc7"/><stop offset="1" stop-color="#005cb9"/></linearGradient><linearGradient id="linear-gradient-4" x1="-8270.18" y1="497.75" x2="-8270.18" y2="895.84" gradientTransform="translate(2600.4 -107.65) scale(0.3)" gradientUnits="userSpaceOnUse"><stop offset="0" stop-color="#fefefe"/><stop offset="1" stop-color="#bddd95"/></linearGradient></defs><g id="Layer_2" data-name="Layer 2"><g id="Layer_1-2" data-name="Layer 1"><path class="cls-1" d="M2.79,83.88c0-1.91.09-3.81.23-5.7a76.76,76.76,0,0,1,109.07-64.1,83.61,83.61,0,0,1,9.7,2.13A79.55,79.55,0,0,0,0,83.88a78.56,78.56,0,0,0,.45,8.44,79.77,79.77,0,0,0,25.29,50.31,85.34,85.34,0,0,1-4.59-8.8A76.84,76.84,0,0,1,2.79,83.88Z"/><path class="cls-2" d="M98.88,13.06a85.54,85.54,0,1,0,85.31,85.53A85.41,85.41,0,0,0,98.88,13.06ZM90.21,152.48a66.11,66.11,0,1,1,65.93-66.09A66,66,0,0,1,90.21,152.48Z"/><path class="cls-3" d="M159.21,83.88a79.91,79.91,0,0,0-37.42-67.67,83.61,83.61,0,0,0-9.7-2.13,77,77,0,1,1-86.8,124.27c-1.45-1.45-2.81-3-4.14-4.52a85.34,85.34,0,0,0,4.59,8.8A79.54,79.54,0,0,0,159.21,83.88Z"/><path class="cls-4" d="M39.44,26a78.63,78.63,0,0,1,111.4,0,79.83,79.83,0,0,1,12.95,17.13,85.69,85.69,0,0,1,8.43,11.8A81.6,81.6,0,0,0,13.51,81.85,85.18,85.18,0,0,0,14,90.5,85.65,85.65,0,0,1,16.61,76,78.81,78.81,0,0,1,39.44,26Z"/><path class="cls-5" d="M95.14,163.7A81.87,81.87,0,0,0,172.22,54.92a85.69,85.69,0,0,0-8.43-11.8A78.83,78.83,0,1,1,16.37,81.85c0-2,.09-3.91.24-5.85A85.65,85.65,0,0,0,14,90.5,81.72,81.72,0,0,0,95.14,163.7Z"/></g></g></svg>