<svg xmlns="http://www.w3.org/2000/svg" xmlns:xlink="http://www.w3.org/1999/xlink" viewBox="0 0 613.35 259.78"><defs><style>.cls-1{fill:none;}.cls-2{clip-path:url(#clip-path);}.cls-3{clip-path:url(#clip-path-2);}.cls-4{fill:#b61f3e;}.cls-5{clip-path:url(#clip-path-4);}.cls-6{fill:url(#linear-gradient);}</style><clipPath id="clip-path" transform="translate(278.7 -23.99)"><path class="cls-1" d="M76.34,248.1l8.91-50.89,38.17-80.63s7.63-59.33,7.63-63.14S328.26,0,328.26,0L432.59,147.59l-80.15,248.1S0,351.16,0,347.35,76.34,248.1,76.34,248.1Z"/></clipPath><clipPath id="clip-path-2" transform="translate(278.7 -23.99)"><rect class="cls-1" x="-296.67" y="-187.73" width="608.61" height="608.61"/></clipPath><clipPath id="clip-path-4" transform="translate(278.7 -23.99)"><path class="cls-1" d="M221.42,80.38c-6.27,7.46-120.23,143.22-121.24,144.51s-.72,3,1.77,3H212.76a4.24,4.24,0,0,0,3.38-1.3c.61-.61,69.1-69.55,74.88-75.35a1.78,1.78,0,0,0,0-2.49L224,80.48a.52.52,0,0,0-.11-.1,1.81,1.81,0,0,0-1.29-.51,1.52,1.52,0,0,0-1.19.51"/></clipPath><linearGradient id="linear-gradient" x1="97.56" y1="53.41" x2="101.86" y2="53.41" gradientTransform="matrix(-34.54, 0, 0, 34.54, 3638.51, -1690.82)" gradientUnits="userSpaceOnUse"><stop offset="0" stop-color="#ffcc72"/><stop offset="0.17" stop-color="#fdc56d"/><stop offset="0.41" stop-color="#f6b35e"/><stop offset="0.7" stop-color="#ec9546"/><stop offset="1" stop-color="#de6d26"/></linearGradient></defs><g id="Layer_2" data-name="Layer 2"><g id="Layer_1-2" data-name="Layer 1"><g class="cls-2"><g class="cls-3"><g class="cls-3"><path class="cls-4" d="M-243.68,136.8a22.54,22.54,0,0,0-2.63.5,11.8,11.8,0,0,0-6.35,4.1,9.58,9.58,0,0,0-2.17,5.9,4.08,4.08,0,0,0,.82,2.51,4.56,4.56,0,0,0,2.17,1.57,2.44,2.44,0,0,0,.36.06l.42.08a2.31,2.31,0,0,0,.37,0l.05,0h.07a7.66,7.66,0,0,1,5.89,2.42,8.6,8.6,0,0,1,2.37,5.66,7.88,7.88,0,0,1-2.41,5.9,19.74,19.74,0,0,1-14.77,5.75,19.55,19.55,0,0,1-13-5.7,19.85,19.85,0,0,1-5.88-13q-.13-10.27,7.28-16.39l1,1.34a7.37,7.37,0,0,1,.57,8.09,12.28,12.28,0,0,0-1.47,6.76,12.4,12.4,0,0,0,3.5,7.79,12.34,12.34,0,0,0,7.73,3.67,12.28,12.28,0,0,0,9.77-3.5.89.89,0,0,0,.2-.95.93.93,0,0,0-.8-.56h-1.11l-.74-.05a11.8,11.8,0,0,1-7-4,11.14,11.14,0,0,1-2.78-7.53,16.88,16.88,0,0,1,5.54-12.47q5.56-5.39,16.49-6h4v18.39a4.17,4.17,0,0,0,1.28,3,4.21,4.21,0,0,0,3,1.26h1V159h-1a11.26,11.26,0,0,1-8.27-3.43,11.24,11.24,0,0,1-3.43-8.27v-10.5a.32.32,0,0,1-.14,0m-15.71,41.26a4.14,4.14,0,0,0-1.27-3,4.16,4.16,0,0,0-3-1.28,4.15,4.15,0,0,0-3,1.28,4.14,4.14,0,0,0-1.27,3,4.22,4.22,0,0,0,1.27,3.06,4.21,4.21,0,0,0,3,1.26,4.22,4.22,0,0,0,3-1.26,4.22,4.22,0,0,0,1.27-3.06m9.66,0a4.17,4.17,0,0,0-1.26-3,4.11,4.11,0,0,0-3-1.28,4.17,4.17,0,0,0-3,1.28,4.17,4.17,0,0,0-1.26,3,4.25,4.25,0,0,0,1.26,3.06,4.23,4.23,0,0,0,3,1.26,4.17,4.17,0,0,0,3-1.26,4.25,4.25,0,0,0,1.26-3.06" transform="translate(278.7 -23.99)"/><rect class="cls-4" x="46.63" y="127.59" width="8.62" height="7.39"/><rect class="cls-4" x="53.91" y="127.59" width="8.63" height="7.39"/><rect class="cls-4" x="61.2" y="127.59" width="8.64" height="7.39"/><path class="cls-4" d="M-200.64,136.3a7.17,7.17,0,0,1,2.15-5.25,7.1,7.1,0,0,1,5.24-2.18v18.4a11.29,11.29,0,0,1-3.42,8.27,11.28,11.28,0,0,1-8.28,3.43h-5.22v-7.39h5.22a4.14,4.14,0,0,0,3-1.27,4.09,4.09,0,0,0,1.27-3Zm-.46,34.78a4.22,4.22,0,0,1-3.05,1.27,4.22,4.22,0,0,1-3-1.27,4.15,4.15,0,0,1-1.27-3.05,4.12,4.12,0,0,1,1.27-3,4.18,4.18,0,0,1,3-1.27A4.18,4.18,0,0,1-201.1,165a4.15,4.15,0,0,1,1.26,3,4.18,4.18,0,0,1-1.26,3.05" transform="translate(278.7 -23.99)"/><path class="cls-4" d="M-169.35,128.91a15.17,15.17,0,0,1,10.41,4.63,14.35,14.35,0,0,1,4.17,10.38,14.39,14.39,0,0,1-4.17,10.42A15.18,15.18,0,0,1-169.35,159H-186.5a7.09,7.09,0,0,1,2.18-5.24,7.12,7.12,0,0,1,5.21-2.16h9.37a7.85,7.85,0,0,0,5.38-2.37,7.55,7.55,0,0,0,2.21-5.42,7.64,7.64,0,0,0-2.2-5.23,7.52,7.52,0,0,0-5.2-2.26h-.29l-.67,0h-.11a11.76,11.76,0,0,0-3.3.73,7,7,0,0,1-7.7-1.86l-1-1.18a18.83,18.83,0,0,1,11.47-5,12.44,12.44,0,0,1,1.37-.07Z" transform="translate(278.7 -23.99)"/><path class="cls-4" d="M-120.09,153.72a7.15,7.15,0,0,1,2.17,5.25h-7.39a12.21,12.21,0,0,1-9-3.75,12.23,12.23,0,0,1-3.74-9,18.42,18.42,0,0,1,2.86-9.88,20.3,20.3,0,0,1,8.53-7.4q5.67-2.82,14.1-2.82v21.13a4.17,4.17,0,0,0,1.25,3.05,4.18,4.18,0,0,0,3.06,1.27h1.81V159h-1.81a11.38,11.38,0,0,1-8.3-3.43,11.25,11.25,0,0,1-3.43-8.28V134.39q-10.68,3.12-10.68,11.84a5.11,5.11,0,0,0,1.57,3.77,5.14,5.14,0,0,0,3.78,1.58,7.28,7.28,0,0,1,5.22,2.14m-5.81-32.8a4.16,4.16,0,0,1-3,1.27,4.13,4.13,0,0,1-3.05-1.27,4.16,4.16,0,0,1-1.27-3,4.11,4.11,0,0,1,1.27-3,4.14,4.14,0,0,1,3.05-1.28,4.17,4.17,0,0,1,3,1.28,4.14,4.14,0,0,1,1.26,3,4.19,4.19,0,0,1-1.26,3m9.67,0a4.11,4.11,0,0,1-3.06,1.27,4.14,4.14,0,0,1-3-1.27,4.16,4.16,0,0,1-1.27-3,4.11,4.11,0,0,1,1.27-3,4.15,4.15,0,0,1,3-1.28,4.11,4.11,0,0,1,3.06,1.28,4.1,4.1,0,0,1,1.26,3,4.15,4.15,0,0,1-1.26,3" transform="translate(278.7 -23.99)"/><rect class="cls-4" x="170.9" y="127.59" width="8.64" height="7.39"/><rect class="cls-4" x="178.2" y="127.59" width="8.64" height="7.39"/><rect class="cls-4" x="185.5" y="127.59" width="8.63" height="7.39"/><rect class="cls-4" x="192.79" y="127.59" width="8.63" height="7.39"/><path class="cls-4" d="M-73.9,171.08a4.2,4.2,0,0,1-3,1.27,4.16,4.16,0,0,1-3-1.27A4.19,4.19,0,0,1-81.27,168,4.17,4.17,0,0,1-80,165a4.12,4.12,0,0,1,3-1.27,4.16,4.16,0,0,1,3,1.27,4.14,4.14,0,0,1,1.25,3,4.17,4.17,0,0,1-1.25,3.05m8.79-34.78a7.18,7.18,0,0,1,2.16-5.25,7.08,7.08,0,0,1,5.22-2.18v18.4a11.26,11.26,0,0,1-3.43,8.27A11.23,11.23,0,0,1-69.43,159H-79v-7.39h9.56a4.15,4.15,0,0,0,3.05-1.27,4.2,4.2,0,0,0,1.27-3Zm.88,34.78a4.15,4.15,0,0,1-3.07,1.27,4.17,4.17,0,0,1-3-1.27A4.16,4.16,0,0,1-71.61,168a4.13,4.13,0,0,1,1.28-3,4.13,4.13,0,0,1,3-1.27A4.11,4.11,0,0,1-64.23,165,4.15,4.15,0,0,1-63,168a4.18,4.18,0,0,1-1.26,3.05" transform="translate(278.7 -23.99)"/><path class="cls-4" d="M-25.82,155a15.06,15.06,0,0,1-9.73,4H-52.72a7.07,7.07,0,0,1,2.19-5.23,7.12,7.12,0,0,1,5.21-2.16h9.37a7.81,7.81,0,0,0,5.37-2.38,7.56,7.56,0,0,0,2.22-5.41,7.75,7.75,0,0,0-2.19-5.23,7.59,7.59,0,0,0-5.21-2.26h-.3l-.67,0h-.1a11.42,11.42,0,0,0-3.31.74,7,7,0,0,1-7.69-1.88l-1-1.17a18.9,18.9,0,0,1,11.48-5,12.19,12.19,0,0,1,1.37-.07h.47a15.19,15.19,0,0,1,10.39,4.61A14.41,14.41,0,0,1-21,143.79v3.47a4.12,4.12,0,0,0,1.28,3.05,4.12,4.12,0,0,0,3,1.27h1.47V159h-2.07a10.69,10.69,0,0,1-7.86-3.25c-.25-.24-.47-.49-.7-.73" transform="translate(278.7 -23.99)"/><rect class="cls-4" x="262.17" y="127.59" width="8.63" height="7.39"/><rect class="cls-4" x="269.45" y="127.59" width="8.63" height="7.39"/><path class="cls-4" d="M18.58,159a11.28,11.28,0,0,1-7.89-3.17,11.24,11.24,0,0,1-8,3.17H-1.95v-7.39H2.69a4.14,4.14,0,0,0,3.06-1.25A4.17,4.17,0,0,0,7,147.27V116.54a7.1,7.1,0,0,1,2.17-5.24,7.17,7.17,0,0,1,5.22-2.15v38.12a4.13,4.13,0,0,0,1.26,3.06,4.2,4.2,0,0,0,3.05,1.25h2.18V159Z" transform="translate(278.7 -23.99)"/><rect class="cls-4" x="298.25" y="127.59" width="8.62" height="7.39"/><rect class="cls-4" x="305.54" y="127.59" width="8.64" height="7.39"/><rect class="cls-4" x="312.82" y="127.59" width="8.64" height="7.39"/><rect class="cls-4" x="320.11" y="127.59" width="8.62" height="7.39"/><path class="cls-4" d="M58.27,136.3a7.39,7.39,0,0,1,7.39-7.43v18.4A11.71,11.71,0,0,1,54,159h-5.2v-7.39H54a4.35,4.35,0,0,0,4.32-4.31Zm-.47,34.78A4.31,4.31,0,1,1,51.71,165a4.31,4.31,0,1,1,6.09,6.09" transform="translate(278.7 -23.99)"/><path class="cls-4" d="M-258.23,215.94c0,8.08-6.1,11.64-12.9,11.64h-7.57V204.31h7.75c7.4,0,12.72,2.65,12.72,11.63m-5.53,0c0-5.45-2.52-7.25-7.19-7.25h-2.66V223.2H-272c5.5,0,8.26-1.29,8.26-7.26" transform="translate(278.7 -23.99)"/><path class="cls-4" d="M-254.83,218.1V204.31h5.1v13.18c0,3.66,1.15,6.36,5.32,6.36s5.1-2.94,5.1-6V204.31h5.1V218c0,7.36-4.64,10.09-10.52,10.09-7.34,0-10.1-4.53-10.1-10" transform="translate(278.7 -23.99)"/><path class="cls-4" d="M-211.64,220.75c0,4.35-3.15,6.83-8.86,6.83h-9.13V204.31h8.52c5.64,0,8.55,2.51,8.55,6.18a5.16,5.16,0,0,1-3.6,4.85,5.54,5.54,0,0,1,4.52,5.41m-12.88-12.42v5.42h2.84c2.25,0,3.94-.68,3.94-2.84,0-1.65-1.18-2.58-3.45-2.58Zm7.65,12.18c0-1.66-1.18-2.91-3.92-2.91h-3.73v5.89h3.58c3.13,0,4.07-1.37,4.07-3" transform="translate(278.7 -23.99)"/><path class="cls-4" d="M-187.29,227.3v.28h-5.43l-1.86-5.57h-8.62l-1.83,5.57h-5.35v-.28l8.37-23h6.36Zm-8.65-9.38-3-8.88-2.92,8.88Z" transform="translate(278.7 -23.99)"/><rect class="cls-4" x="94.42" y="180.31" width="5.09" height="23.27"/><path class="cls-4" d="M-140.79,204.31v23.27h-5V213.1a32.3,32.3,0,0,1-1.57,3.49l-4,8.12h-3.9l-4.1-8.12A32.45,32.45,0,0,1-161,213.1v14.48h-5V204.31h5.24l5.32,10.2a42.78,42.78,0,0,1,2,4.59,31.39,31.39,0,0,1,2-4.59l5.36-10.2Z" transform="translate(278.7 -23.99)"/><path class="cls-4" d="M-136.2,218.1V204.31h5.1v13.18c0,3.66,1.15,6.36,5.31,6.36s5.1-2.94,5.1-6V204.31h5.11V218c0,7.36-4.64,10.09-10.54,10.09-7.32,0-10.08-4.53-10.08-10" transform="translate(278.7 -23.99)"/><path class="cls-4" d="M-90.35,204.31v23.27h-5.53l-7.3-10.85a33.39,33.39,0,0,1-2.83-4.88v15.73h-5V204.31h5.49l7.93,11.92A29.38,29.38,0,0,1-95.31,220V204.31Z" transform="translate(278.7 -23.99)"/><rect class="cls-4" x="193.44" y="180.31" width="5.11" height="23.27"/><path class="cls-4" d="M-76.24,216.12c0-9.3,5.27-12.32,11.13-12.32a14.18,14.18,0,0,1,7.68,2.13l-1.89,3.76A10.29,10.29,0,0,0-64.87,208c-4.26,0-6.06,2.91-6.06,7.79,0,5.25,2.41,7.91,6.47,7.91a9.38,9.38,0,0,0,5.24-1.58l2,3.59A14.52,14.52,0,0,1-65,228.08c-8.23,0-11.27-5.16-11.27-12" transform="translate(278.7 -23.99)"/><rect class="cls-4" x="224.42" y="180.31" width="5.11" height="23.27"/><path class="cls-4" d="M-26.7,211.78c0,4.6-3.09,8-9.29,8h-2.95v7.79H-44V204.31h8.15c6.36,0,9.19,3.24,9.19,7.47m-5.24.14c0-2.41-1.54-3.53-4-3.53h-3v7.3h2.44c2.73,0,4.56-.86,4.56-3.77" transform="translate(278.7 -23.99)"/><path class="cls-4" d="M-4.72,227.3v.28h-5.42L-12,222h-8.62l-1.82,5.57h-5.37v-.28l8.38-23h6.35Zm-8.66-9.38-3-8.88-2.91,8.88Z" transform="translate(278.7 -23.99)"/><polygon class="cls-4" points="292.65 199.2 292.65 203.59 276.98 203.59 276.98 180.31 282.09 180.31 282.09 199.2 292.65 199.2"/><rect class="cls-4" x="295.69" y="180.31" width="5.11" height="23.27"/><polygon class="cls-4" points="323.63 184.66 316.38 184.66 316.38 203.59 311.29 203.59 311.29 184.66 303.84 184.66 303.84 180.32 323.63 180.32 323.63 184.66"/><polygon class="cls-4" points="346.51 180.6 338.03 193.89 338.03 203.59 332.93 203.59 332.93 194.04 324.52 180.6 324.52 180.32 330.27 180.32 335.51 189.29 340.97 180.32 346.51 180.32 346.51 180.6"/><path class="cls-4" d="M202.53,114.66,227.9,84.43,215.63,72.06a2.76,2.76,0,0,0-2.23-.84H163.14a1.77,1.77,0,0,0-1.25,3l40.64,40.44" transform="translate(278.7 -23.99)"/></g><g class="cls-5"><rect class="cls-6" x="95.59" y="39.64" width="199.66" height="228.5" transform="translate(268.01 269.14) rotate(-72.26)"/></g></g></g></g></g></svg>