<svg xmlns="http://www.w3.org/2000/svg" xmlns:xlink="http://www.w3.org/1999/xlink" viewBox="0 0 436.95 311.17"><defs><style>.cls-1{fill:none;}.cls-2{clip-path:url(#clip-path);}.cls-3{clip-path:url(#clip-path-2);}.cls-4{clip-path:url(#clip-path-3);}.cls-5{fill:#c19252;fill-rule:evenodd;}.cls-6{fill:#ea1d24;}</style><clipPath id="clip-path" transform="translate(51.15 -29.04)"><rect class="cls-1" width="358.22" height="228.03"/></clipPath><clipPath id="clip-path-2" transform="translate(51.15 -29.04)"><rect class="cls-1" x="-232.67" y="-215.36" width="799.97" height="799.97"/></clipPath><clipPath id="clip-path-3" transform="translate(51.15 -29.04)"><rect class="cls-1" x="-232.67" y="-215.36" width="799.97" height="799.97"/></clipPath></defs><g id="Layer_2" data-name="Layer 2"><g id="Layer_1-2" data-name="Layer 1"><g class="cls-2"><g class="cls-3"><g class="cls-4"><path class="cls-5" d="M234.11,137.76v-.08a34.78,34.78,0,0,0,3.65-8.85c.91-3.62.93-7.53,3-9.9a1.3,1.3,0,0,1-.08-.17,8.15,8.15,0,0,0-6.66,1.47c.43-2,2.06-3.35,2.68-5.36,1.41-4.55-.38-9.53-1.3-13.15-.06-1.38-.11-2.76-.16-4.14l-.16-.24c-1.18.09-1.46.82-2.28,1.22-.41.4-.81.81-1.22,1.22h-.08c.34-1.86,1.4-3.92,1-6.42-.75-4.44-2.25-7.65-1.94-12.65-2.53-.68-4,2.63-5.27,3.73,0-1.78.57-4,.08-5.84C224,73.8,221,70.77,220,65.29a1.3,1.3,0,0,1-.08-.17h-.24c-1.38.8-1.83,2.72-2.76,4a1.19,1.19,0,0,0-.08.16c-.06-1-.11-2.06-.17-3.08a19.13,19.13,0,0,0-1.95-6c-1.24-2.12-5.86-7.59-6.08-9.74l-.4-.08a3.32,3.32,0,0,0-2,1.87l-.24.16a41.38,41.38,0,0,0-7.54-7.87c-1.36-1-3.69-2.39-4-4.39l-.32-.07c-1.18.62-1.18,2.26-1.13,4.06h-.16c-1.51-3.69-7.77-7-11.69-8.44l-3.57-.82-.25-.16c.51-.72,1.34-1.16,1.71-2,1-2.25-1.13-4.07-3.41-3.49-3.53.92-6.11,3.35-8.76,5.19-2.57-1.91-5.3-4.25-8.77-5.19-2.33-.62-4.58,1.15-3.81,3.49.34,1.06,1.22,1.59,1.86,2.35-.52.57-1.77.47-2.6.74l-4.62,1.94a27.26,27.26,0,0,0-6.09,4.47l-2.51,3.08-.08.16c-.77-1.93.35-2.8-1.14-4.22h-.32c-2,4.07-6,6-8.77,9.42-.94,1.16-2.3,2-2.76,3.65l-.24.16a3.28,3.28,0,0,0-2.43-2.11h-.09c-2.19,6.72-8.72,10.17-8,19.72h-.17a11.16,11.16,0,0,0-2.67-4.22l-.4.08c-.09.78-.17,1.57-.25,2.35-1.13,4.12-4,7.47-5,11.77-.39,1.84.17,3.77.24,5.44-1.6-1.24-2.31-3.72-5.11-3.73-.24,1,.33,2.57.08,3.89-.51,2.76-2.35,7.52-1.86,10.55.28,1.75.73,3.29,1,4.79h-.08c-1-.79-1.82-2.28-3.41-2.43l-.16.24c0,1.35,0,2.71-.08,4.06-.79,3.59-2.47,8.39-1.14,12.74.65,2.11,2.31,3.55,2.76,5.6a7.52,7.52,0,0,0-6.49-1.38,15.94,15.94,0,0,1,1.21,1.79c1.28,3.13,1.48,7.08,2.52,10.38a34.14,34.14,0,0,0,3,6.25v.08c-1.74-.39-3.46-1.69-5.45-1.46a.8.8,0,0,1-.08.16c1.06,2.41,1.5,5.28,2.36,8a27.05,27.05,0,0,0,6.08,10.47v.08c-1-.29-3.24-1-4.22-.08-.27.15-.3.23-.4.56,1.89,2.09,2.14,6.45,3.32,9.17,2,4.46,4.87,7.82,7.47,11.53a17.94,17.94,0,0,0-5.92,9.08c-2.27,7.44-.36,18.09,4.3,21.27,5.93,4,12.22.42,11.77-7,11.11,4.43,22.05,8.28,47,8.21,24.36-.06,37.4-3.9,46.68-8.21h.41c-1.18,7.62,6.42,10.75,11.84,6.9,4.67-3.32,6.4-14.17,4.06-21.59a19.92,19.92,0,0,0-3.41-6.17,7.44,7.44,0,0,0-2.51-2.51v-.08c3.69-4,7-7.76,9.25-13.4.89-2.27,1.24-7.8,3.08-8.92,0-.16-.05-.32-.08-.49-1.21-.83-3.24-.7-4.71-.16h-.08l1.54-1.54,2-2.92c1.89-3.19,2.36-6.85,3.57-10.88.44-1.29.87-2.59,1.3-3.89a1.19,1.19,0,0,1-.08-.16c-2-.31-3.8,1.13-5.6,1.46m3.25-17.21s-1,3.49-1.14,4.3c-.66,3.53-2.8,11.72-5.35,12.91l-.57.08a2.86,2.86,0,0,1-1.14-2.11c1.8-1,3-3.61,3.49-5.85.34-1.43.09-3.43,1.38-3.89a2.85,2.85,0,0,0-2.44-.08c1.48-3,2.95-3.71,5.77-5.36m-5.52-11.77c.3-1.13.6-2.27.89-3.4a6.54,6.54,0,0,0-2,.64h-.08c.37-1.89,1.63-3.39,2.52-4.86.86.75,1.05,2.45,1.38,3.73,1.58,6.15-.36,12.14-3.73,15.09l-.33-.08c-1.08-.54-.84-2.39-1.14-3.73,3.52,0,2-4.32,2.52-7.39M227.7,83.63H228c1.08,5.22,3.21,9.84,1.54,16-.39,1.4-.61,2.48-1.79,3.07l-.32-.08c-.54-.32-.81-1.65-1.14-2.19.16-1.78,1.62-2.46,1.94-4.7.38-2.49-1.42-4.69-.4-6.9a3.46,3.46,0,0,0-2.19,1.62c-.83-2.08,1.39-5.64,2-6.81m-3.25,69.46c-.14.74-.61,1.89-1.38,2-2.5-4.84-4.76-11.93-2.84-19,1.93,1.53,3.52,4.86,4.47,7.31v.08c-.82-.52-1.3-1.23-2.6-1.3,0,3.62.84,8.7,2.35,10.87m-1.13-20.61c-1.51-3.45-3.69-8.68-2.6-14,1.86,1.47,4.49,3.37,5.27,5.84a4.57,4.57,0,0,0-3.08-.56c1.44,3,.88,9.09,4.46,9.89,0,1.14-.08,2.27-.8,2.69-2-.06-2.61-2.45-3.25-3.9m3.81-17.69-.24,2V117c-1.44-.19-2.59-1.64-3.33-2.6-1.91-2.45-5.5-8.94-5.27-13,1.54.49,3.86,3.07,4.86,4.3a2.25,2.25,0,0,1-.08.24c-.36.34-1.66.14-2.19.17l-.16.16,1.79,2.27c1.47,2.36,1.74,5.32,4.62,6.25m-3-14.37c-.09.11-.16.22-.24.33-3-.22-6.95-7.24-8.44-9.82-.52-.9-1.76-2.63-1.46-3.89,1.77.49,3.95,2.33,5.27,3.48-.71.16-1.76.23-2.43.41l-.08.16c1.67.85,2,2.59,3.08,4.06s2.55,2.24,4.21,3.16a2.84,2.84,0,0,1,.09,2.11m-5.2-31.64c.42.22,1.51,2.89,1.79,3.49,2.06,4.46,3.92,7.16,2.27,13.14l-.48.16a7.45,7.45,0,0,1-1.46-1.22c.18-1.27,1.16-2.32.81-4.13-.47-2.41-2.19-4-2.35-6.58a1.38,1.38,0,0,0-1.06,1l-.24.16c-.72-1.22.13-4.74.72-6m.49,15.57v.33h-.08c-5.09-2.87-8.61-3.72-12-8.52a5.3,5.3,0,0,1-1.38-2.6c1.43.77,4.42,2,5.52,3.09a3,3,0,0,0,.08.32,2.15,2.15,0,0,0-1.46,0,.73.73,0,0,0-.49.49c0,.11,0,.21-.08.32,2.33,1,2.84,2.52,4.63,3.65,2,1.31,3.68,1,5.27,2.92M208.31,53.44c3.28,4.11,8.88,10.84,5.84,18.09h-.24a7,7,0,0,1-1.23-4.78,8,8,0,0,0,.25-2.76c-.45-2.73-1-4.69-2.52-6.25a3.86,3.86,0,0,0-1.94-1.38l-.41.81-.89.81c-.65-1.76.53-3.45,1.14-4.54m-1.55,12.82c.06.32.11.65.16,1-.58.74-3.78-.89-4.29-1.22-3.51-2.18-5.47-6.25-8.36-9.08v-.08l.32-.08c2.09,0,6.85.59,7.95,1.54-1.1.3-3.4-.27-4.79-.08l-.16.16a2.25,2.25,0,0,1,.08.24c.68,1,2.36,1.13,3.09,2.11,1.7,2.31,1.83,5.93,6,5.52M194.19,44.75c.39-.24.63-.26.89-.64,2.67.74,9.35,7.38,9.9,10.38.22,1.21-.53,1.64-.74,2.44-.49.28-.83.15-1.53.07,1.65-3.51-2.25-4.58-3.74-6.57-1.91-2.55-.51-4.74-4.78-5.6Zm2.1,6.74,3.09,2.76.64.81c-6.49-1-10.75-4.1-14.36-8,0-.13.06-.26.08-.4l3.09.25c-.32,2.15,4.66,5.48,7.46,4.54m-7.38-8.44v.08c-2.76-1-4.73-3.65-8-4.14h-.08l-.08.16c.18,1.65,4.77,4.94,6.25,5.52l.08.16c-5.79-.19-8.55-4.6-11.19-8l.15-.49c4.79.34,10.69,3.72,12.91,6.74M174.7,31.45c.19-.5.45-.61.82-.9,1.54-.09,1.94.84,1.46,2a1.88,1.88,0,0,1-1.95.25,1.42,1.42,0,0,1-.33-1.38m-5,4.3a5,5,0,0,1,3.32-2,8.21,8.21,0,0,0,.57,3.89v.08c-1.35-.5-2.34-1.66-3.89-1.94ZM160.5,34c1.39.13,1.93.93,2.92,1.38L164,36s-3.78,2.14-4.06,2.27a10.85,10.85,0,0,0,.56-4.3m-3.57-3.25.49-.16a1.57,1.57,0,0,1,1.46,1.05c0,1.16-.4,1.33-1.14,1.71a1.52,1.52,0,0,1-1.54-1.05,1.54,1.54,0,0,1,.73-1.55M153,38l4.06-1.3h.32c.5,1.2-1.35,2.65-1.95,3.4-2.22,2.83-4.77,5.38-9.25,5.93V46c2-2.12,5.13-3,6.41-5.85v-.31c-2.31-.28-6.42,3.45-8.27,4.46h-.08c1.14-2.62,5.93-5.15,8.76-6.25m-8.68,12.49,1.3-1.38c-.39-.21-.77-.43-1.14-.65,0,0-.05-.1-.08-.15l2.76-.41c.91.45-1.46,2.68-1.87,3.08a15.74,15.74,0,0,1-9.49,5c.06-.52-.3-.86-.17-1.46.4-.56.81-1.14,1.22-1.7,3.63.57,5.11-1.17,7.47-2.28m-15.42,3.74c2.12-3.59,5.49-6.15,8.68-8.68h.24a4.2,4.2,0,0,1,.08,1.87l-.4-.34c-.3,1-.6,2.06-.89,3.09a1.84,1.84,0,0,0-.25.09l-.24-1a2.41,2.41,0,0,1-.08-.25h-.16c-1,.8-1.52,2.13-2.52,2.93-1.86,1.48-6.35,3.83-3,7a1.64,1.64,0,0,1-1.3.25c-1.49-1-.92-3.66-.16-5M126.34,69c.3-.37,2.64-.7,3.24-1.22,2.42-2.08,2.25-5.8,5.77-6.9,0-.1.05-.21.08-.32l-2.6-.57v-.08c.89-1,2.94-.68,4.3-1.21l1.63.07h.15v.08c-1.91,1-3.16,3.81-4.37,5.52a13.65,13.65,0,0,1-8,5.6l-.32-.24c0-.24.1-.49.16-.73m4.62,1.3c3-2.31,4.51-5.37,6.74-8.44,1-1.42,2.7-2.15,3.74-3.57v-.08c-.83-.74-2.73-.62-4.31-.57v-.09a24.45,24.45,0,0,0,8.69-4.94c1.62-1.31,2.28-3.85,4.7-4.3l.08-.17c-.3-.38-.59-.76-.89-1.13l-.24-.25a35.38,35.38,0,0,0,10.71-5l6.57-5.35c.38-.3,3.21,2.07,3.9,2.59,3.16,2.37,8,6.39,13.15,6.5l-.74,1a.66.66,0,0,0-.32.48c2.53.76,3.6,3.24,5.44,4.71a18.64,18.64,0,0,0,7.62,3.82v.08c-1,.42-3,.19-3.89.4,0,.14-.11.28-.16.41.79,1.35,2.55,1.87,3.49,3.09l3,4.45c2.57,3.29,6.07,5,9.66,7.32l1.87,1.37.15.32c-1.39-.28-6.18-2.47-6.32-3.73a1.79,1.79,0,0,0-.89.08l-.25.33c.59,1.3,1.19,2.6,1.78,3.89,2.54,5.11,3.77,7,8.61,9.82,2.75,1.61,8.29,2.75,8.84,6.33h-.08c-2.3-1.47-4.58-2.89-7-4.38a12.15,12.15,0,0,0-3.32-2h-.08c-.35,1.53,1,3.65,1.45,4.88a56.37,56.37,0,0,0,5.77,10.79v.08c-1-.34-2.11-1.14-3.41-.9-.54,1.3,1.35,4.36,1.79,5.6,1.19,3.47,1.72,6.42,3.4,9.17,1.48,2.42,3.89,3.92,4.79,6.82v.33h-.08c-1.88-1.42-3.05-3.52-4.79-5l-.4-.08c-1.07.62-1.21,3.64-.9,5.51l.66,5.93a47,47,0,0,0,2.75,8v.08c-1.14-.59-1.41-2-2.75-2.51-1.42,1.13-1.44,4.14-1.79,6.32-1.14,7,2.4,12.26,3.33,18H221a9.36,9.36,0,0,1-3.5-5,1.27,1.27,0,0,0-.64-.16c-2.39,2.3-5.81,11.36-5,16.88.44,2.78,1.17,4.49,1.55,7.3-1.57-.91-4.18-4.37-4.95-6.08-.82-.59-2.53-.44-3.82-.57a57,57,0,0,0-.89-9.42q-.57-5.07-1.13-10.14-1.15-10.18-2.28-20.37-1.66-19-3.32-38.06c-.75-4.57-.55-9.22-1.23-13.47-.07-1.89-.15-3.79-.23-5.69-.32-4.47.38-7.74-1.55-10.22a2.81,2.81,0,0,0-2.11-1.14c-2.61,0-2.72,3.79-2.84,6.25-1.31-.38-2.68-1.54-3.17.58a5,5,0,0,0-.56-.09,9.79,9.79,0,0,1-.82-2.6c-.85-.95-5-.79-4.45,2.52l-.33.08c-1.05-.55-1.39-2-2.19-2.84a3.3,3.3,0,0,0-3.82,1.7h-.4a17,17,0,0,1-1.55-2.1c-2.51-.65-2.52,1.36-3.73,2.43l-1,.08c-.25-.94-.16-2.51-1-2.92a4.39,4.39,0,0,0-2.51.16c-.64.89-.71,2.17-1.06,3.41a2,2,0,0,1-1.29.17c-.89-.58-.61-2.4-1.46-3a2.35,2.35,0,0,0-1.63-.24c-3.1.48-2.11,2.29-2.84,4a.87.87,0,0,1-.33.33l-1.06-.16c-.86-3.82,2.47-13.36-3.15-12.66-4.33.53-.86,9.39-2.27,13.23v.15h-.09c-.4-2.62-.81-5.24-1.21-7.86-.92-1.79-4.62-1.07-5.53.24-2.3,3.35,1.14,12.43-.4,16.39-1.36,3.49-3.71,6.7-5.6,9.74-1.08,2-2.16,4-3.24,6.09s-3,4.21-2.93,7.06c1.75,1.18,5.3,1,8.2,1l-8.28,67.28-3.73.24c-1.15,1.33-2,2.86-3.08,4.3l-1.22,1.3-.24.16h-.09c.39-1.76,1-3.47,1.38-5.6.85-5-3.19-13.34-5.27-15.58-.16-.17,0-.09-.33-.16-.66,1.69-1.56,2.56-2.18,3.89l-1.22,1.14h-.08c1.28-7.52,5.35-15.51,1.38-23.53-1.42.15-1.88,1.69-2.76,2.43h-.08c1.32-3.9,3.06-7.73,3.08-13.15,0-2.23.33-5-.81-6.09h-.25c-1.59,1-2.34,3.2-4,4.23l-.82.81h-.07c.36-3,3-4.55,4.38-6.74a27.62,27.62,0,0,0,2.68-6.08c.29-1.3.59-2.6.89-3.9.51-1.41,1.89-3.25,1.62-5-1.24-.57-2.61.56-3.57.9.7-1,1.4-2,2.11-3a59,59,0,0,0,4-9.25,10.56,10.56,0,0,0,1-3.73c-1.2.13-1.93,1-2.76,1.54l-4.3,2.59-2.92,2.11a2.77,2.77,0,0,0-.24.25c-.64-2.44,5.37-4.86,7.14-5.77,5.28-2.68,7.47-5.44,9.9-11,.56-1.27,1.14-2.54,1.7-3.81l-.4-.41-.25-.08-.49.08c-.25,1.45-4.56,3.28-6.17,3.89h-.07c.69-1.36,6.08-4.23,7.62-5.43m88,103.06c-.32.92-.64,1.84-1,2.76-3-.14-3.22-2.78-3.73-5.43a24.42,24.42,0,0,1,2.84-16.4c1.37.78,4,6.18,3.65,8.6-.56-.57-.69-1.32-1.38-1.78h-.49c-2.12,3.14-1.83,9.25.08,12.25m-80.5-14.93c-.89-.23-2.75-.46-3.08.41l-.33.24v-1a4.84,4.84,0,0,1,1.38-1.78c1.28-.38,3.78,1.25,4.87-.81-.13-2.05-2.71-1.74-4.46-1.38-.23.46-.2.85-.81,1a2.46,2.46,0,0,1-.49-2.35c.06-.08,3.23-.73,3.49-.81a2.29,2.29,0,0,0,.32-1.46c-.82-.86-2.15-.59-3.57-.74.28-.47.78-.7,1-1.29.32-1-.3-1.55-.41-2.19l.24-1.63c.51.4,2.82.55,3.41,0a.84.84,0,0,0,.41-.48c0-.22,0-.44-.08-.65-.86-.71-2-.78-3.65-.73a1.18,1.18,0,0,1-.17-.65,2.38,2.38,0,0,0,1.14-1c0-1.07-.39-1.21-.81-1.79.05-1.13.63-1.3.81-2.11-.13-.89-.27-1.79-.4-2.68h2.59c.27-.14.27-.13.41-.41a1.3,1.3,0,0,0-.25-1.21l1.14-.41c0-.24.11-.49.16-.73A1.89,1.89,0,0,0,140,131l-.48.24a1,1,0,0,0-.09,1.38v.08h-2l-.16-.16c.14-1.3,1.32-1.92,1.13-3.41,1.16-.25,3.33-.17,4-1,.28-.72-.31-1.53-.58-2a26.67,26.67,0,0,0-3.73-.24c-.11-.63.56-1.72.82-2.6a3.79,3.79,0,0,0,2.43-1.06c-.32-2.38-.54-1.66-2.43-2.35l-.24-.16c.09-.8.55-.93.72-1.46.06-1.14.11-2.27.17-3.41a2.05,2.05,0,0,0,1.37-1.54c-.05-.33-.1-.65-.16-1a2,2,0,0,0-1.3-.49l.33-2.52v-.16c.46-.09.64.1,1,.33a2.73,2.73,0,0,0,1.79-2.2c-.63-1-2.14-1.09-2.52-1.79-.38-1.08.25-3.52.49-4.62l5-.24.41.24-.49,1.87c.29,1.28,2.37,2,3.65,1.06,1-.72-.36-2.44.82-3.09a4.8,4.8,0,0,1,3.08.41c.1,1.11.21,2.21.32,3.32,1,.71,2,.25,3.08-.16.43-.71.33-2.14.41-3.08a10,10,0,0,1,2.52.32c.64.08.91-.28,1.46-.16.91.52.6,3.9,2.92,3,.55-.2.68-.53,1-1-.13-1-.52-3.37.82-3.73.92-.16,2.92.87,4.54.64.06.08.1.17.16.25.24,1.38-.61,2.12-.32,3.25.35.91,2.3,1.52,3.57.89.21-.13.18-.15.32-.33-1.15-3.05,0-2,.41-4.22,1.1-.19,2.05,1.09,3.49.65,1-.3.88-2.31.24-2.92s-2-.46-2.92-.24a26.29,26.29,0,0,1-6.82.24c-.95-.14-3-.58-3.73,0l-.4.65c-1.68,0-3.36,0-5-.09-2.81,0-5.14-.15-7.79-.4-.6-.06-.59.31-1,.4l-2.27-.24c-1.64-.31-4.71.17-5.69-1-.58.11-.92.56-1.54.32l-.24-.08c-.29-1.34.23-2.82.49-4.14l1.62-10.22c.35-1.76.5-4,1.79-4.79.68-.41,3.34-.08,4.3-.08.28,1.72,1,3.38,3.08,2.76.72-.72.67-1.29.65-2.36.62-.93,1.53-.69,3.17-.64.1,2.56,1,3,3.16,3.57.8-.56.66-2.5,1.22-3.57.26-.54,1.72-.36,2.76-.33.4,1.15-.08,2.84.24,3.9,2.4,1.18,3.68-.7,3.49-3.74a1.51,1.51,0,0,1,1.46,0c.25.29.14.58.24,1.06.36,1.66,1.23,2.19,3.25,2.19l.48-.4a7.57,7.57,0,0,0,.09-2.44,9.66,9.66,0,0,1,4.3-.49c0,1.53.51,5,2.84,4.06a5.72,5.72,0,0,0,1-3.09c-.07-.58,3.69-.74,4.78-.24.79.56.14,3.14.08,4.15a3.48,3.48,0,0,0,3.09.56l.16-.08c.19-1.3.37-2.6.56-3.9.12-.15,0,0,.17-.16a7.41,7.41,0,0,1,4.13.57c1.7,1.06-.27,3.4-.07,4.79.13.89.67,1.38.81,2.11l-.33,2.27c.5,2.59,1,6.66.41,9.49a2.62,2.62,0,0,1-1.38.41c0,.22.06.43.08.65.31.87,1.06.84,2,1,0,.77.11,1.52.16,2.27-.77.78-2.35.57-3.65.82l-.16.24c0,.36,0,.41.16.57,1.11.73,2.78-.12,4,.16.45,2.29-.63,3.77-.33,5.6s.71,3.85,1.05,5.76a25.41,25.41,0,0,1-3.4,1.06l-.25.32c.3,1.29,1.42.6,2.52.89l1.62.82c.29,1.12.79,5.81.25,7.14-.52,1.05-4.9,1.13-6.25,1.54-.17.44-.26.55-.09,1a22,22,0,0,0,2.93,0l3.65.66a3.1,3.1,0,0,1-.41,4.13c.07.8.53.93,1.14,1.14.53,2.36-.25,4.91-.56,6.65.35.77,1,.94,1.37,1.54.77,1.13.9,3.83,1,5.45-.93.29-2.4.31-3.42.72h-.15V149c.73,1,2.08.67,3.4.49.56,1.61.61,3.88-.57,4.7-.63.44-1.06.34-1.3,1.21.37.51,1.45.66,2.2.74l.16.24c-1,.41-1.94.55-2.44,1.46a1.35,1.35,0,0,1,.08.24l.58.33a2.88,2.88,0,0,0,2.1-.4c.08.48.17,1,.25,1.45v.65c-1.53-.25-4.37-.48-4.79.89l-1-.24a1.79,1.79,0,0,0-.56.57,6,6,0,0,0-3.17.08h-.16v.33c1.77.49,4.25.21,5.2-.74,2.17.32,3,1.84,5,2.52a6.65,6.65,0,0,1,.08,2.19c-2.48,0-11-.16-10.79,1.63,2,1.25,7.94.44,10.79.4l.24.57v.49l-17.94.08c.09-.35.17-.71.25-1.06-1.7-1.08-4.93-.69-6.82-.08a1.25,1.25,0,0,0-.08,1.22l-15.58.08c.08-.38.16-.76.25-1.14-.73-1-4.06-1.65-5.2-.48l-.81,1.54-5.68-.08-.08-.41c-.73-1.63-4.82-1.83-5.2.25l-4.95.08c.63-2.14-4-2.95-4.78-.08h-.41c.24-2.74.49-5.47.73-8.2l.16-.24a6.67,6.67,0,0,0,3,.4c.65-.66,1.13-1.29.49-2.19m-.73-61a4.7,4.7,0,0,1-3.24-.08c-.53-.48.19-2.51.4-3a17.92,17.92,0,0,1,4.63-6.17h.08a60.3,60.3,0,0,1-1.87,9.25m5.84-32.54.65-.41h.57c.72.89,2.44,9.08,1.22,10.39-.24.42-.69.45-1.38.41-1-1.07-1.53-8.58-1.06-10.39m8.52,8.52-.89.33c-1.78-.3-.71-9.86-.47-13.52a1.65,1.65,0,0,1,.72-.6h.72v6a20.35,20.35,0,0,1-.08,7.79m6.41-3.78c-.48,1.86.37,8.46-.81,8.57-1.28-1.11-.2-8-.16-10.14l.24-.33c1.06-.28.65,1.2.73,1.9m6.42,6.87-.49.24c-1.42-.72-.36-6.3-.24-8.2l.24-.32c.06,0,.38.23.44.23.23,2.28-.2,5.9,0,8m5.84-7.07.24-.16.33.25a22.42,22.42,0,0,1-.08,5.84l-.08.08h-.08c-.6-1.2-.36-4-.33-6m6.17-1.29h.33c.84,1.38.45,4.77.64,6.73a2.82,2.82,0,0,1-1.3.33c-.24-2.91-.78-6.49.33-7.06m5.68,2.27c.17-.36.37-.42.65-.65h.4a4.77,4.77,0,0,1-.14,5.31c-.05,0-.34.43-.62-.07-.13-1.54-.73-3.76-.29-4.59m4.87.89h.16c.55,1.11.2,3.42.08,4.14l-.48-.16c-.81-.77-.06-3.41.24-4m4.62-7.63.25-.08c1.55.39.74,4,1.3,12.25-.77,0-2.31.34-2.63-.2s-1.17-11.36,1.08-12M149,175.57l13.46.33h8.77l6.65-.16,12.66-.49,10.95-.57c1.08-.17,3-.38,3.74.08,1.1.74,1.37,3.49.89,5a9.52,9.52,0,0,1-4.14,1.14c-21.39,2.76-48.68,2.76-69.4-.06-4-.66-1.27,0-4.77-.83a4.36,4.36,0,0,1,1.3-5.52l19.89,1M115.3,162.83a2.39,2.39,0,0,0-1.38,1.63l-.16.08c-.67-3.59,2.28-5.82,3.25-8.2,2.79,2.73,6.36,20.17-.41,20.94l-1-2.6c1.54-2.5,2.46-9.75-.25-11.85m-5.52-17h-.08c.79-2.82,2.86-4.5,3.9-6.9l.24-.16c2,3.55.44,11.77-.81,14.94-.51,1.1-1,2.21-1.54,3.32l-.25.08a3.65,3.65,0,0,1-1.13-1.7c.33-1,.65-2.06,1-3.09a25.07,25.07,0,0,0,1.14-7.71,4,4,0,0,0-2.44,1.22m-1.46-18.75h-.08c.83-2.83,3.83-3.52,4.87-5.68.51.56.34,4.43.17,5.45-.57,3.26-2.5,12-5.52,12.08a3.83,3.83,0,0,1-.82-2.59c4.49-1.39,1.78-7.15,4.14-9.66a3.49,3.49,0,0,0-2.76.4m14.12-68.25,2.2-3.24c.53.94,1.11,6.44.48,7.63v.16a3,3,0,0,1-1.86-.65c-.28,3.45-4.64,7.56-2.92,10.39-.33.38-.7.53-.9,1.06a1.67,1.67,0,0,0-.32.08c-2.15-6.79.36-11,3.32-15.43M119.2,84.35c1.94-1.29,2.31-4.57,5.27-4.78L124,79a6.5,6.5,0,0,0-1.87.08c1.34-1.31,4-1.33,5-2.92.41,1.2-1.4,3-2,3.74a16,16,0,0,1-6.49,5.43l-2.76,1-1.62,1.22c0,.06-.11.11-.16.16l-.17-.16c1-2.08,3.37-1.93,5.2-3.17m-9.42-1.62c.87-4.34,3.16-7.41,4.39-11.27.59.46,1.25,4.55,1.21,5.83a1.3,1.3,0,0,1-.08.17l-.24.16a2.05,2.05,0,0,0-.89-1l-.33-.16c-.21,2.53-1.68,4.14-2.19,6.4-.41,1.8,1,3.33.73,4.47a2.43,2.43,0,0,1-1.54,1.3c-1-.88-1.44-4-1.06-5.93m-.16,19c.45-.9,1.92-1.18,2.68-1.78,1.75-1.38,2.25-5,4.46-5.76V94.1a3.23,3.23,0,0,0-2.35-.49v-.08c.63-.76,4.06-3.37,5.11-3.5-.2,4.28-6.37,12.29-9.49,13.88a1.82,1.82,0,0,1-.41-2.19m.25,13.4c1.16-1.93,1.43-4.18,3.16-5.52v-.25c-.56-.27-1.91.06-2.35-.4.89-2.08,3.16-2.8,4.46-4.47h.24c-.28,5.36-4,14.11-8,15.5l-.16-.08c-.08-.65-.17-1.3-.25-1.94,1-1,2.15-1.57,2.93-2.84m-4.22-28.41c1.3.44,2.5,4.69,2.43,6.82H108c-.64-.65-1-1.4-2.11-1.54,1,2.22-.77,4.43-.33,7.06.26,1.53,2.14,3.58,2,4.54-.13.63-.61,1.27-.81,2a.75.75,0,0,1-.73.08c-1.41-.54-1.6-2.84-2-4.46-1.11-5.22.36-10.29,1.63-14.53m-4.88,17.69h.17a10.81,10.81,0,0,1,2.51,4.79,5,5,0,0,0-2.11-.65v.09c.3.89.6,1.78.89,2.67.58,3-.91,7.83,2.61,7.87,0,1.26-.13,3.19-1,3.65l-.33.08C98.94,120,98,110,100.77,104.4M97,123.47a9.41,9.41,0,0,1,5.68,5.11v.09a3.2,3.2,0,0,0-2,0h-.15c1,1.3.93,3.07,1.62,4.87a14.36,14.36,0,0,0,3.16,4.86c-.24.82-.34,1.53-1,1.87l-.58.08c-3.84-3.61-4.93-11.24-6.65-16.88m1.38,18.34a12.56,12.56,0,0,1,6.5,5.68v.09a3.43,3.43,0,0,0-2.2.08h-.16c.92,2.38,1,3.49,2.43,5.27.55.67,2.86,2,3.09,2.6s-.49,1.5-.81,1.62c-1.56.61-3-1.81-3.66-2.59-2.37-3.06-5.24-7.49-5.19-12.75M103,159.42a10,10,0,0,1,7.3,6.25v.08c-.89-.21-2.23-1.21-3.08-.81H107c1.87,3.42,2.33,9.2,6.74,10l.9,2.67a5.92,5.92,0,0,1-2.36.49c-3.27-2.91-9.24-12.74-9.33-18.67m10.71,47.88a3,3,0,0,1-2.67-4.68,2.67,2.67,0,0,1,2.27-1.16c4,0,4.07,5.63.4,5.84m106.63,0a3,3,0,0,1-2.51-4.7,2.38,2.38,0,0,1,2-1.14c4-.05,4.36,5.84.48,5.84m6.74-7.22h-.16c-2.95-7.06-13.11-1.76-17.69,0-19.37,7.46-59.81,7.67-80.67,1.3-4-1.22-7.33-2.73-11-4.06-1.52-.54-4.07-1.36-6.17-.73s-3.14,2-4.55,3.41v.16h-.08c-.66-7,1.6-12.67,5.76-15.18a8.76,8.76,0,0,1,5-1.29c31.55,3.69,51.48,6.25,85.13,1.78-.08,1.29-.89,1.34-1.15,2.35l.09.17.49.08,1.54-1.71c0-.34-.06-.7-.08-1.05l6.57-1.05c12.58-2.42,17.2,3.83,17,15.82m4.79-42.44c.55.67-.89,4.88-1.14,5.6a40.31,40.31,0,0,1-5.19,10.06c-.95,1.22-1.89,2.44-2.84,3.65a4.4,4.4,0,0,1-2.52-.24l-.16-.16.81-2.68c3.61-1.08,4.93-3.46,6-7a19,19,0,0,1,1-3.41s-.05-.1-.08-.16a5.78,5.78,0,0,0-3.25.89h-.08c1-3.89,4.06-5,7.47-6.57m3.81-14c-1.22,4.06-2.76,7.42-5.35,10.07-.94.95-3.64,2.81-3.73-.25,3.37-2.1,4.27-3.86,5.59-8v-.08a6.19,6.19,0,0,0-2.43-.07c1-3.12,4.09-4.32,6.65-5.94.42,1.11-.44,3.37-.73,4.31M153,84.11c-.2-.59-1.22-.86-1.87-1l-.41.16c-.91,2.51-1.21,6.53-1.21,9.74,0,1.06-.5,2.79-.41,3.08a2.46,2.46,0,0,0,2.19.81c1.89-1.75,1.19-6.28,1.3-9.74.14-1,.27-2,.41-3m10-.89-1.06.65q-.33,4-.64,7.95a15,15,0,0,0-.33,4.3,5.46,5.46,0,0,0,3,.08c.4-.65,1.38-10.75,1.06-11.68a2,2,0,0,0-2-1.3m5.28.08-1.22.57a62.08,62.08,0,0,0-.9,8.93c-.06,1-.43,2.85.08,3.49a1.62,1.62,0,0,0,2.44-.17q.31-5,.65-10.06c.17-1.08.1-2.22-.49-2.68l-.56-.08m-11.53.08-1,.57-.33,12.66a4.44,4.44,0,0,0,2.68-.24c.63-.94,1.61-10.65.89-11.93a2.31,2.31,0,0,0-2.27-1.06m-10.95.41c-1.18,1.32-1.08,7.86-1.46,10.15a5.87,5.87,0,0,0,.08,2.84c.13.27.13.27.4.4.54.23,1.13-.06,1.62-.17l.49.57.65-.32c.11-1.68.21-3.35.32-5,.42-2.57,1.08-5.69.57-8a5.3,5.3,0,0,0-2.67-.4m38.06,5.6.24.81c.52.39,1.12-.2,1.38-.25,1.76-.31,3.79.74,4.55-1a3.28,3.28,0,0,1,.08-.41,8.32,8.32,0,0,0-1.71-1c-.38-1-.76-2-1.13-2.92h-2.44l-.73.16a4.93,4.93,0,0,0-.57,2.2l.57.23v.33a13.72,13.72,0,0,1-2.28.41l-.23.32c.15.94,1.15,1.19,2.27,1.14m7.14,7.14c.6-1.66-.45-1.92-.25-3.17.11-.63.67-1.4.41-2.1s-1.28-.69-2.11-.49c-.57.92-.29,2.09-.25,3.41-.81-.06-1.61-.12-2.43-.16l-.08-.17.81-.24c.77-.46.54-1.9.41-2.84a3.87,3.87,0,0,0-2.6-.16,7.24,7.24,0,0,0-.49,3.24,3,3,0,0,1-1.78-.32c.14-.34.2-.32.56-.41a6.07,6.07,0,0,0-.16-2.35,4.25,4.25,0,0,0-2.84-.33c-.35.81.41,1.34.16,2.27l-.48,1a11.65,11.65,0,0,1-3.08-.65,2,2,0,0,0-.74,1.54c1.55,3,10.54,2,14.94,2m-5.2-4.87.24.08a2.62,2.62,0,0,1,.49,1.38l-.57.16a3.44,3.44,0,0,1-.16-1.62m-3.81,1.54-.73-.4s0-.11-.08-.17a3.19,3.19,0,0,1,.73-1h.08c.29.38.1,1.13,0,1.62m-2,5.52a1.12,1.12,0,0,0-.24.81l.48.49c.62.38,1.5-.37,2.2-.49s.79.31,1.13.41l1.46-.32c.3.31.44.62,1,.72l.33-.24c.06-.37.11-.76.16-1.14a12.13,12.13,0,0,0-4.38-1.13,5.82,5.82,0,0,1-2.11.89m7,0-.16.24c.1.57.37.7.65,1.06,1.67.29,3.09-.17,4.3.4h.32c0-.48.06-1,.08-1.46-.81.09-1.14-.43-2-.57-1,.51-2,.09-3.24.33m-11.85,23.37c.42,1.17,8.12.73,9.66.41a2.18,2.18,0,0,0,.49-2.27l-1.06-.33a26.76,26.76,0,0,1,.57-10.63l2.36-.57a6,6,0,0,0,.08-2.51c-.68-1.38-5.28-.86-7.31-.81-1.14.44-3-.21-4,.32-1.18.55-.89,2.43-.89,4.14,0,2.92-.05,5.85-.08,8.76.05,1.16.11,2.33.16,3.49m1-5c.49-2.88-1-7.1,1.47-8.6h.73l.4.32c.34,1.31-.06,2.92.16,4.39.27,1.76,1,5.38-.56,6.17-1.27.51-2.42-.94-2.2-2.28m12.75-10.71c-1,1.43-.53,8.75-.16,11.2.21,1.45-.24,3.25.32,4.38.16.34.32.41.65.57a2.2,2.2,0,0,0,2-1c1-2-.2-8.38.24-11a6.13,6.13,0,0,0-.33-3.49,2.34,2.34,0,0,0-2.27-1l-.48.24m-32.22,15.74c1,.45,2.24-1.23,2.43-1.78.63-1.77.75-11.76,0-13.15-.23-.3-.66-.35-1.21-.33a8.37,8.37,0,0,0-1.3.74,53.11,53.11,0,0,0-.57,10.54c0,1,0,3.66.65,4m-5,.73c1.48-2.17,1.64-12.92.57-15.58l-.81-.16c-.52.32-1,.65-1.54,1-.47.67.14,3-.09,4.22-.46,2.49-1.13,8.28,0,10.87a3.18,3.18,0,0,0,1.87-.33m-5.52.16c1.19-.57.81-2.61,1.06-4.13.52-3.2,2-11.06-2.12-11.12-1.66,1.59-1.21,8-1.21,11.36,0,2,0,4.49,2.27,3.89m21.34-11.28c.29-.15.32-.2.41-.57v-.4a5.29,5.29,0,0,0-2.84-.57l-.41.33a1.82,1.82,0,0,0-.08,1.13,3.47,3.47,0,0,0,2.92.08m-2.35,1.63v.08c.92,1.25,3.19,1.12,5.11.73,0-.08.11-.16.16-.25.08-1-.66-1.38-1.94-1.29l-3.09.57-.24.16m-3,1a1.19,1.19,0,0,1-.08-.16l-.49-.08-1.46.4-.24.66a3.06,3.06,0,0,0,1.7.89,2.27,2.27,0,0,0,.57-1.71m1.21,4.06,4.39-.25a4.85,4.85,0,0,0,1.86.25c.17-.35.33-.7.49-1.06,0-.21,0-.21-.08-.4-.65-.85-5.45-.38-7-.49l-.16.33v1.13a1.61,1.61,0,0,0,.48.49m6.66,5,.24.16,2.11.09.25-.41c0-.14.05-.27.08-.41a2.34,2.34,0,0,0-2.11-.65l-.49.57-.08.65m-8.84,5.11a5.75,5.75,0,0,0,2.67.25,2.66,2.66,0,0,0,1.14-2.6l-.08-.16-2.68-.25-1.3.33a4.3,4.3,0,0,0,.25,2.43m-2.36-.16c1.19-.74-.34-2.27-1.3-2.35a23.06,23.06,0,0,1-2.35.49c-.14.34-.27.7-.4,1,0,.14.1.27.15.41.76.2,3,1,3.9.4m-11.93.73c.44-.44,1.35-1,.81-2-.38-.83-1.39-1-2.68-.89l-1.38.33a1.47,1.47,0,0,0,.08,1.38c.4.85,1.89,1.18,3.17,1.13m2.43-2.1a12.94,12.94,0,0,0-.08,1.61c1.4-.15,3.24.38,4.3-.32a1.71,1.71,0,0,0-.56-2l-2-.08a13.09,13.09,0,0,0-1.71.74m30.52-.41a2.33,2.33,0,0,0-.81,1.86c.69.75,3,1.32,3.81.16A2.49,2.49,0,0,0,183,127v-.15c-.67-.49-2-.28-3.16-.41m-9,2a1.87,1.87,0,0,0,0-1.3,7.53,7.53,0,0,0-3.49-.48l-.16.17a1.63,1.63,0,0,0-.41,1.86c1.08.55,3.47.9,4.06-.25m16.4.49a1.84,1.84,0,0,0,.89-1c0-.16-.06-.33-.08-.49-.37-.59-1.78-.62-2.76-.57l-.57.9c0,.19.05.37.08.56.52.36,1.61,1.06,2.44.57m-13.48.33a12.93,12.93,0,0,0,3.17,0c1.69-2.94-.86-2.13-3.41-2.28l-.33.49a2.29,2.29,0,0,0,.17,1.54l.4.25m-11.36,4.37c.42-.23.41-.51.33-1.05a6,6,0,0,1-2.43-.24c-2.21,1.15.86,1.65,2.1,1.29m19.08-1.13c-1.4.47-2,.4-1.47,2.11l.32.17c1.19.57,3.92-.16,3.25-1.79-.2-.51-1.33-.55-2.1-.49m-29.54.57-.25.08c.14,1.5,3.52,1.39,4.46.73l.73-1.05a7.09,7.09,0,0,1-2.1-.09c-.86.4-2.18,0-2.84.33m34.81.24c-.47.47-.44,1.11-.33,1.95a15,15,0,0,0,4.39,0,2.28,2.28,0,0,0,0-1.46c-.75-.49-3-.51-4.06-.49m-40.42.41a2.75,2.75,0,0,0-.73,1.7,5.88,5.88,0,0,0,3,.16.89.89,0,0,0,.56-.56V134l-.32-.25-1-.09-1.54.09m26.86.32c-.5.25-.81.24-1.13.65a3.15,3.15,0,0,0,.08,1.3c1.56-.18,3.62.16,4.54-.49a3.07,3.07,0,0,0-.73-1.21,11,11,0,0,0-2.76-.25m3,5.36a3.6,3.6,0,0,0,2.51.08,1.22,1.22,0,0,0,.65-.65c-.09-1.47-1.49-1.55-2.76-1.62a3.71,3.71,0,0,0-.4,2.19m-35.31-.4c.11-.3,0-.45-.08-.74a4.12,4.12,0,0,0-2.76-.64c-.31.27-.61.39-.8.8,0,.25.05.49.08.74.57.35.94.12,1.61,0H139c0,.19.05.38.08.56a2.09,2.09,0,0,0,1.78-.72m47.24-1.22a5.18,5.18,0,0,0-1.95-.16l-.49.24c0,.46,0,.92-.08,1.38,1.43.59,3-.05,2.52-1.46m-41.8,1.94.25-.16c-.14-.46-.28-.92-.41-1.38a3.43,3.43,0,0,0-2-.48c-.4.51-.89.77-1.05,1.54l.56.65a8.8,8.8,0,0,0,2.68-.17m7.79,1.22c.06-.1.11-.21.17-.32,0-.41.05-.82.08-1.22-.25,0-.49-.05-.73-.09l-1.7.17c-.06.43-.12.87-.17,1.3a1.19,1.19,0,0,0,.08.16,5.43,5.43,0,0,0,2.27,0m6.58-1.3a1.09,1.09,0,0,0-.32,1.14c.66.23,1.38.56,1.86-.09,0-.32,0-.64.08-1a2.23,2.23,0,0,0-1-.16l-.57.08m27.84,2.11a1.87,1.87,0,0,0,.16,1.38,12.18,12.18,0,0,0,5,.08l.16-.32a2,2,0,0,0-.08-1.22c-.53-.09-1.35.4-1.87.33a29.27,29.27,0,0,0-3.17-.41,1.88,1.88,0,0,1-.23.16m-4.79,1.55a4.3,4.3,0,0,0-2.52-.41c-.35.18-.52.17-.73.49,0,.34-.06.7-.08,1.05,1.09.31,2.71.52,3.65-.08-.11-.35-.22-.7-.32-1m-37.82,2.76a2.13,2.13,0,0,1,.16-.25,1.81,1.81,0,0,0-.16-1.3,2.35,2.35,0,0,0-1.79-.49c-.7.3-2.06.51-1.62,1.63.41.65,2.36.45,3.41.41m16.31-.49-.73.08a2.82,2.82,0,0,0-.73,1.38c.05.11.11.21.16.32a14.73,14.73,0,0,0,4,.08l.24-.32-.33-1c-.4-.62-1.55-.54-2.59-.49m-23.61,1.05-.58.08a4.93,4.93,0,0,0-1.21,2.36,18.87,18.87,0,0,0,5-.16c1.61-2.44-.9-2.4-3.24-2.28m41.87,1.87c-.81-.91-1.57-1.12-3.41-1.06l-.73.17c-.14.29-.27.59-.41.89V149l2.6.08.24,1.21,1.54-.65c.06-.35.11-.7.17-1m-21.35-.73a2,2,0,0,0-1,1.94c.91.08,2,.56,2.76.17a2,2,0,0,0,.25-1.14,1.76,1.76,0,0,0-2-1m22.81.81a7.51,7.51,0,0,1-.33,1.54v.08l1.54-.65.09-.4c-.19-.5-.27-.73-.89-.82l-.41.25m-33.92.08a1.82,1.82,0,0,0-1.06,1.87c1.38.43,3.1,1,3.73-.33-.06-1.19-1.42-1.58-2.67-1.54m16.63,1.46c-.24.46-.48.92-.73,1.38V152a12.18,12.18,0,0,0,4.55-.16l.48-1.3v-.08l-1.3-.49a6.45,6.45,0,0,1-3,.24m21.26.81c-.21.14-.11,0-.24.25a2.25,2.25,0,0,1-.08.24l.4.41c.53.09,2,.42,2.2.4l1.71-.65c.48.06.71.67,1.53.49l2-.73.82.81h.32l.81-1c-.05-.35-.11-.7-.16-1.06a9,9,0,0,1-1.87-.16c-1.35,1-5.47,0-7.47,1m-43.49,1.38c1.19.51,4.54.83,3.81-1.38a11.46,11.46,0,0,0-3-.32c-.38.24-.68.31-.89.73a1.3,1.3,0,0,0,.08,1m51.21,1.3c-.19-.43-.39-.86-.58-1.3a1.64,1.64,0,0,0-1.13-.32l-.81.81a7.25,7.25,0,0,0,.4,3,22,22,0,0,1,3.82-.56v-1.47c-.14-.07-.27-.16-.41-.24a2.1,2.1,0,0,0-1.29.08m-33.76-.16c-.4-.88-1.44-1.19-2.76-1.14-.78.4-1.23.44-1.63,1.22.06.38.11.76.17,1.14a4.57,4.57,0,0,0,3.32.08,1.85,1.85,0,0,0,.9-1.3m5,.16a2,2,0,0,0-1.22,1.7,7.88,7.88,0,0,0,4-.16,1.41,1.41,0,0,0,0-1.22c-.35-.48-1.91-.36-2.75-.32m28.24,3.08c-1.13-.13-2.55-.73-4-.48l-1.54.56-2.76-.23-.33-1a1.5,1.5,0,0,0-1.21-.32l-1.14.56c-.16.38-.32.76-.49,1.14-.49.3-.68,0-1,.49v.4c.14.25.08.19.33.32.8.63,3.14,0,4.46,0,1.94.09,8.43,1,9.66-.64,0-.25.05-.49.08-.74-.69-.34-1.33,0-2.11-.08m-21.1.41v-.41a11.56,11.56,0,0,0-2.68-.89,10.26,10.26,0,0,0-1.79,1.3c0,.19.06.38.08.56a7,7,0,0,0,4.06,0l.33-.56m-26.95-1.05-1.21.32-.57,1.14a5.32,5.32,0,0,0,3.16.32c.38-.14.39-.34.66-.57-.09-.3-.17-.59-.25-.89a3,3,0,0,0-1.79-.32m5,1.61a3.71,3.71,0,0,0,3.16.17c.5-1-1.1-1.83-2.19-1.78a3.52,3.52,0,0,0-1,1.61m12.9,1.39.65-.73c0-.22,0-.43.08-.66a5.71,5.71,0,0,0-3.57-.72,2.6,2.6,0,0,0-1.87,2.51l.08.08c1.68-.23,2.7-.68,4.63-.48m24.1.4c0,.33-.1.65-.16,1l3.65.08.16-.32.09-.49a4,4,0,0,0-3.74-.25m-40.9.25-.08-.17-2.36-.24c-.95.49-2.2,1-1.95,2.44a.65.65,0,0,1,.09.16,12.6,12.6,0,0,1,3.16-.32c.42-.65.72-1.12,1.14-1.87M163,163.32h-.16c1-.4,1.22-.41,1.78-1.22,0-.21-.1-.43-.16-.65-.44-.59-3.5-.62-4.38-.65l-1.46.65-.33,1.3.09.16c1,.59,2.69.36,4.13.33l-1.13,2,.08.17c1.78.49,4.74,1,4.22-1.55a6.1,6.1,0,0,1-2.68-.56m11.44-2.44-1.78-.08c-.77.31-1.43.17-1.79.9,0,.24.06.48.08.72a4.51,4.51,0,0,0,4.06-.64l-.57-.9m7.55.57-1.38.25c-1.79,2.63,1.68,2.17,3.41,1.62.11-.14.22-.27.32-.41,0-1.29-.93-1.54-2.35-1.46m-36.76.41a3.92,3.92,0,0,0-1,1.3v.32c1.45.41,4.8,2.11,5.35-.16.39-1.63-3-1.53-4.38-1.46m-9.58,1.79c0,.21.06.43.08.64,1.36,1.25,4.32,1,4.87-.89v-.24c-.41-.59-2-.61-3-.57-1,.37-1.49.16-2,1.06m40,.15-.57.66a2.25,2.25,0,0,1-.08.24,2.91,2.91,0,0,0,.73.89,7.38,7.38,0,0,0,2.68-.24c-.3-1.83-.62-1.3-2.76-1.55m-22.24.08-3.16.33a.88.88,0,0,0-.57.81l-.08.24c.56.41,3.19,1.7,3.89,1.55a8.59,8.59,0,0,1,1.79-.57c.22-.62.44-1.24.65-1.87a3.6,3.6,0,0,0-2.52-.49m33.52,2.2c-.28-.29-1-.28-1.54-.24-.49.3-.78.33-.81,1.13l.57.41a4.26,4.26,0,0,0,2-.17.81.81,0,0,0-.25-1.13m-65.24,21.26a7.69,7.69,0,0,0,3.32.48c.58-.53,1.09-1,1.62-1.61v-.33l-4-.41a1.74,1.74,0,0,0-.89,1.71Zm81.47,9.09a.65.65,0,0,1,.16.09c.74-.82,1.46-1.64,2.19-2.44a40.33,40.33,0,0,0-.4-7.64l-.65-.23c-3,2.8-.78,3.89-1.3,10.22m-40.33-2.35v-.41c.25-.17.48-.33.73-.48s.34-2.78.32-4.22c-.4-.6-1.07.57-1.1.49-1.93,1.3-1.46,2.25-1.74,4.53l-1.7.17c-.68.33-.94,1.21-1.38,1.78v.41l4.14.4c-1.63.76-4.9.29-6.9.25-6.16-.14-12-.36-16.72-2.6a18.88,18.88,0,0,1-.4-4.3c-3-2.14-8.14,1.18-8.85,3.49a4.53,4.53,0,0,1-3.65-1.22c-.25-1.43.3-2.7.33-4.14-3-1-8.43,1.7-8,4.06.64,1.29,3.46,1.69,5.43,1.62-.8,3.08,11.19,5.47,11-.08a1.69,1.69,0,0,0-1.22-.64.57.57,0,0,1-.08-.33,5.41,5.41,0,0,1,2.84-.16h.16c.09,1.21-.4,2.46.16,3.65,1.3,2.75,11.19,3.71,16,4.22,5.66.59,13.57-1,13.63-5.85l-.08-.16a8.15,8.15,0,0,0-2.92-.48M124,191.24a10,10,0,0,1-3-.25l-.08-.08v-.08l3-.25.09.57Zm33.67,1.62,1.14-1.46c0-.08.06-.16.08-.25a5.35,5.35,0,0,0-1.86-1.21,4.57,4.57,0,0,0-1.3,1.78,3.16,3.16,0,0,0,1.94,1.14m12.18-2.19a6.7,6.7,0,0,0-1.87,2l-.33,9,.17.08c.7-.95,1.4-1.9,2.11-2.84.53-1.35.48-6.55.16-8.2l-.24-.08m31.64,7.06c0,.13-.1.27-.15.4,5.67,1.35,10.42-2.47,10.38-7.22l-.4-.16c-1.34,3.81-5.84,5.76-9.83,7m-4.94-3.65a23.69,23.69,0,0,1-8.28,1.21c-.47-.07-1.17-1.7-1.54-1.87h-.16c-1.47,1.11-1.12,3-1.06,5.12-1.43,1.5-6.64,3.07-8.93,1.3-.74-3,2-6.23,1.63-7.39-.16-.24,0-.13-.33-.24-2.28,2.5-6.86,9.57-.16,10.88a13.06,13.06,0,0,0,4.54,0,6.09,6.09,0,0,0,4.22-3.58c.17-.4.33-.81.49-1.21l3.9-.17a32.77,32.77,0,0,0,7.06-2.19l-.66,2.19h.09a6.1,6.1,0,0,0,2.84-4.94l-.25-.17c-1.13-.41-2.53.74-3.4,1.06m-63.87,4.13a4.6,4.6,0,0,0-1.71,2.2v.07l4.39,1a3.82,3.82,0,0,0,1.21-2.35l-2.1-.25-1.79-.65" transform="translate(51.15 -29.04)"/><path class="cls-6" d="M-29.85,338.75a32,32,0,0,1-8.55,1.46c-6.74,0-12.75-3.45-12.75-11.1,0-8.12,5.82-12.26,13.2-12.26a14.85,14.85,0,0,1,7.71,2,12.21,12.21,0,0,0-.9,3.28h-.45a7.42,7.42,0,0,0-6.3-3.32c-5.34,0-8,4.92-8,10.4,0,5.67,2.8,9.05,7.67,9.05a6.77,6.77,0,0,0,3.52-.91v-7.62c.79.07,1.59.16,2.39.16s1.6-.09,2.41-.16v9" transform="translate(51.15 -29.04)"/><path class="cls-6" d="M-26.56,332.23c0-5.11,2.92-8.53,7.8-8.53s7.86,3,7.86,7.83-2.88,8.56-7.89,8.56c-4.73,0-7.77-3-7.77-7.86m4.73-.09c0,2.08.25,6.48,3,6.48,2.47-.07,3.16-4,3.16-7.61,0-3.18-.8-5.85-2.95-5.85-2.58,0-3.25,3.13-3.25,7" transform="translate(51.15 -29.04)"/><path class="cls-6" d="M-.83,335.3c1.38-3.71,2.73-7.47,3.91-11.3a10.47,10.47,0,0,0,1.28.08A10.16,10.16,0,0,0,5.59,324a1.4,1.4,0,0,1-.21.78c-.61,1.26-1.13,2.5-1.63,3.81-1.43,3.65-3,7.27-4.19,11.21a13.07,13.07,0,0,0-1.63-.17,12.68,12.68,0,0,0-1.63.17c-1.79-5.31-3.55-10.46-5.64-15.8.84.05,1.65.16,2.47.16s1.64-.11,2.46-.16l3.58,11.3" transform="translate(51.15 -29.04)"/><path class="cls-6" d="M12,331.91c-.1,3.36,1,6.06,4.44,6.06a6.15,6.15,0,0,0,3.74-1.46l.39.3-.71,1.82a8.24,8.24,0,0,1-4.57,1.46c-5.31,0-8-3.26-8-8.56,0-4.57,2.68-7.84,7.31-7.84,5,0,6.91,3.56,6.56,8.22H12m4.73-1.56c0-1.74-.2-5.19-2.12-5.19-2.31,0-2.55,3.45-2.61,5.19Z" transform="translate(51.15 -29.04)"/><path class="cls-6" d="M24.27,324c.74.05,1.48.16,2.22.16s1.46-.11,2.2-.16v4c.67-2.38,2.08-4.35,5.21-4.35a26.91,26.91,0,0,0-.16,4.44l-.28.26a3.16,3.16,0,0,0-1.64-.43,2.89,2.89,0,0,0-2.94,2.16,16.26,16.26,0,0,0-.19,3.78v5.9c-.74-.07-1.47-.17-2.2-.17s-1.48.1-2.22.17V324" transform="translate(51.15 -29.04)"/><path class="cls-6" d="M36.32,324c.71.05,1.42.16,2.15.16s1.41-.11,2.12-.16v2.41a6.54,6.54,0,0,1,4.91-2.72c4,0,5,2.65,5,6.55v9.56c-.73-.07-1.46-.17-2.21-.17s-1.47.1-2.19.17v-8.12c0-3-.38-5.24-2.63-5.24-2.78,0-2.78,3.8-2.78,5.87v7.49c-.73-.07-1.46-.17-2.2-.17s-1.47.1-2.22.17V324" transform="translate(51.15 -29.04)"/><path class="cls-6" d="M54,324c.75.05,1.47.16,2.21.16s1.47-.11,2.22-.16v2.44a5.72,5.72,0,0,1,4.68-2.75,4.21,4.21,0,0,1,4.25,3,5.84,5.84,0,0,1,4.87-3c3.72,0,5,2.22,5,5.72V339.8c-.74-.07-1.47-.17-2.2-.17s-1.47.1-2.22.17V331c0-2.17-.19-4.52-2.33-4.52s-2.65,1.47-2.65,3.48v9.88c-.74-.07-1.47-.17-2.21-.17s-1.47.1-2.2.17V331c0-2.17-.19-4.52-2.34-4.52s-2.64,2.05-2.64,3.84v9.52c-.75-.07-1.48-.17-2.22-.17s-1.46.1-2.21.17V324" transform="translate(51.15 -29.04)"/><path class="cls-6" d="M84.85,331.91c-.1,3.36,1,6.06,4.43,6.06A6.15,6.15,0,0,0,93,336.51l.37.3-.69,1.82a8.24,8.24,0,0,1-4.58,1.46c-5.31,0-8-3.26-8-8.56,0-4.57,2.68-7.84,7.32-7.84,5,0,6.91,3.56,6.55,8.22H84.85m4.72-1.56c0-1.74-.19-5.19-2.11-5.19-2.32,0-2.55,3.45-2.61,5.19Z" transform="translate(51.15 -29.04)"/><path class="cls-6" d="M96.73,324c.7.05,1.41.16,2.14.16s1.41-.11,2.11-.16v2.41a6.58,6.58,0,0,1,4.93-2.72c4,0,5,2.65,5,6.55v9.56c-.73-.07-1.47-.17-2.2-.17s-1.47.1-2.21.17v-8.12c0-3-.38-5.24-2.63-5.24-2.78,0-2.78,3.8-2.78,5.87v7.49c-.73-.07-1.47-.17-2.2-.17s-1.46.1-2.21.17V324" transform="translate(51.15 -29.04)"/><path class="cls-6" d="M119.86,335.37c0,2.24.13,3.45,3,2.7v1.27a9.68,9.68,0,0,1-3.33.75c-3.34,0-4.07-2.24-4.07-5.27v-8.74h-2.17a8,8,0,0,0,0-2.08h2.17v-3.69c1.45-.59,2.89-1.27,4.42-2V324h2.71a9,9,0,0,0,0,2.08h-2.71v9.29" transform="translate(51.15 -29.04)"/><path class="cls-6" d="M133.35,332.23c0-5.11,2.91-8.53,7.8-8.53s7.86,3,7.86,7.83-2.87,8.56-7.9,8.56c-4.72,0-7.76-3-7.76-7.86m4.73-.09c0,2.08.26,6.48,3,6.48,2.47-.07,3.17-4,3.17-7.61,0-3.18-.8-5.85-2.94-5.85-2.59,0-3.26,3.13-3.26,7" transform="translate(51.15 -29.04)"/><path class="cls-6" d="M150.36,326.08a8,8,0,0,0,0-2.08h2.36a14.76,14.76,0,0,1,1.68-5.41c1.55-2.88,3.34-4,6.61-3.4a19.48,19.48,0,0,0-.14,4.14l-.41.17a6.56,6.56,0,0,0-2.81-.91,2.62,2.62,0,0,0-1.76.41c-.19.21-.39.37-.39.7a18.92,18.92,0,0,0,1.41,4.3h3.23a7.25,7.25,0,0,0,0,2.08h-3V339.8c-.74-.07-1.48-.17-2.21-.17s-1.47.1-2.21.17V326.08h-2.36" transform="translate(51.15 -29.04)"/><path class="cls-6" d="M171.43,317.44h6.81c1.51,0,3.84-.06,5.18.65a4.88,4.88,0,0,1,2.77,4.66c0,3.2-2,5.21-5,5.86,1.76,3.13,3.75,6.14,5.66,9.17l1.26,2c-1-.07-1.94-.17-2.92-.17s-1.92.1-2.88.17l-3.8-6.84c-.48-.88-1.37-2.38-2.08-3.62h-.22V339.8c-.8-.07-1.61-.17-2.41-.17s-1.59.1-2.39.17V317.44m4.8,10.49c3.35.34,5-1.3,5-4.66a9,9,0,0,0-.16-1.62c-.52-2.71-2.92-2.44-4.86-2.44Z" transform="translate(51.15 -29.04)"/><path class="cls-6" d="M202.41,336.93c0,1.2.35,1.6,1.63,1.54v.74a7.93,7.93,0,0,1-2.87.88,3.3,3.3,0,0,1-3.16-2.37,4.73,4.73,0,0,1-4.1,2.37c-2.63,0-4.57-1.46-4.57-4.29,0-3.1,1.86-4,5.85-5a7.39,7.39,0,0,0,2.33-.84,1.64,1.64,0,0,0,.49-1.27,3.11,3.11,0,0,0-3-2.87,4.72,4.72,0,0,0-3.91,2h-.21l-.43-1.95a9,9,0,0,1,5.92-2.18c2.7,0,6.07,1.11,6.07,4.37v8.86m-4.4-5.67a12.53,12.53,0,0,0-3.17,1.41,3.24,3.24,0,0,0-1,2.7c0,1.21.39,2.6,1.75,2.6,2,0,2.38-1.92,2.45-3.55Z" transform="translate(51.15 -29.04)"/><path class="cls-6" d="M206.82,335.67a3.91,3.91,0,0,0,3.65,2.76c1.13,0,2.46-.85,2.46-2,0-3.06-7.39-1.88-7.39-7.57,0-3.31,2.6-5.18,5.51-5.18a7.67,7.67,0,0,1,4.63,1.54c-.28,1-.54,1.91-.76,2.87H214a3.37,3.37,0,0,0-3-2.73c-1.17,0-2.38.54-2.38,1.88,0,3.16,7.51,1.56,7.51,7.63,0,3-2.3,5.21-6.17,5.21a7.62,7.62,0,0,1-4.42-1.34c.2-1,.36-2.05.49-3.08h.79" transform="translate(51.15 -29.04)"/><path class="cls-6" d="M231.57,333c-.82,2.47-1.63,4.49-2.24,6.74-.51,0-1-.1-1.49-.1s-1,.08-1.54.1l9.15-22.58a7,7,0,0,0,1.21.09,7.23,7.23,0,0,0,1.22-.09l8.91,22.65c-.91-.07-1.81-.17-2.74-.17s-1.82.1-2.75.17c-.75-2.41-1.41-4.62-2.27-6.81h-7.46m6.73-2-2.85-7.6-3,7.6Z" transform="translate(51.15 -29.04)"/><path class="cls-6" d="M253.86,339.8c-.72-.07-1.46-.17-2.19-.17s-1.47.1-2.21.17V315c.74.07,1.47.16,2.21.16s1.47-.09,2.19-.16V339.8" transform="translate(51.15 -29.04)"/><path class="cls-6" d="M267.33,317.44c.79.06,1.6.17,2.4.17s1.6-.11,2.39-.17v10.21q4.28-5,8.32-10.21a16.69,16.69,0,0,0,1.72.17c.55,0,1.12-.11,1.7-.17v.26l-5.23,5.61c-1,1.07-1.93,2.21-3.06,3.42l8.61,12.61v.46c-.81-.07-1.6-.17-2.4-.17s-1.59.1-2.4.17l-7.26-10.36V339.8c-.79-.07-1.6-.17-2.39-.17s-1.61.1-2.4.17V317.44" transform="translate(51.15 -29.04)"/><path class="cls-6" d="M290.7,326.24a7.08,7.08,0,0,1,4.74-2.55,5.08,5.08,0,0,1,3.74,1.51c1.19,1.17,1.34,2.53,1.34,4.14V339.8c-.73-.07-1.47-.17-2.21-.17s-1.46.1-2.2.17v-8.12c0-3-.39-5.24-2.62-5.24-2.95,0-2.79,3.78-2.79,5.87v7.49c-.73-.07-1.47-.17-2.21-.17s-1.46.1-2.19.17V315c.73.07,1.46.16,2.19.16s1.48-.09,2.21-.16v11.21" transform="translate(51.15 -29.04)"/><path class="cls-6" d="M316.16,336.93c0,1.2.36,1.6,1.62,1.54v.74a7.87,7.87,0,0,1-2.87.88,3.32,3.32,0,0,1-3.17-2.37,4.7,4.7,0,0,1-4.08,2.37c-2.63,0-4.58-1.46-4.58-4.29,0-3.1,1.85-4,5.84-5a7.45,7.45,0,0,0,2.34-.84,1.6,1.6,0,0,0,.48-1.27,3.1,3.1,0,0,0-3-2.87,4.68,4.68,0,0,0-3.9,2h-.23l-.42-1.95a9,9,0,0,1,5.91-2.18c2.7,0,6.09,1.11,6.09,4.37v8.86m-4.42-5.67a12.85,12.85,0,0,0-3.17,1.41,3.22,3.22,0,0,0-1,2.7c0,1.21.37,2.6,1.73,2.6,2,0,2.38-1.92,2.44-3.55Z" transform="translate(51.15 -29.04)"/><path class="cls-6" d="M322.71,315.46a2.57,2.57,0,1,1-2.49,2.56,2.58,2.58,0,0,1,2.49-2.56M320.54,324c.74.05,1.46.16,2.21.16s1.47-.11,2.21-.16v15.8c-.74-.07-1.48-.17-2.21-.17s-1.47.1-2.21.17Z" transform="translate(51.15 -29.04)"/><path class="cls-6" d="M328.88,324c.73.05,1.47.16,2.21.16s1.47-.11,2.21-.16v2.44a5.74,5.74,0,0,1,4.7-2.75,4.24,4.24,0,0,1,4.25,3,5.81,5.81,0,0,1,4.86-3c3.72,0,5,2.22,5,5.72V339.8c-.73-.07-1.46-.17-2.2-.17s-1.48.1-2.21.17V331c0-2.17-.18-4.52-2.33-4.52s-2.64,1.47-2.64,3.48v9.88c-.74-.07-1.48-.17-2.22-.17s-1.47.1-2.21.17V331c0-2.17-.19-4.52-2.34-4.52s-2.64,2.05-2.64,3.84v9.52c-.74-.07-1.47-.17-2.21-.17s-1.48.1-2.21.17V324" transform="translate(51.15 -29.04)"/><path class="cls-6" d="M367.67,336.93c0,1.2.35,1.6,1.63,1.54v.74a8,8,0,0,1-2.88.88,3.32,3.32,0,0,1-3.16-2.37,4.7,4.7,0,0,1-4.1,2.37c-2.62,0-4.57-1.46-4.57-4.29,0-3.1,1.86-4,5.85-5a7.31,7.31,0,0,0,2.33-.84,1.64,1.64,0,0,0,.49-1.27,3.12,3.12,0,0,0-3-2.87,4.75,4.75,0,0,0-3.91,2h-.21l-.42-1.95a9,9,0,0,1,5.92-2.18c2.68,0,6.07,1.11,6.07,4.37v8.86m-4.41-5.67a12.85,12.85,0,0,0-3.17,1.41,3.27,3.27,0,0,0-1,2.7c0,1.21.39,2.6,1.76,2.6,1.95,0,2.37-1.92,2.44-3.55Z" transform="translate(51.15 -29.04)"/><path class="cls-6" d="M376,326.24a7.08,7.08,0,0,1,4.74-2.55,5,5,0,0,1,3.73,1.51,5.22,5.22,0,0,1,1.35,4.14V339.8c-.73-.07-1.47-.17-2.21-.17s-1.47.1-2.2.17v-8.12c0-3-.38-5.24-2.62-5.24-2.94,0-2.79,3.78-2.79,5.87v7.49c-.73-.07-1.47-.17-2.2-.17s-1.48.1-2.21.17V315c.73.07,1.47.16,2.21.16s1.47-.09,2.2-.16v11.21" transform="translate(51.15 -29.04)"/><path class="cls-6" d="M-14.36,287.91c.08,1.91-.91,3.7-2,5.36h-1.93c-7.54,0-8.53-4.82-8.61-9.67a1.8,1.8,0,0,0-1.43-.55c-7.93,0-8.31,14.4-13.65,14.4-6.71,0-8.07-11.64-8.07-15.39a14.15,14.15,0,0,1,8.76-13.48c4-1.78,8.69-1,13-1a15,15,0,0,0,6.87-1.3c-.77,3.27-10,2.79-12.88,2.79-9.15,0-13.26,5.72-13.26,12.6,0,2.78,1.6,10,6.25,10,4.19,0,6.63-14.34,14.7-14.34,3.28,0,2.52,2.71,2.52,4.44,0,4.12,3.43,5.78,7.71,5.84.6,0,1.28-.06,2-.12v.43m-9.22-24.74c-1.82-.57-3.43-2.35-5.1-3.27-1.76,1.11-3.12,2.52-4.81,3.63a22.31,22.31,0,0,1-5.33-3.38,14.62,14.62,0,0,1,5-4.37c1.83.79,3,2.33,4.72,3.32,1.83-1.05,3-2.65,4.64-3.89a37.19,37.19,0,0,1,5.34,3.65,39.28,39.28,0,0,1-4.5,4.31" transform="translate(51.15 -29.04)"/><path class="cls-6" d="M7.2,293.27H5.6a29.31,29.31,0,0,1-5.18-.56c.08,3-2.29,9-6.93,9-2.83,0-5.11-1.11-5.11-3.58,0-1.78,1-3.45,1.59-5.16a55.43,55.43,0,0,1-6.31.31c-.91,0-1.91.12-2.06-.2-.07-2.21,1.22-3.5,2.13-5.47,1.67,0,3.81-.06,5.64-.06,5.64,0,5.41-2.34,8.76-5.36h.68c.32,4.8,3.58,5.42,8.39,5.42.76,0,2.36-.12,2.36.43-.07,1.92-1.75,3.45-2.36,5.24m-12.57-1.48a5.11,5.11,0,0,0-1,2.65c.54.62.68,1.78,1.83,1.78a1.92,1.92,0,0,0,2.05-1.91,3.07,3.07,0,0,0-2.66-2.52Z" transform="translate(51.15 -29.04)"/><path class="cls-6" d="M31.65,293.27H29.74c-3.27,0-7.76-1-9.21-3.64-.3-.49-.84-2.09-1.67-2.09-.39,0-.92,1-1,1.17C16,292,11.17,293.27,7,293.27H5c.07-2.16,1.45-4.06,2.21-5.68.91,0,1.6-.18,2.2-.18a14.18,14.18,0,0,0,12.2-6.83c1.76.18,1.52,6.9,8.75,6.9.38,0,.77.11,1.3.11,1.3,0,2.06-.18,2,.44-.47,1.48-.61,3.94-2,5.24m-7.54,14.58c-1.67-.93-2.74-2.4-4.27-3.51-1.9.43-3.73,3.45-5.56,3.45-.54,0-3.88-3.39-3.88-3.7,0-.85,4.26-3.63,5.41-3.87.83,1.24,2.51,2,3.34,3.2h.47c1.3-1.36,3-2.27,4.49-3.51,2.2.37,3.11,2.71,4.87,3.76a16.12,16.12,0,0,1-4.87,4.18" transform="translate(51.15 -29.04)"/><path class="cls-6" d="M63.65,285.63c-13.56,1.67-12.34,8.12-32,7.64-1.68-.07-2.58-.13-2.58-.13a35.42,35.42,0,0,1,2.58-5.54c7.55,0,15.69.24,22-3.2A33.71,33.71,0,0,0,43.39,283c2.12-6.16,6.09-10.53,13.63-12.7,1.14-.3,4.11-.73,4.11-2,0-3.89-1.51-6.78-2.65-10.41-2.76,3.27-.7,7.82-3.45,11.13l-.36-.3a34.14,34.14,0,0,1,6.46-19.27l.68.5c1.3,4.25,3,8.55,3,12.93,0,12.37-9.83,9.84-15.54,14.71,4.43,1.16,9,2.34,13.72,2.34a26.57,26.57,0,0,0,5.79-.68c.15,1-4.19,5.42-5.18,6.4M42.17,271.34c-1.53-1.41-3.21-2.58-4.65-4,1.15-1.6,3.27-2.83,4.95-4.06A21,21,0,0,1,47.12,267a14.44,14.44,0,0,1-4.95,4.3" transform="translate(51.15 -29.04)"/><path class="cls-6" d="M83.53,271.16c0,3.32-.07,8.69-1.76,11.64h-.52l.06-2c.16-5.12-1-10.18-1-15.27,0-4.12.76-8.37,3.43-12,4.95,3.21,8.83,17.67,8.83,22.73,0,9.84-5,18.83-18.66,18.83-1.45,0-2.89-.13-4.26-.25,1.44-1.28,4.2-1.35,6-2.27,6.4-3.27,14.1-7.64,14.1-14.54,0-5.53-4.27-10.57-6.55-15.63-.54,2.89.3,5.86.3,8.74" transform="translate(51.15 -29.04)"/><path class="cls-6" d="M147.3,293.07c-.92,7.34-8,14.84-17.84,14.84-9.6,0-15.08-6.09-15.08-13.41,0-17.67,16.91-14.42,25.9-24.32v1.23c0,6.46-22.77,6.83-22.77,21.3,0,5.78,6.77,9.3,13.33,9.3,4.11,0,12.33-2.53,12.33-6.47a11.5,11.5,0,0,0-3.57-7.94,16.07,16.07,0,0,1,4.18-4.8c1.31,2.95,5,4.8,8.69,4.8h1.91l-1.91,5.67a49.48,49.48,0,0,1-5.17-.2" transform="translate(51.15 -29.04)"/><path class="cls-6" d="M162.08,293c-1,0-2,.24-3.05.24a2.71,2.71,0,0,1-1.68-.55,21.3,21.3,0,0,1-4.8.55c-1,0-1.91.07-2.9.07a14.2,14.2,0,0,1,2.82-5.67c1.15,0,2.29.07,3.36.07,6.16,0,4.49-4.49,6.62-5.49a1.16,1.16,0,0,1,.23.68,27.12,27.12,0,0,1-.83,4.31,3.15,3.15,0,0,0,1.36.24c3.74,0,4-4.06,5.94-5.9.39-.13.7.25.84.49-.22,3.57-3.49,11-7.91,11" transform="translate(51.15 -29.04)"/><path class="cls-6" d="M178.76,250.24H178l-.07-.25c0-1,6.69-2.59,8.69-4.07a2.78,2.78,0,0,0-1.52-.43c-1.23,0-2.29.43-3.52.43a1.9,1.9,0,0,1-2.13-1.72c0-2.21,2.44-4.8,4.51-6.15,1.14-.8,3.57-1.24,5-1.66l.32.36c-1.36,4.63-5.65,2.84-6.47,5a2.69,2.69,0,0,0,1.59.38c1,0,2-.25,3-.25.6,0,2.06.37,2.06,1,0,4.31-5.8,7.51-10.66,7.39" transform="translate(51.15 -29.04)"/><path class="cls-6" d="M183.4,271.16c0,3.32-.07,8.69-1.75,11.64h-.53l.07-2c.15-5.12-1-10.18-1-15.27,0-4.12.76-8.37,3.41-12,5,3.21,8.85,17.67,8.85,22.73,0,9.84-4.95,18.83-18.66,18.83-1.46,0-2.9-.13-4.28-.25,1.45-1.28,4.2-1.35,6-2.27,6.39-3.27,14.08-7.64,14.08-14.54,0-5.53-4.26-10.57-6.55-15.63-.52,2.89.31,5.86.31,8.74" transform="translate(51.15 -29.04)"/><path class="cls-6" d="M219.28,283.18a3.67,3.67,0,0,0-2.06-.63c-.15,0-1.29.37-1.6.43-6,7.33-7.76,18.48-21.4,18.48a35.51,35.51,0,0,1-11.5-1.49c10.82-2,20.48-4.43,26.58-12.49,2.28-3.08,4.81-10.9,10.21-10.9.46,0,1.83.43,1.83.92,0,2-1.31,3.77-2.06,5.68" transform="translate(51.15 -29.04)"/><path class="cls-6" d="M281.22,287.91c.08,1.91-.93,3.7-2,5.36h-1.89c-7.55,0-8.54-4.82-8.62-9.67a1.82,1.82,0,0,0-1.45-.55c-7.91,0-8.29,14.4-13.63,14.4-6.71,0-8.08-11.64-8.08-15.39a14.16,14.16,0,0,1,8.77-13.48c3.95-1.78,8.69-1,13-1a14.87,14.87,0,0,0,6.85-1.3c-.75,3.27-10,2.79-12.87,2.79-9.14,0-13.25,5.72-13.25,12.6,0,2.78,1.6,10,6.25,10,4.19,0,6.61-14.34,14.69-14.34,3.29,0,2.53,2.71,2.53,4.44,0,4.12,3.42,5.78,7.68,5.84.61,0,1.29-.06,2-.12v.43M272,263.17c-1.83-.57-3.43-2.35-5.11-3.27-1.75,1.11-3.12,2.52-4.8,3.63a22.05,22.05,0,0,1-5.32-3.38,14.46,14.46,0,0,1,5-4.37c1.82.79,3,2.33,4.72,3.32,1.82-1.05,3.05-2.65,4.65-3.89a36.53,36.53,0,0,1,5.33,3.65,38.37,38.37,0,0,1-4.49,4.31" transform="translate(51.15 -29.04)"/><path class="cls-6" d="M299.42,287.54c-3.28.55-7.45.62-10.28,2.15-3.35,1.92-6.25,3.76-10.51,3.58l-1.23-.07a27,27,0,0,1,1.83-5.6,52.39,52.39,0,0,0,5.49-.3c6-.68,2.44-4.31,5.4-6.78a14.43,14.43,0,0,0,6,1.24,15.69,15.69,0,0,0,5.12-.88,23.19,23.19,0,0,1-1.84,6.66" transform="translate(51.15 -29.04)"/><path class="cls-6" d="M328.14,293.27h-1.75a8,8,0,0,1-5.63-1.85c-2.52,5.47-7.4,10.09-15.18,10.09a19.56,19.56,0,0,1-9.36-2.33v-.31l1.76.06c7.07.12,14.85-1.85,19.11-6.7a14.07,14.07,0,0,0,1.67-2.28c0-.32.17-1.49-.44-1.49-1,0-2.37.86-4.05.86a2,2,0,0,1-2.13-2.15c0-1.79,4.2-7.26,6.71-7.26,2.73,0,3.88,3.26,3.88,5,0,2.34,2.82,2.7,5.41,2.7.84,0,2.14-.11,2.21.5a13.6,13.6,0,0,1-2.21,5.18" transform="translate(51.15 -29.04)"/><path class="cls-6" d="M350.24,269.61l-.31-.29c1.07-4.55,3.2-9,4.81-13.43-4.59,1.85-8.16,5.73-13.11,7.46.67,4.61-2.52,21.67,4.72,24.06a15.31,15.31,0,0,0,3.2.19c.38,0,.91-.06,1.37-.06l-1.37,5.73h-2.9c-3.81,0-6.23-3.2-7.68-5.6-2.29,2.64-4.59,5.6-9.07,5.6-1,0-2.6.18-3.29-.37a24.76,24.76,0,0,1,1.53-5.3h2.43a11.22,11.22,0,0,0,7.78-2.65c-.08-3.19.15-6.4.15-9.6a28.94,28.94,0,0,0-.68-7.21c.68-1.41,1.67-2.76,2.51-4.13-3.8.76-7.62,1.92-11.57,1.92a25.13,25.13,0,0,1-3.67-.31c.08-.73.85-.85,1.52-1,7.4-1.09,28.13-10.09,31.55-15.45l.46,1c-3.28,6.28-4.5,13.24-8.38,19.38" transform="translate(51.15 -29.04)"/><path class="cls-6" d="M355.65,292.53c-.31,2.58-1.92,4.92-2.45,7.51l-1.06-.56a63,63,0,0,1,1.21-6.41c-2.05.25-4.11.2-6.16.25l-.31-.36a33,33,0,0,1,2.67-5.36l1.07.07a15.59,15.59,0,0,0,5-.63c1.28-3.81,5.94-12.8,11.81-12.8,6.08,0,8.21,5.67,15.23,4.49a2.47,2.47,0,0,1,.23,1c0,1-2.07,3.88-3.05,4.49-9.15.38-15.39,7-24.22,8.32M366,280.34c-3.57,0-6.47,3.7-7.31,6.15,4-1.05,8.67-2.39,12-4.55a7,7,0,0,0-4.72-1.6" transform="translate(51.15 -29.04)"/></g></g></g></g></g></svg>