<svg xmlns="http://www.w3.org/2000/svg" viewBox="0 0 136.47 192.19"><defs><style>.cls-1{fill:#fff;}.cls-2{fill:#ef3640;}.cls-3{fill:#010101;}</style></defs><g id="Layer_2" data-name="Layer 2"><g id="Layer_1-2" data-name="Layer 1"><path class="cls-1" d="M136.38,95.77c.34-36.17-7.6-56.41-14.49-66.36,2.35-3.1,3.8-5,3.9-5.1a7,7,0,0,1,4.34-2.14,78.51,78.51,0,0,1,2.46-10.43,59.43,59.43,0,0,1-9.21,5.36,6.46,6.46,0,0,1-.89,4.74c-.09.13-1.2,1.6-3,4a42.93,42.93,0,0,0-11.68-9.7c-1.23-.7-2.55-1.38-4-2A6.75,6.75,0,0,0,102,9.07a3.71,3.71,0,0,0-2.14-2.95h0A4.66,4.66,0,0,0,96,7.18,8.61,8.61,0,0,0,90.84,10a97.2,97.2,0,0,0-14.51-1.9A8.48,8.48,0,0,0,71.81,2.4,4.74,4.74,0,0,0,68.27,0h0a4.74,4.74,0,0,0-3.54,2.4,8.5,8.5,0,0,0-4.52,5.68A97.2,97.2,0,0,0,45.68,10a8.61,8.61,0,0,0-5.15-2.8,4.61,4.61,0,0,0-3.82-1.06h0a3.7,3.7,0,0,0-2.14,3,6.76,6.76,0,0,0-1.86,5.08c-1.42.64-2.74,1.32-4,2a37.62,37.62,0,0,0-11.45,9.57l-2.75-3.65a6.47,6.47,0,0,1-.89-4.75A58.69,58.69,0,0,1,4.43,12,77.76,77.76,0,0,1,6.9,22.42a7,7,0,0,1,4.34,2.13c.1.09,1.37,1.76,3.45,4.51C7.77,38.93-.29,59.35.05,95.75c0,3.37-1.41,34.9,8.87,56.15a50.47,50.47,0,0,0,9.86,13.15,37.63,37.63,0,0,0,16.39,9.12l.75.2c7.73,2.1,14.38.9,17-.65l-.39,1c-.1.25-.26.64-.34.86-1.44,3.9-.47,8,4.81,8.56a13.76,13.76,0,0,1,4.77,1.07,14.79,14.79,0,0,1,4.29,3.2,19.93,19.93,0,0,1,2.7,3.81h0a19.5,19.5,0,0,1,2.7-3.81,14.9,14.9,0,0,1,4.28-3.2,13.86,13.86,0,0,1,4.78-1.07c5.29-.6,6.27-4.65,4.82-8.55-.08-.22-.25-.63-.35-.89s-.39-.94-.39-.94c3.66,2.13,14.92,3.77,25.73-3.09,7.39-4.69,12.81-10,17.15-18.56,10.27-21.26,8.9-53.41,8.85-56.3M88.65,66.6a1.89,1.89,0,0,1-.75.71,3,3,0,0,1-1.76.42,2,2,0,0,1-1.71-.87,30.86,30.86,0,0,1-3.28-6.47c-1.12-2.67-.93-2.23-2.58-6.26a37.53,37.53,0,0,0-3-6,14.62,14.62,0,0,0-4.26-3.6,12.38,12.38,0,0,0-3.84-.82,23.39,23.39,0,0,0-6.34.52A6.49,6.49,0,0,0,58,45.88a3,3,0,0,1-1,.82,11.13,11.13,0,0,0-2.87,1.58c-2.38,1.74-2,4.46-.77,5.51l.07,0c0-.7,0-1.31.15-1.28a5,5,0,0,0,3.11.58c1.32-.18,2.16,1.82,2.16,1.82l.21-.58a5,5,0,0,0,.78,1.54,2.17,2.17,0,0,0,.2-.29c.39.49,1,.82,1.09,1.64a3.18,3.18,0,0,1-1.26,2.28c-.36.32-2.45,2-4.67,4.32C54.06,65,53.47,65.74,52.31,67a2.74,2.74,0,0,1-1.75,1.09H50.3a2,2,0,0,1-1.47-.66c-.23-.29-11.53-15.23-16.94-22.38C41.7,35.48,58,33.9,62,34.2c.95.07,2,.82.83,2.38.88.4,4.17.1,5.41-1.06,1.24,1.16,4.53,1.46,5.41,1.06-1.2-1.56-.12-2.31.83-2.38,4-.3,19.48.43,30.28,11.09-5.28,7-12.34,15.81-16.13,21.31"/><path class="cls-2" d="M134.2,85.87c-3,2.44-5.89,4.91-15.3,10.32l-2.46,1.33,0-1.76c0-.2.67-24.09-10.93-44.68-.74,1-3.19,4.08-5.69,7.27a5.15,5.15,0,0,1,4.34,1.55,45.13,45.13,0,0,1,8.6,13.91,37,37,0,0,1,1.94,13h0s-1.4,24.33-4.19,47.64c-2.52,21.17-3.91,23.95-3.91,23.95a15.26,15.26,0,0,1-2.68-5.85l-.23.2a18.6,18.6,0,0,1-2.36-6.28c-1-4.75-1.18-13.24-1.08-17.34v0a7.33,7.33,0,0,0-.93-3.25,14.48,14.48,0,0,1-1.08-3,.43.43,0,0,1,0,0c-1.53-6.5-4.5-8.34-6.15-10.36a30.09,30.09,0,0,1-4.29-7.06,1.83,1.83,0,0,0-.16.13,6,6,0,0,0-1.94,2.68c.38,3.81.72,6.51.16,8.45a7.39,7.39,0,0,1-.8-.66c.25,2.53-.93,5.43-.18,7.74l-1.48-.19a2.45,2.45,0,0,0,.15.36,2.1,2.1,0,0,0,.76.64l.49.23c.13.06.5.21,1.53.55a4.51,4.51,0,0,0-.66-4.75c-.7-.86.15-2.11,1.62-1.47a20.87,20.87,0,0,1,6.12,4.1c3.1,2.94,4,5.79,3.35,6.35-.5.44-.89.35-1.5.14a1.2,1.2,0,0,1-.06.32,1.8,1.8,0,0,1-1.33,1.16l-.07.11c-.32.47-.87.64-1.8.62a4.67,4.67,0,0,1-1.82-.55,2.25,2.25,0,0,1-.62-.44l-.55.44c2.46,3.32,7.17,8.78,10.54,14.78a46.29,46.29,0,0,1,3.52,7.87,6.11,6.11,0,0,1-3,0,10.81,10.81,0,0,1,.79,4.38,8.82,8.82,0,0,1-4.77-1.11c.05.28.1.55.14.84,1.51,1.09,3.2,2.33,4,2.85-7.38,3.46-18.07,1.88-18.28,1.85l-1.38-.2c-.06.19-.16.43-.26.67.72,1.72,2.4,5.7,2.78,6.49,4.68,2.15,9,3.56,15.76,2.44a21.55,21.55,0,0,0,4-1.07c2.94-1,8.45-4.22,12.67-8.19A49.24,49.24,0,0,0,125,150.89c8.17-15.95,9.51-39.61,9.51-49.17,0-3.13,0-4.82,0-5-.05-3.22-.23-8.47-.35-10.89"/><path class="cls-2" d="M54.61,169.7c.32-.88,1.8-4.41,2.55-6.2-.1-.31-.21-.62-.29-.94-1,.18-2,.33-3.07.43-.68.07-10.85,1.63-18.22-1.83.9-.63,2.58-2,4.86-3.48,0-.15.05-.31.08-.46a8.82,8.82,0,0,1-4.77,1.11,11,11,0,0,1,.79-4.38,6.19,6.19,0,0,1-3,0,45.9,45.9,0,0,1,3.52-7.87,88.34,88.34,0,0,1,8.07-11.41,6.11,6.11,0,0,1,1.43-2.56c.06-.07.39-.41.44-.48q-.45-.4-.87-.72a2.37,2.37,0,0,1-.72.56,5,5,0,0,1-1.82.55c-.94,0-1.48-.15-1.81-.62l-.06-.11a1.81,1.81,0,0,1-1.34-1.15,1.1,1.1,0,0,1,0-.35,1.17,1.17,0,0,1-1.34-.19c-.66-.56.24-3.4,3.35-6.35a20.87,20.87,0,0,1,6.12-4.1c1.47-.64,2.33.61,1.62,1.47a4.49,4.49,0,0,0-.65,4.75c.89-.29,1.24-.44,1.37-.49a2.42,2.42,0,0,0,1.23-.86,2.55,2.55,0,0,0,.15-.32l-1.3.15c.66-1.63-.36-5.62.31-8.21a4.16,4.16,0,0,1-.89.51,31.79,31.79,0,0,1-.21-7.9A5.43,5.43,0,0,0,48.5,106a25.46,25.46,0,0,1-4.12,6.75c-1.64,2-4.61,3.85-6.14,10.36a.08.08,0,0,1,0,0,14.48,14.48,0,0,1-1.08,3,7.56,7.56,0,0,0-.93,3.26v0c.11,4.09-.07,12.59-1.07,17.33A18.58,18.58,0,0,1,32.76,153l-.23-.2a15.33,15.33,0,0,1-2.67,5.84s-1.39-2.77-3.92-24C23.16,111.35,21.76,87,21.76,87h0a36.92,36.92,0,0,1,1.95-13,44.7,44.7,0,0,1,8.6-13.91,5.13,5.13,0,0,1,4.78-1.49c-.45-.61-1-1.28-1-1.28-1.6-2.12-3.45-4.46-5-6.55C19.72,70.84,20,94.76,20,95v2.55l-2-1.06c-9-5.08-12.84-8.15-15.76-10.57-.12,2.43-.37,10.67-.37,10.67s0,1.87,0,5c0,9.56,1.72,33,9.51,49.17a47.84,47.84,0,0,0,9.28,12.34,35.84,35.84,0,0,0,13.82,8.1l1.2.39a24.64,24.64,0,0,0,18.83-1.69Z"/><path class="cls-2" d="M59.45,175.76A102.53,102.53,0,0,1,60.65,165a6.45,6.45,0,0,1-1.77,1.33c-.13,0-.3-.15-.48-.39-1.79,4.36-4.28,10.48-4.3,10.54a5,5,0,0,1,5.35-.76"/><path class="cls-2" d="M76.75,178.59c.14-3-1.06-10.93-1.8-15.46-.08-.12-.17-.24-.24-.37s-.29-.41-.44-.63a18.18,18.18,0,0,1-1,2.82,7,7,0,0,1-1.46,2.27,10.62,10.62,0,0,1-3.64-4.49,10.46,10.46,0,0,1-3.6,4.41,7,7,0,0,1-1.47-2.27c-.23-.5-.42-1-.6-1.51-.7,4.76-1.75,12.4-1.62,15.23-4.42-2.93-7.1,0-6.19,2a4.38,4.38,0,0,0,.3.48,2.85,2.85,0,0,0,2.2,1.16,14.39,14.39,0,0,1,5.44,1.24,17.49,17.49,0,0,1,6.2,5.11A17.49,17.49,0,0,1,75,183.5a14.39,14.39,0,0,1,5.45-1.24,3,3,0,0,0,2.19-1.16,1.92,1.92,0,0,0,.29-.48c.92-2-1.76-5-6.19-2"/><path class="cls-2" d="M78.33,166.37a5.85,5.85,0,0,1-1.48-1.06,84.11,84.11,0,0,1,1.32,10.45,5,5,0,0,1,5.35.76c0-.06-2.69-6.93-4.32-11.1a3.41,3.41,0,0,1-.87,1"/><path class="cls-3" d="M61.55,78.05h0"/><path class="cls-3" d="M59.1,79.1h0"/><path class="cls-3" d="M99.05,90.83a4.46,4.46,0,0,1-2.29,3.25C96,91.73,95.59,89.86,98.9,83c-2.28,6.77-1.29,9-1.29,9a3.69,3.69,0,0,0,1.44-1.15M95.41,86.1s-.8-1.52,1.23-7.41c-3.71,5.6-2.08,9.51-2.08,9.51A5,5,0,0,0,97,85.12a3.34,3.34,0,0,1-1.59,1m13.29-10c-.6,5.93-1.09,7.15-1.72,8.18a4.21,4.21,0,0,1-1-1.57,4.33,4.33,0,0,0,1,3.59c1.23-1.55,2.11-4.84,1.69-10.2m-1.17-4c-.94,6.64-2,8.16-2.73,9.29a5.68,5.68,0,0,1-1-2,4.86,4.86,0,0,0,.94,4.07c1.45-1.68,3-5.28,2.82-11.32m-5,6.43a10.07,10.07,0,0,1-.48-3.6c-.89,2.59-.62,4.73.3,5.82,1.54-1.58,3.75-6.53,3.46-11.12-.91,5.5-2.47,7.82-3.28,8.9m-2.38-3.79a18.61,18.61,0,0,1-.21-4.66c-1.14,2.5-1,5.91-.18,7.07,1.68-1.45,4-5.73,4.16-10.33-1.44,5.41-2.87,6.92-3.77,7.92M108.24,86a2.78,2.78,0,0,0,1.11,2.24s1.94-2.77,1.18-7.57c-.4,4.48-1.39,6-1.39,6s-.77-.36-.9-.69M110.5,88a2.47,2.47,0,0,0,1,1.94,9.57,9.57,0,0,0,.78-6.7c-.2,4-1.14,5.41-1.14,5.41s-.57-.37-.69-.65m-81-3.57c-.63-1-1.11-2.25-1.71-8.19-.42,5.37.45,8.66,1.69,10.2a4.32,4.32,0,0,0,1-3.59,4.16,4.16,0,0,1-1,1.58m2.19-2.87C31,80.47,29.9,79,29,72.31c-.22,6,1.38,9.64,2.82,11.32a4.85,4.85,0,0,0,.95-4.07,5.68,5.68,0,0,1-1,2M34,78.74c-.8-1.08-2.37-3.4-3.27-8.9-.29,4.59,1.92,9.54,3.46,11.12.92-1.08,1.19-3.23.29-5.81A9.76,9.76,0,0,1,34,78.74M36.33,75c-.9-1-2.32-2.52-3.77-7.93.16,4.61,2.48,8.89,4.17,10.34.81-1.16,1-4.58-.19-7.08A18.18,18.18,0,0,1,36.33,75m-9,11.91s-1-1.54-1.4-6c-.75,4.8,1.18,7.56,1.18,7.56a2.78,2.78,0,0,0,1.11-2.24c-.12.33-.89.69-.89.69m-2.06,2s-.94-1.46-1.13-5.42a9.48,9.48,0,0,0,.78,6.7,2.47,2.47,0,0,0,1-1.94c-.12.29-.7.66-.7.66m13.58,3.28A3.61,3.61,0,0,1,37.43,91a4.45,4.45,0,0,0,2.29,3.24c.73-2.35,1.18-4.21-2.14-11.12,2.28,6.78,1.29,9,1.29,9m2.21-5.87a3.36,3.36,0,0,1-1.6-1,5,5,0,0,0,2.45,3.08s1.63-3.9-2.09-9.5c2,5.89,1.24,7.41,1.24,7.41m16.67,28.6c.37-3.06-1.29-5.71-1.56-7a2.84,2.84,0,0,0-.35,1.38c-1.1-1.16-1.37-3.22-1.6-3.92A18.64,18.64,0,0,1,53,109.54a2.7,2.7,0,0,0,1.34-.48c.55,2.54,2.66,3.1,3.42,5.84M80,109.51a2.73,2.73,0,0,0-.35-1.38c-.26,1.25-1.92,3.89-1.55,7,.75-2.73,2.87-3.3,3.41-5.84a3,3,0,0,0,1.34.49,19,19,0,0,1-1.25-4.15c-.23.71-.5,2.76-1.6,3.92m-16.44-3c-.31-1-.87-4.5-2.19-6-.53,2.52,1.11,4.93,2.19,6m8.39,3.36a13.06,13.06,0,0,0,1.81-7.36c-1.36,1.36-1.94,5.63-1.81,7.36m-2.67,1.76c.69-1.83.65-4.12-.12-5.1a6.5,6.5,0,0,0,.12,5.1m-2-5.47c.69-2.1.53-4.64-.37-5.75a7.38,7.38,0,0,0,.37,5.75M81.8,87.48c-1.26,1.71-1.62,5.56-2,6.85.46-.4,2.77-5.88,2-6.85m.11-6.21c0-.06,2.1-3.69.9-5.71-1.38.31-.87,5.74-.9,5.71m-6.06,8.91S79.13,87,79,83.08a7,7,0,0,1-3.18,3.76A5,5,0,0,1,74,84.35c-.43,4,1.84,5.85,1.81,5.83m6.45-4.51c.88-1.39,2.1-3.4,1.1-4.7a37.65,37.65,0,0,0-1.1,4.7M72.08,101.14c.57-1.32,2-3.77,1.72-6.62-1.25,1.08-1.84,4.93-1.72,6.62m4.73-4.21c1.94-2.39,3-5.16,2.12-8-1.73,2.71-1.78,5.46-2.12,8m-4.23-8.4a9.84,9.84,0,0,1-2.8,4.6,8.8,8.8,0,0,1-2-2.85A6,6,0,0,0,70.29,96a9.49,9.49,0,0,0,2.29-7.48M64.09,96.6a10,10,0,0,1-2.91-3,13.46,13.46,0,0,0,3.94,6.06c.39-.65,1.83-3.51.57-8.06a16.23,16.23,0,0,1-1.6,5M52.62,74.92c-.24-1.57,1.71-3,1-5.55a5,5,0,0,0-1,5.55m3.94,18.69a16.11,16.11,0,0,0,2.82,3.57c-1.36-2.08-2.46-5.91-3.81-7a7,7,0,0,0,1,3.38m-1-8.57c-.76,3.19,2.44,6.27,2.46,6.32A10,10,0,0,0,55.61,85m2.26-6a21,21,0,0,1-.34,4.09,4.7,4.7,0,0,1-2-1.4c.54,1.81,2.78,3.9,3.14,4.43.32-2.46.41-5.46-.8-7.12m-1.4-8.28c.89-3.2,2.69-5,3.31-6.89-3.21,2.27-3.88,5.77-3.31,6.89M53.71,84.81c-.43-2.72-.25-4.54-1.58-6.94-.43,2.87,1.29,6.51,1.58,6.94m8-10.59c-2.16,2.69,1.16,6,1.15,6.09s.27-5.09-1.15-6.09m1.59-7.35c-3.2,2.41-1.67,4.66-1.11,5.9a20.85,20.85,0,0,0,1.11-5.9m1.88,21.61a10.06,10.06,0,0,0,1.3-7.3,5.92,5.92,0,0,1-2.11,4.14A5.14,5.14,0,0,1,62.54,83c.26,3.49,1.57,4.51,2.65,5.47M81.51,67.27c-.24,1.8,1.86,5.9,1.94,6.23a5.77,5.77,0,0,0-1.94-6.23M77.18,60.1c-.29,1.55,2.2,3.88,2.19,3.89s.33-3-2.19-3.89m3.63,11.78c-.74,3.4-2.21,4.69-2.21,4.68a14,14,0,0,1-2.19-2.26c-.06,2.75,2.3,5.41,2.26,5.4s2.88-2.32,2.14-7.82M74,65.53c-1.29,1.4-.08,4.16.65,6.65.69-1.22,1.51-5.34-.65-6.65m1.1-3.91a3.47,3.47,0,0,0-3.15-3.76c-.18,1.44,2.26,2.31,3.15,3.76m-3-5.2c.64.64,2.68,1.12,3.81,2.18A2.73,2.73,0,0,0,72,56.42m-2.78,7.92c-2,2.11-.76,3.88-.76,3.87s2.39-2.57.76-3.87M72.18,84.6a10.6,10.6,0,0,0,2.69-7A15.45,15.45,0,0,1,72,81.21,12.39,12.39,0,0,1,69.55,79c0,3,2.66,5.62,2.63,5.61m-3.65-13c-2.19,3.27,0,6.68,0,6.68s1.51-4.56,0-6.68m.75-23.41c.6.6,2.51,1.41,3.57,2.41-.14-1.64-1.57-2.52-3.57-2.41m1,1.9a5.78,5.78,0,0,0-3.38-1.92c.89,1.09,1.83,2,3.38,1.92m4,3.35a3.94,3.94,0,0,0-2.91-2,6.9,6.9,0,0,1,1,1.7,7.85,7.85,0,0,1-1.73.36,4,4,0,0,0,3.61,0M57,48.66c-.17.11-.32.65.3.67s.62-.56.62-.56-.66-.27-.92-.11m16.7-32.72c-.6-.44-1-.77-1.64-1.2-.55.37-1.18.9-1.59,1.23.55.42,1,.74,1.57,1.18.65-.47.94-.7,1.66-1.21M63.45,47.26a1.74,1.74,0,0,1,.12,1.05,1.63,1.63,0,0,1-1.36,1.52,1.69,1.69,0,0,1-2.16-1.5,2,2,0,0,1,.19-.9c-.35,0-.36.28-.7.71-.2.26-.54.23-1,.55a2.7,2.7,0,0,1,1.48-2,11.83,11.83,0,0,1,8,.79,19.48,19.48,0,0,0-2.82-.17c-1.16-.06-1.77-.06-1.77-.06m-.52,0c-.13-.07-1-.07-1.13.12s.55.47.76.54a.35.35,0,0,0,.41-.21c.1-.18.08-.39,0-.45M76.24,23.83c-7.87-.44-23.25.39-30.81,2.46A11.61,11.61,0,0,0,44,23.62c-2-2.15-2.84.19-2.84.46,2.53.15,3,1.45,3,1.45A6.16,6.16,0,0,1,41.64,28a9.29,9.29,0,0,1-4.32,1.51c-4.76.23-3.45-4.72-.57-6.75-.37.45-2.07,3-1,4.37,1.19,1.49,5.58.28,6.64-1.06-.59-.55-1.65-.71-3.22-.57a7,7,0,0,1,2.72-4.73,6.71,6.71,0,0,1,4,3.42c7-1.87,19.69-2.4,20.3-2.42-.15-1.2-.57-5.76-.59-6-.06-.75.43-1.09.92-1.39a3.44,3.44,0,0,0,2.19,1.78,8.24,8.24,0,0,1-1.41,1.19c.07.91.15,2.58.18,3.25a25.22,25.22,0,0,1,4.64-1.61,6.87,6.87,0,0,1,2.1-.2,3.77,3.77,0,0,1,1.85.78A2.07,2.07,0,0,1,76.75,21a8.11,8.11,0,0,1-.51,2.88m-1.63-3c-1-1.6-4.62-.15-6.94.81,1.34,0,2.49-.06,3.92,0,.58,0,2.09,0,3.1.05a.84.84,0,0,0-.08-.83m-32.8,8.52c-.45-.15-.86-.28-1.41-.43-.36.52-.74,1.21-1,1.65l2,.62c.29-.47.47-.76.72-1.14l1.38.44c.42-.65.59-1,1.06-1.65-.74-.23-1.24-.41-2-.62-.24.35-.48.76-.69,1.13m58.12-5.87c1.57-.13,3,.25,3.67-.47a4.8,4.8,0,0,1-2.3-1c.42-.34,1,.12,1.33.38.21-.21.32-.3.57-.53a2,2,0,0,0-2.93.51,3.34,3.34,0,0,1,.88.51,5.83,5.83,0,0,0-1.22.62M99,26.41c-.63,1.46-1.18,2.94-1.91,4.28.43.17,1-.2,1.44-.45,1.93-1.18,3.31-4.44,4.07-6.38a7.24,7.24,0,0,0-1.73.5c-1.13.51-1.34.82-1.87,2.05m-14.59.69,1.36,1.36c.72-.39,1-.58,1.85-1-.53-.52-.87-.88-1.42-1.39-.61.3-1.33.74-1.79,1m13-1.52A7.12,7.12,0,0,1,95.89,28,60.58,60.58,0,0,0,84,25.07a8.22,8.22,0,0,1-3.59,2.6,16.11,16.11,0,0,1-4.76-1.37,14.83,14.83,0,0,0,1.58,0,10.43,10.43,0,0,0,5.09-1.49c-2.85-.43-3.51-1.21-2.14-3,.63-.82,1.66-2.31,3.17-1.92,1.18.3,1.48,2,1.34,3.25a58.91,58.91,0,0,1,10.8,2.65c.21-.93-.39-1.38-.77-2.05a10.49,10.49,0,0,1,1.79-1.49c.82.46,1.29,2.29,1,3.32M81.8,21.36a2,2,0,0,0-.84.89c.25.39.75.56,1.51.67l.41,0c.35-.82-.4-1.84-1.08-1.59M46.36,28.09c.66.29,1.14.51,1.85.81.49-.6.72-.88,1.28-1.52-.71-.31-1.19-.53-1.92-.82a19.06,19.06,0,0,0-1.21,1.53m81.16,124c-4.33,8.54-9.75,13.87-17.15,18.56-10.8,6.86-22.06,5.22-25.72,3.09,0,0,.29.71.39.94s.27.67.35.9c1.45,3.89.47,7.94-4.82,8.54a13.63,13.63,0,0,0-4.78,1.07,15,15,0,0,0-4.28,3.2,18.72,18.72,0,0,0-2.7,3.82h0a19.12,19.12,0,0,0-2.7-3.82,14.79,14.79,0,0,0-4.29-3.2,13.53,13.53,0,0,0-4.77-1.07c-5.28-.6-6.25-4.66-4.81-8.56.08-.22.23-.61.34-.86l.39-1c-2.67,1.55-9.32,2.75-17,.65l-.76-.2a37.65,37.65,0,0,1-16.38-9.12A50.47,50.47,0,0,1,8.92,151.9C-1.36,130.65.09,99.12.05,95.75-.3,59.35,7.77,38.93,14.69,29.06c-2.08-2.75-3.35-4.42-3.45-4.51A7,7,0,0,0,6.9,22.42,77.76,77.76,0,0,0,4.43,12a58.69,58.69,0,0,0,9.22,5.35,6.43,6.43,0,0,0,.89,4.75c.08.12,1.09,1.44,2.75,3.65a37.48,37.48,0,0,1,11.45-9.57c1.23-.7,2.56-1.38,4-2a6.76,6.76,0,0,1,1.87-5.08,3.67,3.67,0,0,1,2.13-2.95h0a4.61,4.61,0,0,1,3.82,1.06A8.56,8.56,0,0,1,45.67,10a98.86,98.86,0,0,1,14.52-1.9A8.5,8.5,0,0,1,64.71,2.4,4.74,4.74,0,0,1,68.25,0h0a4.74,4.74,0,0,1,3.54,2.4,8.48,8.48,0,0,1,4.52,5.68A98.53,98.53,0,0,1,90.84,10,8.61,8.61,0,0,1,96,7.18a4.61,4.61,0,0,1,3.82-1.06h0a3.71,3.71,0,0,1,2.14,3,6.75,6.75,0,0,1,1.85,5.08c1.43.64,2.75,1.32,4,2a42.93,42.93,0,0,1,11.68,9.7c1.83-2.43,2.94-3.9,3-4a6.4,6.4,0,0,0,.9-4.74,58.88,58.88,0,0,0,9.21-5.36,80.3,80.3,0,0,0-2.46,10.43,7,7,0,0,0-4.34,2.14c-.1.1-1.55,2-3.9,5.1,6.88,10,14.83,30.19,14.49,66.36.05,2.89,1.42,35-8.86,56.3M124.29,37.75a34.14,34.14,0,0,1-8.73.82,17.19,17.19,0,0,0-1.92,8.62,7.33,7.33,0,0,1-3.63-2l-3.24,4.29A93.72,93.72,0,0,1,118.4,94,103.51,103.51,0,0,0,134,83.19c-1.06-18.86-4-33.11-9.74-45.44M106.16,94.61a15.11,15.11,0,0,0,.28,6,14.63,14.63,0,0,0,2.49-5,13.48,13.48,0,0,0,1,4.84c1.37-2,2.15-10,2.15-10s0,.19.74.44c.74-2.85.33-8.71-.27-11.46a38.42,38.42,0,0,0-8.89-17.73c-3.06-3.59-5.63-2-8.21.84-4.15,4.53-5,6.53-10,7.44-.06,0-.07,0,0,0-.5.09-.13.33.85.31,6-.1,7.86-4.07,9.66-6.06,1.19-1.32,2.72-2.51,4-1.76.48.27,2.11,2.18.41,6.86a4,4,0,0,0-.62-2.24,28.44,28.44,0,0,1-3.07,7.73,11.73,11.73,0,0,1-.38-1.66c-.59,3.79-4,7.74-4.48,13.15A3.72,3.72,0,0,1,91.08,84c-2.56,4.73-5.22,13.21-3.57,17.47C87.44,97.17,90.1,91,91.48,89c-1.76,5.55-3.81,12.43-2,16.56a31.27,31.27,0,0,1,3.61-11.72c-2.42,9.13-3.43,13.79-.72,17.31-.47-3.42.92-8.61,2.82-12.86-1.26,7.13-3.07,13.35.27,16.48-.48-4.67,1.29-10.86,2.26-13.06-1.09,6.87-2,13.52.18,16.84a36.09,36.09,0,0,1,.91-7.17c.58-3,1.47-5.9,1.47-5.9s-.7,4.82-1.07,10.67c-.07,1-.09,2-.07,3a19.69,19.69,0,0,0,.36,3.59,8.69,8.69,0,0,0,1,2.94c.6-7.76,1.5-14.48,2.54-17.58,0,0-.89,7.27-1.48,18.4,0,.4,0,.79,0,1.18-.73,16,1.43,21.11,2.1,22.64a9.6,9.6,0,0,1-.21-2.36,17,17,0,0,1,.14-3.57c.06-.57-1.42-3.5-1.22-7.46.13-2.38.29-4.74.48-7.05.18-2.1.38-4.16.6-6.12.26-1.79.41-3.51.67-5.33.36-2.58.86-5.14,1.33-7.71.37-2,.16-.25.12.24-.18,2.3-.6,7.34-1,12.52-.27,3.87-1.14,11.53-1,15.23a19.34,19.34,0,0,0,1.06,5.1c-.18,6.24.44,8.76,1.52,11.1,0,0,.65-2.22,1.14-5a1.25,1.25,0,0,1-.63.55,20.13,20.13,0,0,1-.66-9.22c.09-.65-.88-1.48-.8-4.42A137.66,137.66,0,0,1,106.48,123c.2-1.52.41-3,.62-4.41.15-.9.28-1.8.43-2.7.19-1.45.46-2.89.77-4.32,0-.23.09-.46.13-.65,0,0,0,1-.15,2.44-.49,6.15-1.89,21.88-1.91,23.13-.05,3.07.77,4,.73,4.56a32.18,32.18,0,0,0,.2,7.34,17.46,17.46,0,0,0,.47-2.59s.87-6.37,1.88-15.45c.16-1.4.31-2.8.46-4.2s.27-2.66.41-4c.15-1.62.31-3.24.46-4.85.06-.7.12-1.4.19-2.11.37-4.27.8-9.09,1.16-13.34,0,0,.58-6.92.7-9l-.34-.25s-.78,8.54-3.06,11.54c-.61-.56-1.35-3.75-1.31-4.82a13.94,13.94,0,0,1-2.58,4,11.71,11.71,0,0,1-.63-4.49,6.48,6.48,0,0,1-2.34,2.34,9.27,9.27,0,0,1-.89-4.71A6.68,6.68,0,0,1,100,98.07c-.27-.65-1.81-3.06,1-12-1.1,8.24-.44,9.2-.22,9.87a5.83,5.83,0,0,0,1.26-.82,50.33,50.33,0,0,1,.85-5.88c-.41,6.55.11,8.61.61,9.87.65-.45,1.56-1.67,2.76-4.51M86.05,97.4a88,88,0,0,1,3.27-18c-4.48,4.87-3.84,16.2-3.27,18m.84-18.49c1.42-4.26.23-6.42-.6-6.85,0,2,.49,2.88.6,6.85m3.63,3.53c1.1-3.92,1.75-6.27,1.75-9.48-1,1.12-1.88,5.34-1.75,9.48m3.87-8.38a12.71,12.71,0,0,0,.15-4.73,19,19,0,0,0-1.22,7.45,17.3,17.3,0,0,0,1.07-2.72m-10.27,32a.26.26,0,0,1,0-.21l.06,0h.07c.12,0,.27.09.56.26l.58.35a9.76,9.76,0,0,1-.48-3.11,16,16,0,0,0-.5-3.86s-.09-.13-.1-.17a6.5,6.5,0,0,1-1.12,1.81A6.69,6.69,0,0,0,81.72,104l0,.24-.18-.17c.34.32-.93-1.14-1-1.17-.49,1.87-3.68,5.89-4.43,6.73h0c-.1.14-1.33,1.95-1.8,6.46a27.26,27.26,0,0,0,0,6.88l1.13-1.23a21.1,21.1,0,0,1-.1,2.55,7.61,7.61,0,0,1-.45,1.89,4.48,4.48,0,0,0,4-1.72l.3.82c.29.82.51,1.78-.14,2.28-.1.08-1.17,1-1,2a1.39,1.39,0,0,0,.63.91l0,0v.06a1.15,1.15,0,0,0,.69.93,1.66,1.66,0,0,1,0-.89,1.13,1.13,0,0,1,1-.78,1.66,1.66,0,0,1,.52.06s.27,2.59.49,3.65.44,2.15.59,3.49l.09.89c.1.88.61,1,1.07,1a6.78,6.78,0,0,0,1.1,0h0l-.06,0c-.67.18-.62.45-.6.54a2.87,2.87,0,0,1,0,1.7l.1.09a2,2,0,0,0,.9-2.31v-.07l.06,0c.77-.44.59-2-.51-4.34-.53-1.1-.74-2.95-.4-3.13h.06c.17,0,.38,0,.91.75.36.53.72,1,1.19,1.55a2.52,2.52,0,0,1,.72,1.5.42.42,0,0,1-.14.35.56.56,0,0,1-.33.1,3.48,3.48,0,0,1-.72,0c.26.25,1.19,1.32,1.47,1,.7-.8.06.51,1.3.63.79,0,1.36-.49,1.4-1.45a4.59,4.59,0,0,0-.11-.86,4.71,4.71,0,0,0-1.21-2.17l-.27-.3c-2.06-2.27-1.88-2.77-1.76-3s.39-.46.93-.47a11.59,11.59,0,0,1,1.73.11c.84.15,2.21.37,2.16.82a.39.39,0,0,1-.21.24c-.29.11-.76.28-.83.18a2,2,0,0,0,.77.53c.35.17,1.77.57,2.21-.09l.14-.3c.25,0,.94-.11,1.09-.58s-.44-1.06-1-1.35a24.51,24.51,0,0,0-3.07-1.16c-.46-.13-1-.25-1.48-.37l-2.48-.65c-.06,0-1.36-.44-1.85-.66a4.7,4.7,0,0,1-.53-.25,3,3,0,0,1-1-.9A10.69,10.69,0,0,1,82,122a5.6,5.6,0,0,0,2,.8,11.89,11.89,0,0,1-.08-2.24c.39-4.1.47-6.45.47-6.45l.83.85a26.79,26.79,0,0,0-.26-4.13v0a41.59,41.59,0,0,0-.8-4.75m2.95,19.52,1.92.5c.29.09.6.16.93.24a7.61,7.61,0,0,0,.45-2.8c0-1.08,2.4,1.17,4,2.8.68.69.81.39.42-.14a23.06,23.06,0,0,0-5.75-4.9c-1.55-1-2.33-.73-1.8.13s.48,2.54-.19,4.17m2.87,16c1.83,2.3,4.74,6.59,5.84,7.75,2.4,2.5,3.42,2.78,5.25,2.9-.58-1.72-1.22-3.37-4-7.8a71.22,71.22,0,0,0-6.46-8.94,3.56,3.56,0,0,1-.17,1.28c0,.09-.08.18-.13.27a2.33,2.33,0,0,1-.66.74,2.25,2.25,0,0,1-1.41.36,1.87,1.87,0,0,1-1.22-.57,1.35,1.35,0,0,1-.88-.22,2.42,2.42,0,0,1-.47,2,3.39,3.39,0,0,1-1,2.44l.13.19c.61,1.07.34,1.6.06,1.94s-3.15,3.52-3.8,4.09a1.19,1.19,0,0,1-1.59-.09l-.47-.4-1.34,1.35.15.14a11.44,11.44,0,0,0,3.26,2c1.05.44,4.13,1.59,6.2,2.44-.5-1.53-1.07-3.28-1.67-5,.53.73,2,3.37,3.31,5.7l.08,0A55.08,55.08,0,0,1,94.52,157c-.14-.58-.25-1-.25-1A29.26,29.26,0,0,1,91.69,153a31.87,31.87,0,0,1-4.15-8.32c2.39,3.61,3,4.62,3.95,5.89,3,4.06,6.24,5.83,7.48,5.85-.43-2.25-1.23-2.76-1.23-2.76a22,22,0,0,1-3.1-3.41c.39.52.75,1-.08-.11-.61-.85-.37-.51,0-.07a40.8,40.8,0,0,1-4.58-8.51m-8.26,19.91c4.1.51,12.85.39,16-.83a65,65,0,0,0-13.82-7.22,27.66,27.66,0,0,1-5-2.4,20.66,20.66,0,0,1-2.28-1.84c-2.52-2.31-9.14-9.21-10.31-10.49l-4.39,4s11.64,11.37,14.58,13c3.74,2,14.48,4.46,14.48,4.46s-8.23-.62-14.49-3.15c-3.76-1.52-15.68-13.27-15.68-13.27L57.9,146.4a83.3,83.3,0,0,0,9.86,9.44,26.22,26.22,0,0,0,13.92,5.62m-12.62-2.61a8.09,8.09,0,0,0,2.28,4.86,6.71,6.71,0,0,0,1-3,19,19,0,0,1-3.3-1.83M49.19,144.49A32.36,32.36,0,0,1,45,152.81a26.69,26.69,0,0,1-2.61,3.05s-.08.28-.18.72l-.32.17,1.74-1,.86-.43c1.15-.61,2.42-1.2,3.68-1.73,1.25-2.25,2.74-4.91,3.2-5.61a25.58,25.58,0,0,1-1.77,5l1-.38c2-.78,3.69-1.4,4.52-1.8a11.67,11.67,0,0,0,2.54-1.54l.56-.5L56.8,147.4l-.48.4a1.18,1.18,0,0,1-1.59.09c-.65-.58-3.55-3.8-3.8-4.1s-.61-.91.06-1.93c0,0,0,0,0-.06a3.41,3.41,0,0,1-1-2.5,2.39,2.39,0,0,1-.47-2,1.38,1.38,0,0,1-.88.22,1.82,1.82,0,0,1-1.21.57h-.18a2,2,0,0,1-1.3-.41,1.89,1.89,0,0,1-.71-.91.5.5,0,0,1,0-.13,48.58,48.58,0,0,0-5.49,7.59c-2.78,4.44-3.43,6.05-4,7.76,1.84-.12,2.86-.39,5.25-2.89,1.11-1.17,4-5.46,5.84-7.75A41,41,0,0,1,42.16,150a21.43,21.43,0,0,1-3.28,3.6s-.69.43-1.12,2.69c1.23,0,4.46-1.8,7.47-5.85,1-1.27,1.57-2.29,4-5.9m-1.67-12.07a4.93,4.93,0,0,0-1.58,3.33,1.32,1.32,0,0,0,1.4,1.45c1.23-.12.6-1.43,1.29-.63.29.33,1.22-.74,1.47-1-.53.08-1.3.16-1.17-.61a3.41,3.41,0,0,1,.88-1.51c.32-.4,1.33-2.31,2-2.08.32.23.13,2-.39,3.13-1.11,2.35-1.29,3.9-.52,4.34l.06,0V139a2,2,0,0,0,.9,2.31l.1-.09a2.78,2.78,0,0,1,.06-1.7c0-.09.06-.36-.6-.54l-.07,0h0a6.88,6.88,0,0,0,1.11,0,1,1,0,0,0,1.07-1l.09-.89a33.24,33.24,0,0,1,.58-3.49c.22-1.06.5-3.65.5-3.65a1.57,1.57,0,0,1,.51-.06,1.11,1.11,0,0,1,1,.78,1.54,1.54,0,0,1,0,.89,1.19,1.19,0,0,0,.69-.93v-.06l0,0a1.36,1.36,0,0,0,.63-.91c.14-.93-.94-1.88-1-2-.65-.5-.44-1.46-.15-2.28l.37-1a5,5,0,0,0,1.26,1.08,4.38,4.38,0,0,0,3,.8,7.61,7.61,0,0,1-.45-1.89,21.1,21.1,0,0,1-.1-2.55L61.63,123a18.43,18.43,0,0,0,.23-6.51A24.3,24.3,0,0,0,60.1,109a13.49,13.49,0,0,0-1-2.21,2.52,2.52,0,0,1-.9,1.29,18.06,18.06,0,0,1-3-5.12,4.72,4.72,0,0,1-.94,1.17l-.18.17,0-.24a6.59,6.59,0,0,0-1.51-2.92,6.5,6.5,0,0,1-1.12-1.81,17.56,17.56,0,0,0-.55,4,9.76,9.76,0,0,1-.48,3.11L51,106c.28-.18.42-.27.55-.27l.09,0,0,0a.29.29,0,0,1,.06.22,38.05,38.05,0,0,0-.81,4.77,15.8,15.8,0,0,0,.13,3.92c.11-.12,1.27-.74,1.27-.74a18.54,18.54,0,0,0-.36,6.56,11.89,11.89,0,0,1-.08,2.24,5.18,5.18,0,0,0,1.8-.7,10.33,10.33,0,0,1-.84,2.46c-1,1.38-3.16,1.73-4.74,2.15a28.4,28.4,0,0,0-5.71,1.84c-.6.29-1.18.91-1,1.35s.83.58,1.08.58l.14.3c.44.66,1.86.26,2.21.09a2.21,2.21,0,0,0,.78-.53c-.08.1-.55-.07-.84-.18a.39.39,0,0,1-.21-.24c-.09-.83,3.39-.94,3.89-.93s.73.11.93.47.3.72-1.76,3m1-11.06c.54-.86-.24-1.09-1.79-.13a23.06,23.06,0,0,0-5.75,4.9c-.39.53-.26.83.43.14,1.61-1.63,4.05-3.88,4-2.81a7.37,7.37,0,0,0,.47,2.84c.26-.06.5-.12.73-.19l2.11-.56c-.67-1.64-.82-3.21-.21-4.19M45,89.18c1.37,2,4,8.19,4,12.52C50.62,97.43,48,89,45.4,84.23a3.71,3.71,0,0,1-.68,2.36c-.49-5.42-3.89-9.36-4.47-13.15a13.54,13.54,0,0,1-.38,1.65,28.36,28.36,0,0,1-3.08-7.72,4.06,4.06,0,0,0-.62,2.24c-1.69-4.69-.06-6.59.42-6.87,1.28-.75,2.82.45,4,1.77,1.79,2,3.66,5.95,9.66,6,1,0,1.35-.22.85-.31,0,0,0,0,0,0-5-.91-5.86-2.91-10-7.43C38.5,60,35.92,58.38,32.87,62A38.35,38.35,0,0,0,24,79.69c-.61,2.76-1,8.61-.28,11.47.7-.26.75-.45.75-.45s.77,8,2.14,10a13.23,13.23,0,0,0,1-4.83,14.57,14.57,0,0,0,2.48,5,14.73,14.73,0,0,0,.28-6c1.2,2.85,2.11,4.06,2.76,4.52.51-1.27,1-3.32.62-9.88a48.44,48.44,0,0,1,.84,5.88,5.55,5.55,0,0,0,1.27.82c.21-.67.87-1.62-.23-9.86,2.76,8.92,1.23,11.34,1,12a6.89,6.89,0,0,1-1.94-1.65,9.39,9.39,0,0,1-.88,4.7A6.48,6.48,0,0,1,31.37,99a11.63,11.63,0,0,1-.63,4.48,14.16,14.16,0,0,1-2.58-4c.05,1.08-.69,4.26-1.3,4.83-2.28-3-3.07-11.55-3.07-11.55l-.34.25c.13,2.08.39,5.31.7,9v0c.37,4.26.79,9.08,1.17,13.35q1.34,15.34,3.4,30.64a17.51,17.51,0,0,0,.47,2.6,32.25,32.25,0,0,0,.2-7.35c-.05-.56.78-1.49.72-4.56,0-1.25-1.43-17-1.91-23.13-.06-.76-.15-2.42-.15-2.44.05.19.09.42.14.65.48,2.33.85,4.68,1.19,7,.21,1.4.42,2.88.62,4.4A119.58,119.58,0,0,1,31.3,137c.07,2.93-.9,3.76-.81,4.41a20,20,0,0,1-.66,9.23,1.3,1.3,0,0,1-.63-.56c.5,2.79,1.14,5,1.14,5,1.08-2.34,1.71-4.87,1.52-11.11a19.45,19.45,0,0,0,1.07-5.1c0-1-.13-4-.39-7.71-.47-6.68-1.05-13.36-1.58-20,0-.31-.08-1.11-.09-1.17.07.3.14.61.22.93a162,162,0,0,1,3.07,26.21c.21,4-1.27,6.89-1.21,7.46a17.06,17.06,0,0,1,.13,3.58,9,9,0,0,1-.21,2.36c.68-1.53,2.84-6.66,2.11-22.65l-.06-1.18c-.58-11.13-1.47-18.4-1.47-18.4,1,3.1,1.93,9.82,2.54,17.59l.22-.4a21.41,21.41,0,0,0,1.11-9.09c-.37-5.85-1.07-10.65-1.07-10.64s.13.44.16.48a50,50,0,0,1,1.31,5.4,55.13,55.13,0,0,1,.87,6.28c0,.3,0,.59,0,.88,2.22-3.32,1.27-10,.19-16.84,1,2.2,2.74,8.4,2.25,13.06,3.34-3.12,1.53-9.34.27-16.48,1.9,4.25,3.29,9.44,2.83,12.86,2.7-3.52,1.7-8.18-.73-17.31a31.2,31.2,0,0,1,3.62,11.72c1.76-4.13-.28-11-2-16.56m30,20.21s1.43-1.37,2-5.86a3.09,3.09,0,0,1,.94,1.3c.91-1.1,2.72-7.14,2.91-9.2.61.26.07.13.75.47a30.13,30.13,0,0,0,2-9.07c.22.07.6.07.77.26.32-2.17.63-5.67.73-8.11.08-2.1,0-6.44-.88-8.92a25.72,25.72,0,0,0-2.75-6.08,2.47,2.47,0,0,0-.77.6,53.73,53.73,0,0,0-2-5.16c-1.37-2.66-2-4.38-3.43-5.27a10.32,10.32,0,0,0,1.7.14,26.27,26.27,0,0,0-2.32-2.27c.34-.23.94-.21,1.93,0C75.12,50.91,74.64,49,71,47.59a16.07,16.07,0,0,1,2,.07,6.15,6.15,0,0,0-3.36-2.41c-3.69-.72-8.79-.84-11.17,2a5.3,5.3,0,0,1-1.39.54,2.15,2.15,0,0,0-.68.35c-.42.3-.49.72.29,1.85-1-.16-1.29-1.15-1.48-1A3.45,3.45,0,0,0,54.14,50a4,4,0,0,0-.57,2.08.7.7,0,0,0,1.16-.53c.06-.35,1.68-.5,2.24-.5.81,0,1.56.19,2.58.14-.36.14-1.51.46-1.92.59s-.5.61-.07.65.68-.16,1.13-.26c.21.12,0,.62.17.92,3-.68,3.2,2.52,6.37,1.89-1.49-1.17-2.76-3.12-3.93-3.71,3.12.49,4.82,3.3,8.2,3.45a5,5,0,0,0-.41-.91c1.17,0,2,.89,2.33.86a4.75,4.75,0,0,1-2.71,1c.23.43,1.5.52,1.92.59a3,3,0,0,1-3,.62,13.59,13.59,0,0,1-3.39,2.86,8.25,8.25,0,0,1,.12-1c-1.45.84-2.41,2.38-3.5,2.79.32-.53.6-1.48.83-2-3.81,3.45-7.46,6.78-8.84,9.27-1.53,2.79-2,5.67-1.81,10.41.14,2.55,1.23,9.76,1.42,11.17.3-.13.52-.25.79-.34a59.28,59.28,0,0,0,5.08,15.12,2.21,2.21,0,0,1,.84-1.12,7,7,0,0,0,2.14,4,4.05,4.05,0,0,1,.47-1.84c.32,1,.13,4.2,2,6a9.32,9.32,0,0,1,.46-2.79,24.79,24.79,0,0,0,.87,3.33,6.37,6.37,0,0,0,2,2.72,10.36,10.36,0,0,1,.4-3.4,9.71,9.71,0,0,1,1.45,4.27c1.85-1.42,2.56-6.09,2.56-6.08a4,4,0,0,1,.93,1.76c1.61-1.69,2.11-3.91,2.59-5.6a9.77,9.77,0,0,1,.07,2.92m1.86,24.7a21.44,21.44,0,0,0,3.68-.15c-.06-.25-.11-.5-.15-.71s0-.34-.06-.52l0,0a9.73,9.73,0,0,1-4.22.26,13.2,13.2,0,0,1-1.73-.43c-.67-.19-1.74.92-2.57,1.8s-1.65,1.83-2.07,2.27a.15.15,0,0,0,0,.23c.77.69,10,9.09,10.52,9.6.15.14.25.15.43,0,.42-.42,1-1.07,1.61-1.66l-9.22-8.68a.33.33,0,0,1-.1-.39c.07-.08.46-.49.54-.56a.29.29,0,0,1,.41.05c.12.15,3,2.8,3,2.8l3.92,3.48,2.46,2.19c.35-.37.3-.29.4-.4.37-.4.27-.67-1-1.88L76.34,135c-.62-.7-.17-.93.55-.94M62.72,136,53.5,144.7c.59.59,1.19,1.24,1.6,1.65.19.19.29.18.44,0,.57-.51,9.75-8.91,10.51-9.6a.14.14,0,0,0,0-.23c-.41-.44-1.36-1.52-2.07-2.27s-1.9-2-2.57-1.79a15.77,15.77,0,0,1-1.73.42,9.53,9.53,0,0,1-4.22-.27l-.21-.06c0,.22,0,.45-.07.64a5.76,5.76,0,0,1-.13.62,20.62,20.62,0,0,0,3.83.17c.72,0,1.17.24.55.94l-6.36,6.35c-1.27,1.19-1.34,1.48-1,1.88.09.11.05,0,.4.39L55,141.4l3.91-3.48s2.86-2.65,3-2.8a.31.31,0,0,1,.41-.06l.54.57a.33.33,0,0,1-.1.39m.89-21.45a2.82,2.82,0,0,0-.33-1.24,8.28,8.28,0,0,0-1.07-1.17,1.28,1.28,0,0,1-.28-.47,4.29,4.29,0,0,0,.18,1.5,1.83,1.83,0,0,0,.79,1,2.63,2.63,0,0,0,.71.36M63.52,132l.8.78a24.43,24.43,0,0,0,.42-4.36A10.17,10.17,0,0,0,63.52,132m-3.65-.22c.34-.12,1.21-.51,1.68-.63a2.14,2.14,0,0,1,.35-.07,28.68,28.68,0,0,1,1-3c-.28-.07-2.58,3.12-3,3.75m6.75,3.35c0-1.23-.1-2.58-.18-3.17a6.08,6.08,0,0,0-.82,2.14l1,1m.6-8.21a2.9,2.9,0,0,0-1.4-2.1,3.46,3.46,0,0,0,1.4,2.1m.94-2.62v0a.06.06,0,0,1,0,0,2.59,2.59,0,0,1,.84-.91,24.34,24.34,0,0,0,3.5-2.54,5.1,5.1,0,0,0,.7-1.61,4.47,4.47,0,0,1-1.48,1.33A13.59,13.59,0,0,0,68.47,123a2.5,2.5,0,0,0-.29.79,1.58,1.58,0,0,0-.16-.59c-.62-1.31-2.49-1.83-3.6-3.12-.73-.84-.76-1.19-.76-1.19a3.16,3.16,0,0,0,.49,2,12,12,0,0,0,2.49,2.05,4,4,0,0,1,1.52,1.42M67,119.67c0-2-2.24-2.28-2.76-4.3-.25,2.85,1.73,2.89,2.76,4.3m1,8.13a7.41,7.41,0,0,0,.93-.5A3.5,3.5,0,0,0,70.26,126a2.25,2.25,0,0,0,.21-1.43,2.83,2.83,0,0,1-.88,1.23,12.26,12.26,0,0,0-1,1,4.41,4.41,0,0,0-.59.93m2,1.21c.21,1.22.36,4.07.41,5h0l1-1a10,10,0,0,0-1.44-4m-1.82,7.44c0-.07.73-.89,1.08-1.26l.06-.06a12.7,12.7,0,0,0-1.09-4.27c-.1.73-.09,3.49,0,5.59m0,.84c0,.68,0,1.21,0,1.47l.71-.76s-.56-.5-.74-.71m.47,2.43c1.28,1.34,3,3.13,4.12,4.23l1.19-1.15-4.41-4.05c-.17.2-.49.54-.9,1M73.8,145c1,.93,2,2,2.86,2.84.49-.53.9-1,1.23-1.36L75,143.81s-.45.45-1.21,1.18m.86-13.61a24.28,24.28,0,0,0-2.74-3.18,25.47,25.47,0,0,1,1.15,3.18h0a1.4,1.4,0,0,1,.17-.09,1,1,0,0,1,.55-.12,2.12,2.12,0,0,1,.61.12l.25.09M73.59,114.8a8.37,8.37,0,0,1-1.76,2.07,6.35,6.35,0,0,0,.29-1.42,10.34,10.34,0,0,1-1.7,2.24,5.54,5.54,0,0,0-1.56,2.57,7.59,7.59,0,0,1,1.94-1.4,6.57,6.57,0,0,0,2.79-4.06M53.05,97a6.07,6.07,0,0,0,2.64,4.68A15.83,15.83,0,0,0,53.05,97M86.13,67.72a3,3,0,0,0,1.77-.41,1.89,1.89,0,0,0,.75-.71c3.79-5.5,10.85-14.34,16.13-21.31C94,34.63,78.53,33.9,74.5,34.2c-1,.07-2,.82-.83,2.38-.88.39-4.18.1-5.41-1.06C67,36.68,63.73,37,62.85,36.58,64.05,35,63,34.27,62,34.2,58,33.9,41.7,35.48,31.89,45.06c5.41,7.15,16.71,22.09,17,22.38a2,2,0,0,0,1.46.66h.26A2.74,2.74,0,0,0,52.31,67c1.16-1.27,1.75-2,2.9-3.16,2.22-2.28,4.32-4,4.67-4.32a3.24,3.24,0,0,0,1.27-2.28c-.06-.82-.7-1.15-1.1-1.64a1.61,1.61,0,0,1-.21.29,5.13,5.13,0,0,1-.77-1.54l-.21.58s-.84-2-2.15-1.82a5.06,5.06,0,0,1-3.12-.58c-.12,0-.18.58-.15,1.28l-.07,0c-1.24-1-1.61-3.77.77-5.51A11.13,11.13,0,0,1,57,46.7a3,3,0,0,0,1-.82,6.6,6.6,0,0,1,3.16-1.69,23.9,23.9,0,0,1,6.34-.51,12.38,12.38,0,0,1,3.84.82,14.62,14.62,0,0,1,4.26,3.6,37.53,37.53,0,0,1,3,6c1.65,4,1.46,3.59,2.58,6.26a30.86,30.86,0,0,0,3.28,6.47,1.93,1.93,0,0,0,1.7.86m19.45-23.5,1.1-1.44a47,47,0,0,0-20.3-10.52A54.15,54.15,0,0,0,73.89,31c-2.25,0-3.69.9-3.69,2.29-1.39-.25-1.77-2-1.94-2.33-.14.73-.82,2.16-1.94,2.33,0-1.39-1.44-2.26-3.68-2.29a54.18,54.18,0,0,0-12.5,1.24A45.08,45.08,0,0,0,30,42.49c.36.48.73,1,1.09,1.45a41.9,41.9,0,0,1,16.63-9.32,53.36,53.36,0,0,1,14.59-1.93c2.63.12,3,1.61,2.69,2.42a4.31,4.31,0,0,0,3.3-1.58,4.33,4.33,0,0,0,3.32,1.58c-.31-.81.06-2.3,2.69-2.42a53.36,53.36,0,0,1,14.59,1.93,44.42,44.42,0,0,1,16.73,9.6m3-5.33c.55,1.93,1.14,4.07,2.76,5.37a5.53,5.53,0,0,0,.74.48l0,0c0-3.68,1.21-5.67,2.18-7.83v0a16.76,16.76,0,0,0,6.82.05c-3.47-2.35-2.72-5-5.29-7.84a9.51,9.51,0,0,0-1-.93,4,4,0,0,0-2.1-.9,1.45,1.45,0,0,0-1.19.52c-.34.37-4,4.25-6.33,6.93,2.13-.05,2.7,1.91,3.33,4.15M110.92,26A37.75,37.75,0,0,0,100,19C88,13.68,72.65,13.66,68.27,13.66h0c-4.38,0-19.68,0-31.74,5.31A37.2,37.2,0,0,0,25.61,26s5.46,6.12,6.87,7.78A2.61,2.61,0,0,1,33,36.73c8.37-5.62,17.9-8.43,34.89-8.53h.76c16.69.16,26.5,3,34.8,8.54a2.6,2.6,0,0,1,.55-2.91c1.41-1.66,6.88-7.78,6.88-7.78M25,27.82h0c-.34-.37-1.2-1.12-3.29.38C18,31.42,19.15,34.36,15.31,37a19.64,19.64,0,0,0,3.4.33,13,13,0,0,0,1.63-.1c.71-.08,1.28-.2,1.79-.27h0c1,2.16,2.2,4.14,2.17,7.82,4.49-2.38,2.66-10.08,6.85-10L25,27.82m2.92,15.51c3.29,4.39,5.78,7.7,6.28,8.38,1.15,1.57,5.1,6.31,5.06,5.7a53.42,53.42,0,0,0-4-5.79c-2.22-3-4.54-6.13-6.81-9.15-.21.31-.41.6-.57.86M44.22,73.15c0,3.21.64,5.57,1.75,9.48.12-4.14-.74-8.35-1.75-9.48m-2.28-3.63a13,13,0,0,0,.15,4.74A20.51,20.51,0,0,0,43.16,77a19.07,19.07,0,0,0-1.22-7.46m8.5,28.08c.56-1.77,1.21-13.09-3.28-18a87.88,87.88,0,0,1,3.28,18M38.11,160.7c3.15,1.22,11.9,1.34,16,.83a26.74,26.74,0,0,0,12.59-4.61c-.87-.74-1.94-1.73-3.05-2.78a21.33,21.33,0,0,1-4.32,2.94c-6.26,2.53-14.49,3.15-14.49,3.15s10.74-2.43,14.48-4.46a25.72,25.72,0,0,0,3.35-2.56c-1.38-1.33-2.74-2.67-3.77-3.7a22.72,22.72,0,0,1-2,1.57,27.66,27.66,0,0,1-5,2.4,65,65,0,0,0-13.82,7.22m25.58,0a19.47,19.47,0,0,0,1.27,3,9,9,0,0,0,2.62-5.39A16.24,16.24,0,0,1,66,159.45c-.92.54-1.75,1-2.35,1.24M102.85,51.46c.47-.64,2.75-3.69,5.82-7.77a10,10,0,0,1-.6-.82c-2.12,2.82-4.27,5.71-6.33,8.5a55.88,55.88,0,0,0-4,5.8c0,.61,3.91-4.13,5.07-5.71m17.74-20.33-1.11,1.47a10.56,10.56,0,0,0,4.69,4.95,68.22,68.22,0,0,0-3.58-6.42m-2.52-1.49c.08.13.42.73.5.88l12-15.92a41.17,41.17,0,0,1-5.91,3.34,7.4,7.4,0,0,1-1.29,4.79c-.19.24-2.26,2.93-5.29,6.91M18.44,27.26l.93,1.24A41,41,0,0,1,37.76,15.44c-.59-.89-1.43-2.85.76-5,0,0,0,0,0,0,3.24.41,4.05,2.36,4.25,3.38A91.84,91.84,0,0,1,63.31,11c.28-5.34,4.07-6.62,4.07-6.62A1.65,1.65,0,0,1,68.25,3h0a1.67,1.67,0,0,1,.88,1.35S72.93,5.65,73.21,11a91.84,91.84,0,0,1,20.52,2.84c.2-1,1-3,4.26-3.38h0c2.19,2.14,1.35,4.1.76,5a41.89,41.89,0,0,1,18.59,13.22l1-1.27a43.39,43.39,0,0,0-17-12.44,4.85,4.85,0,0,0-1.25-5.17,2.21,2.21,0,0,0-1-1.89h0a2.84,2.84,0,0,0-2.19.86A6.13,6.13,0,0,0,92.11,12,92.76,92.76,0,0,0,74.85,9.7a7.23,7.23,0,0,0-4.32-6.31,3.35,3.35,0,0,0-2.27-1.95,3.33,3.33,0,0,0-2.27,2A7.2,7.2,0,0,0,61.68,9.7,92.76,92.76,0,0,0,44.41,12a6.13,6.13,0,0,0-4.75-3.26,2.85,2.85,0,0,0-2.19-.87,2.23,2.23,0,0,0-1,1.9A4.87,4.87,0,0,0,35.18,15,41.86,41.86,0,0,0,18.44,27.26m-.38,3a5.41,5.41,0,0,1,.55-.83c-2.84-3.72-4.76-6.2-4.94-6.43a7.43,7.43,0,0,1-1.29-4.8,41.25,41.25,0,0,1-5.9-3.33L18.06,30.24m-5.83,7.4a12,12,0,0,0,3.43-3A16.24,16.24,0,0,0,17,32.39s-1.19-1.52-1.19-1.52c-1.29,2.19-2.49,4.44-3.57,6.77M2.43,83.19A102.69,102.69,0,0,0,18.07,94c.21-5.32.35-24.43,11.79-44.83L26.73,45a8.43,8.43,0,0,1-3.91,2.19,17.19,17.19,0,0,0-1.92-8.62,34.14,34.14,0,0,1-8.73-.82C6.41,50.08,3.49,64.33,2.43,83.19m52.11,86.68.07-.17c.32-.88,1.8-4.41,2.55-6.2-.1-.31-.2-.62-.29-.93-1,.17-2,.32-3.07.42-.68.07-10.85,1.64-18.22-1.82.89-.63,2.58-2,4.86-3.49,0-.15.05-.31.08-.45a8.89,8.89,0,0,1-4.77,1.1,10.81,10.81,0,0,1,.79-4.38,6.19,6.19,0,0,1-3,0,45.9,45.9,0,0,1,3.52-7.87,89.15,89.15,0,0,1,8.07-11.42,6.12,6.12,0,0,1,1.43-2.55l.44-.48q-.45-.4-.87-.72a2.27,2.27,0,0,1-.73.56,4.88,4.88,0,0,1-1.81.55c-.94,0-1.48-.15-1.81-.62l-.06-.11a1.79,1.79,0,0,1-1.34-1.15,1.1,1.1,0,0,1,0-.35,1.19,1.19,0,0,1-1.35-.19c-.66-.56.25-3.4,3.36-6.36a21,21,0,0,1,6.12-4.09c1.47-.64,2.33.61,1.62,1.47a4.5,4.5,0,0,0-.65,4.75c.9-.29,1.24-.44,1.37-.49a2.38,2.38,0,0,0,1.23-.86,1.46,1.46,0,0,0,.14-.32l-1.29.15c.66-1.63-.36-5.62.31-8.21a4.85,4.85,0,0,1-.88.51,31.35,31.35,0,0,1-.22-7.9A5.35,5.35,0,0,0,48.5,106a25.4,25.4,0,0,1-4.12,6.73c-1.64,2-4.62,3.86-6.14,10.37a.05.05,0,0,1,0,0,14.48,14.48,0,0,1-1.08,3,7.54,7.54,0,0,0-.93,3.25v0c.11,4.1-.07,12.6-1.08,17.34A18.48,18.48,0,0,1,32.77,153l-.24-.19a15.18,15.18,0,0,1-2.67,5.84s-1.39-2.78-3.92-24C23.16,111.35,21.76,87,21.76,87h0a37,37,0,0,1,1.95-13A45,45,0,0,1,32.3,60.1a5.15,5.15,0,0,1,4.79-1.49l-1-1.28c-1.6-2.13-3.45-4.45-5-6.55C19.73,70.84,20,94.76,20,95v2.55l-2-1.06c-9-5.08-12.85-8.15-15.76-10.57-.12,2.43-.37,10.67-.37,10.67s0,1.88,0,5c0,9.56,1.72,33,9.52,49.17a47.72,47.72,0,0,0,9.27,12.34,35.91,35.91,0,0,0,13.82,8.1l1.2.39a24.63,24.63,0,0,0,18.83-1.69m-.44,6.65a5,5,0,0,1,5.35-.76A102.53,102.53,0,0,1,60.65,165a6.06,6.06,0,0,1-1.77,1.33c-.13,0-.3-.15-.48-.38-1.79,4.35-4.28,10.47-4.3,10.53m22.66,2.07c.13-3-1.07-10.93-1.81-15.46-.08-.12-.17-.24-.24-.37s-.29-.41-.44-.63a20.9,20.9,0,0,1-1,2.82,7.15,7.15,0,0,1-1.47,2.27,10.78,10.78,0,0,1-3.64-4.49,10.7,10.7,0,0,1-3.6,4.42,7,7,0,0,1-1.47-2.28c-.23-.5-.42-1-.6-1.51-.7,4.76-1.75,12.4-1.62,15.23-4.41-2.93-7.1,0-6.18,2a2.55,2.55,0,0,0,.29.48,2.83,2.83,0,0,0,2.2,1.16,14.24,14.24,0,0,1,5.44,1.25,17.34,17.34,0,0,1,6.2,5.1,17.34,17.34,0,0,1,6.2-5.1,14.24,14.24,0,0,1,5.45-1.25,3,3,0,0,0,2.19-1.16,3.26,3.26,0,0,0,.3-.48c.91-2-1.77-5-6.19-2m6.76-2.07c0-.06-2.69-6.93-4.32-11.1a3.25,3.25,0,0,1-.87,1,5.55,5.55,0,0,1-1.48-1.06,83.87,83.87,0,0,1,1.32,10.45,5,5,0,0,1,5.35.76m51-79.77c-.05-3.21-.23-8.46-.36-10.88-3,2.44-5.89,4.91-15.29,10.33l-2.46,1.33V95.76c0-.2.68-24.09-10.93-44.69-.73,1-3.18,4.09-5.69,7.28a5.12,5.12,0,0,1,4.35,1.56,44.75,44.75,0,0,1,8.6,13.9,37.24,37.24,0,0,1,1.94,13h0s-1.4,24.33-4.19,47.64c-2.52,21.17-3.91,23.95-3.91,23.95a15.19,15.19,0,0,1-2.68-5.85l-.23.2a18.34,18.34,0,0,1-2.36-6.28c-1-4.75-1.19-13.24-1.08-17.34v0a7.36,7.36,0,0,0-.93-3.25,15.09,15.09,0,0,1-1.08-3s0,0,0,0c-1.52-6.51-4.5-8.35-6.14-10.37a29.83,29.83,0,0,1-4.3-7.06.91.91,0,0,0-.16.13,6,6,0,0,0-1.94,2.68c.37,3.8.72,6.51.15,8.45a10.12,10.12,0,0,1-.79-.65c.26,2.52-.93,5.42-.18,7.73l-1.48-.19a1.84,1.84,0,0,0,.16.36,2.06,2.06,0,0,0,.75.64l.49.23c.13.06.51.21,1.53.54a4.5,4.5,0,0,0-.66-4.74c-.71-.85.15-2.11,1.62-1.47a20.87,20.87,0,0,1,6.12,4.1c3.1,2.94,4,5.79,3.36,6.35s-.9.34-1.51.13a2,2,0,0,1,0,.34,1.81,1.81,0,0,1-1.34,1.15l-.07.11c-.33.47-.86.64-1.8.62a4.67,4.67,0,0,1-1.82-.55,2.25,2.25,0,0,1-.62-.44l-.55.44c2.46,3.32,7.17,8.78,10.54,14.78a45.33,45.33,0,0,1,3.52,7.87,6.11,6.11,0,0,1-3,0,11,11,0,0,1,.8,4.38,8.91,8.91,0,0,1-4.78-1.11l.15.83c1.5,1.1,3.19,2.34,3.94,2.86-7.39,3.46-18.07,1.88-18.28,1.85-.51-.06-1-.14-1.38-.2-.06.19-.16.43-.26.68.72,1.71,2.4,5.69,2.78,6.49,4.68,2.14,9,3.55,15.76,2.43a21.55,21.55,0,0,0,4-1.07c2.93-1,8.45-4.22,12.67-8.19A48.87,48.87,0,0,0,125,150.9c8.18-16,9.51-39.61,9.51-49.18,0-3.13,0-4.82,0-5"/></g></g></svg>