<svg xmlns="http://www.w3.org/2000/svg" viewBox="0 0 87.11 170.84"><g id="Layer_2" data-name="Layer 2"><g id="Layer_1-2" data-name="Layer 1"><path d="M56.82,127.13H30.29A30.33,30.33,0,0,1,0,96.84V30.29A30.33,30.33,0,0,1,30.29,0H56.82A30.33,30.33,0,0,1,87.11,30.29V96.84A30.33,30.33,0,0,1,56.82,127.13ZM30.29,8.31a22,22,0,0,0-22,22V96.84a22,22,0,0,0,22,22H56.82a22,22,0,0,0,22-22V30.29a22,22,0,0,0-22-22Z" style="fill:#fdfce8"/><rect x="39.66" y="31.24" width="7.8" height="22.57" rx="1.2" style="fill:#fdfce8"/><polygon points="27.46 153.13 30.81 150.09 41.3 161.63 41.3 130.36 45.81 130.36 45.81 161.66 56.32 150.1 59.65 153.13 47.45 166.54 43.56 170.84 27.46 153.13" style="fill:#fdfce8"/></g></g></svg>